<svg id="Capa_1" data-name="Capa 1" xmlns="http://www.w3.org/2000/svg" viewBox="0 0 85.73 56.53"><defs><style>.cls-1{fill:#f1f2f2;}</style></defs><path class="cls-1" d="M34.69,22.88A20.5,20.5,0,0,0,20.1,17.05a22.41,22.41,0,0,0-5.91.66,10.78,10.78,0,0,0-2.81,1.17l2-10.44H36.71V.36H6.27L.42,30.6H8.28l.29-.35a14,14,0,0,1,5.11-3.85,16.6,16.6,0,0,1,6.42-1.27A12.53,12.53,0,0,1,29,28.63a11.11,11.11,0,0,1,3.73,8.52A10.17,10.17,0,0,1,29,45.2a12.78,12.78,0,0,1-8.85,3.25,14.14,14.14,0,0,1-8.39-2.51,8,8,0,0,1-3.62-6.73v-1H0v1A15.7,15.7,0,0,0,6.2,51.83a21.56,21.56,0,0,0,13.9,4.7A20.73,20.73,0,0,0,34.59,51a18.08,18.08,0,0,0,6.24-13.83A19,19,0,0,0,34.69,22.88Z"/><path class="cls-1" d="M83.13,32.19a15.5,15.5,0,0,0-4.87-4.59,13,13,0,0,0,3.82-4h0A14.11,14.11,0,0,0,84,16.33,15.5,15.5,0,0,0,79,4.66,17.15,17.15,0,0,0,67,0H42.83V56.53H67A19.82,19.82,0,0,0,80,52a14.68,14.68,0,0,0,5.75-11.8A13.63,13.63,0,0,0,83.13,32.19ZM74,46.15a11.16,11.16,0,0,1-7,2.3H51.63V31.59H67a10.51,10.51,0,0,1,7,2.46,7.66,7.66,0,0,1,3,6.15A7.32,7.32,0,0,1,74,46.15ZM72.79,21.39h0A8.44,8.44,0,0,1,67,23.51H51.63V8.09H67a7.89,7.89,0,0,1,5.85,2.41,7.87,7.87,0,0,1,2.4,5.79A6.35,6.35,0,0,1,72.79,21.39Z"/></svg>