<svg id="Capa_1" data-name="Capa 1" xmlns="http://www.w3.org/2000/svg" viewBox="0 0 177.44 54.4"><defs><style>.cls-1{fill:#f1f2f2;}</style></defs><path class="cls-1" d="M4.07,53.42H1a1,1,0,0,1-.87-1.35L19.38,9.3a1,1,0,0,1,.87-.57h3.2a1,1,0,0,1,.88.57L43.62,52.07a1,1,0,0,1-.87,1.35h-3a1,1,0,0,1-.88-.56l-4.32-9.7a1,1,0,0,0-.87-.57H10.08a1,1,0,0,0-.87.57L5,52.85A1,1,0,0,1,4.07,53.42Zm8.69-15H30.89a1,1,0,0,0,.87-1.35l-9-20.43a1,1,0,0,0-1.75,0l-9.1,20.43A1,1,0,0,0,12.76,38.42Z"/><path class="cls-1" d="M59.71,35.85,71.87,23.57a.92.92,0,0,1,.68-.29h2.91a1,1,0,0,1,.68,1.63L65,36.07a1,1,0,0,0,0,1.33L78.36,51.82a1,1,0,0,1-.7,1.6H74.78a.94.94,0,0,1-.69-.29L62,40.54a.94.94,0,0,0-.69-.3H56.15a1,1,0,0,0-1,1V52.47a1,1,0,0,1-1,1H51.71a1,1,0,0,1-1-1V8.06a1,1,0,0,1,1-1h2.52a1,1,0,0,1,1,1V35.18a1,1,0,0,0,1,1H59A1,1,0,0,0,59.71,35.85Z"/><path class="cls-1" d="M107.11,52.68a1,1,0,0,1-.73,1.08,24.62,24.62,0,0,1-5.85.64c-6.92,0-10.24-3.59-10.24-11.48V28.28a1,1,0,0,0-1-1h-5a1,1,0,0,1-1-1V24.24a1,1,0,0,1,1-1h5a1,1,0,0,0,1-1V11.58a.94.94,0,0,1,.95-.95h2.52a1,1,0,0,1,1,.95V22.33a1,1,0,0,0,1,1h8.85a1,1,0,0,1,1,1v2.13a1,1,0,0,1-1,1H95.68a1,1,0,0,0-1,1V42.53c0,5.41,1.83,7.83,6.53,7.83a30.64,30.64,0,0,0,4.47-.38,1,1,0,0,1,1.09.8Z"/><path class="cls-1" d="M141.76,52a1,1,0,0,1-.76.94,83.39,83.39,0,0,1-15.75,1.46c-7.57,0-12.26-3.91-12.26-12.33V24.24a1,1,0,0,1,1-1h2.53a1,1,0,0,1,1,1v17c0,6.07,3.07,9.33,8.68,9.33a71.67,71.67,0,0,0,10.41-.79,1,1,0,0,0,.81-.94V24.24a1,1,0,0,1,1-1h2.52a1,1,0,0,1,1,1Z"/><path class="cls-1" d="M177.44,24.73V52.47a1,1,0,0,1-1,1H174a1,1,0,0,1-1-1h0a1,1,0,0,0-1.44-.83,18.56,18.56,0,0,1-9.85,2.76c-9,0-15-6.46-15-16.18.07-9.52,5.81-15.92,15.27-15.92a69.54,69.54,0,0,1,14.68,1.49A1,1,0,0,1,177.44,24.73ZM151.15,38.35c0,7.24,4.31,12.2,11.09,12.2,3.46,0,6.49-.91,10.33-3.37a1,1,0,0,0,.44-.8V27.82a1,1,0,0,0-.83-.94,63,63,0,0,0-9.61-.73C155.06,26.15,151.15,31.18,151.15,38.35Z"/><path class="cls-1" d="M144,5.26l-.82.14h0c-.26.06-.52.14-.79.22-.53.15-1.06.32-1.59.49h0c-.51.22-1,.43-1.53.67-.26.12-.53.22-.77.36l-.74.41c-.48.28-1,.55-1.45.88s-.92.64-1.38,1-.88.71-1.31,1.07a14.94,14.94,0,0,0-1.24,1.15c-.4.4-.81.78-1.18,1.2s-.75.84-1.1,1.28-.7.88-1,1.33-.65.91-.95,1.39-.61.94-.88,1.43-.38.69-.56,1l-.18-.14c-.72-.54-1.45-1.06-2.2-1.57s-1.5-1-2.28-1.49c-.44-.27-.9-.53-1.36-.79a.33.33,0,0,0-.44.46c.28.45.57.89.86,1.32.52.75,1,1.49,1.6,2.21s1.1,1.42,1.68,2.11c.28.35.57.7.86,1s.59.69.89,1l1.24,1.35a.32.32,0,0,0,.52-.05L129,22.93c.22-.37.52-.82.8-1.23s.56-.84.86-1.25.59-.82.88-1.24l.91-1.22c.31-.4.64-.78,1-1.19s.64-.78,1-1.17.66-.77,1-1.16c.17-.18.34-.37.5-.57s.34-.37.51-.56c.36-.36.68-.75,1-1.11s.72-.71,1.07-1.08.75-.69,1.11-1.06.74-.71,1.14-1,.77-.68,1.16-1h0c.4-.32.82-.64,1.22-1l.61-.51h0l.64-.46.39-.29a.33.33,0,0,0-.25-.59Z"/><path class="cls-1" d="M121.85,11.26c.44.58.9,1.14,1.37,1.69s.94,1.1,1.42,1.64l.85,1a.33.33,0,0,0,.53-.05l.8-1.31c.18-.31.42-.67.64-1s.46-.68.7-1c.46-.68,1-1.33,1.45-2,.25-.32.51-.64.76-1s.52-.63.78-.94.53-.63.8-.94.54-.62.83-.91.55-.6.84-.89l.87-.88c.29-.29.61-.55.91-.84s.6-.57.92-.83.64-.54,1-.81l0,0,1-.77.49-.39,0,0,.52-.36h0a.33.33,0,0,0-.25-.59h0l-.65.12h0c-.21,0-.42.12-.63.18l-1.27.41h0c-.41.18-.82.35-1.22.55-.21.09-.42.18-.62.29l-.58.34a12.4,12.4,0,0,0-1.16.71c-.38.25-.74.52-1.11.79s-.7.57-1,.86-.68.6-1,.93-.65.63-.95,1-.6.67-.89,1-.55.71-.82,1.07-.53.74-.78,1.12-.48.76-.7,1.15-.34.61-.51.92l-.25-.19c-.57-.44-1.16-.87-1.75-1.29s-1.21-.82-1.82-1.22l-.77-.46a.33.33,0,0,0-.44.46c.16.25.33.5.5.75C121,10.1,121.4,10.69,121.85,11.26Z"/></svg>