<svg id="Capa_1" data-name="Capa 1" xmlns="http://www.w3.org/2000/svg" viewBox="0 0 238.32 36.99"><defs><style>.cls-1{fill:#f1f2f2;}</style></defs><path class="cls-1" d="M113.46,8.55l.86.36c.16.06.33.11.49.18a2.36,2.36,0,0,1,1,3.82,4.23,4.23,0,0,1-2,1.43,11.33,11.33,0,0,1-3.73.63c-2.13.06-4.27,0-6.4,0a2.64,2.64,0,0,1-.42-.08c.06-.41.1-.8.18-1.18.7-3.29,1.41-6.58,2.11-9.88a4.48,4.48,0,0,0,.11-.5.52.52,0,0,1,.6-.49,53.21,53.21,0,0,1,8.37.3,4.59,4.59,0,0,1,.83.21A2,2,0,0,1,117,4.88a2.34,2.34,0,0,1-.88,2.47,10.71,10.71,0,0,1-1.7.83C114.16,8.3,113.9,8.38,113.46,8.55Zm-7,5.65a2.76,2.76,0,0,0,.67.15c1.29-.07,2.59-.11,3.87-.27a2.6,2.6,0,0,0,2.31-2.24,1.89,1.89,0,0,0-1.52-2.54,13.78,13.78,0,0,0-3.68-.37.58.58,0,0,0-.65.53C107.17,11,106.83,12.55,106.48,14.2Zm1.4-6c.09.05.17.12.24.12a10.73,10.73,0,0,0,4.18-.4A2.43,2.43,0,0,0,114,6a1.57,1.57,0,0,0-1.32-2.18,25.86,25.86,0,0,0-3.16-.34c-.7,0-.76,0-.92.75-.25,1.12-.48,2.25-.71,3.37A2.91,2.91,0,0,0,107.88,8.16Z"/><path class="cls-1" d="M175.59,15.25a10.33,10.33,0,0,1-3.63-.56,7.28,7.28,0,0,1-2.38-1.38,4.29,4.29,0,0,1-1.34-4.91,6.48,6.48,0,0,1,2-2.89,11.46,11.46,0,0,1,7-2.87,12.87,12.87,0,0,1,4.54.36,7.46,7.46,0,0,1,2.8,1.47A4.4,4.4,0,0,1,186,9.15a6,6,0,0,1-2.06,3.22A12.13,12.13,0,0,1,175.59,15.25ZM182.9,7.6a10.18,10.18,0,0,0-.12-1.11,4.31,4.31,0,0,0-4.71-3.32A7.23,7.23,0,0,0,171.38,9a5.28,5.28,0,0,0,.05,2.65c.63,2,2.24,3.08,4.62,3A7.36,7.36,0,0,0,182.9,7.6Z"/><path class="cls-1" d="M147,14.89a1.94,1.94,0,0,1-2.26-.73c-2.28-2.71-4.63-5.36-7-8-.24-.28-.49-.54-.88-1-.83,3.34-1.39,6.53-2.15,9.77l-1.35.06c.06-.36.09-.64.14-.9q1.13-5.25,2.24-10.48c.15-.73.18-.74.89-.76,2.1-.06,2.1-.06,3.5,1.54q2.65,3.07,5.33,6.14c.2.23.42.45.77.82.75-2.88,1.19-5.65,1.87-8.43h1.4Q148.27,9,147,14.89Z"/><path class="cls-1" d="M114.12,34.12a9.56,9.56,0,0,1-4.49-.9c-3.3-1.67-3.85-4.72-1.88-7.57a9.38,9.38,0,0,1,4.85-3.44,11.49,11.49,0,0,1,7.46-.16,7.18,7.18,0,0,1,2,1,4.5,4.5,0,0,1,1.77,5.25,6.47,6.47,0,0,1-2.44,3.37A11.37,11.37,0,0,1,114.12,34.12Zm6.81-7.52a4,4,0,0,0-1.8-3.77,4.71,4.71,0,0,0-3.32-.65,7.14,7.14,0,0,0-6,6.85c-.09,3.07,2.07,4.84,5,4.5A7.16,7.16,0,0,0,120.93,26.6Z"/><path class="cls-1" d="M161.81,24.25c-.68,3.17-1.36,6.33-2.05,9.52h-1.32c.21-1.05.4-2,.6-3l1.68-7.94c0-.22.12-.44.15-.67a.52.52,0,0,1,.59-.49c.64,0,1.27,0,1.9,0,.45,0,.66.32.89.6q2.94,3.53,5.87,7c.2.24.41.46.72.81.12-.32.22-.51.27-.71.48-2.25.95-4.51,1.43-6.76.23-1.07.35-1.13,1.54-.83-.21,1-.43,2.06-.65,3.09-.57,2.7-1.15,5.4-1.72,8.11-.06.3,0,.69-.45.74s-.93.17-1.31-.2c-.23-.23-.42-.48-.62-.72q-3.33-4-6.65-8l-.62-.69Z"/><path class="cls-1" d="M199.18,30c.09-.41.2-.82.29-1.23.43-2,.85-4.05,1.28-6.08.23-1.05.38-1.14,1.53-.81-.22,1.08-.44,2.18-.67,3.27L199.93,33c-.07.32,0,.76-.48.81s-1,.17-1.37-.28l-.45-.52-6.76-8.1c-.2-.24-.41-.46-.74-.82-.12.4-.22.65-.28.91-.57,2.64-1.13,5.29-1.7,7.93-.21,1-.27,1-1.4.8a3.37,3.37,0,0,1,0-.55q1.09-5.25,2.21-10.48c0-.17.1-.33.12-.5a.48.48,0,0,1,.52-.47h.17c2.08-.13,2.08-.13,3.42,1.48l5.2,6.24c.18.22.38.41.57.62Z"/><path class="cls-1" d="M127.77,24.05c-.81,3.33-1.37,6.52-2.14,9.72h-1.31l2.53-12c.9,0,1.73,0,2.55,0,.25,0,.52.32.72.55q3,3.54,5.93,7.1c.19.23.41.45.71.76.11-.34.2-.55.25-.76l1.38-6.5.12-.5c.17-.68.18-.69.86-.69a4.73,4.73,0,0,1,.56.07c0,.32-.05.6-.11.88q-1.09,5.19-2.22,10.38c-.06.3,0,.7-.44.75s-1,.21-1.37-.24l-.51-.59-6.7-8C128.37,24.69,128.13,24.45,127.77,24.05Z"/><path class="cls-1" d="M63,28.47h2.5c0,.14.1.25.08.35-.22,1.07-.43,2.14-.68,3.2a.88.88,0,0,1-.43.48,13.08,13.08,0,0,1-9.27,1.37,7.43,7.43,0,0,1-1.46-.51A4.61,4.61,0,0,1,51.3,27a6.92,6.92,0,0,1,2.07-2.83,11.06,11.06,0,0,1,9.48-2.31A4.88,4.88,0,0,1,66.07,24l-.84.42c-.1-.16-.19-.3-.29-.44a4.32,4.32,0,0,0-3.42-1.73,6.8,6.8,0,0,0-7.28,5.55A7.68,7.68,0,0,0,54,29.62a3.5,3.5,0,0,0,2.86,3.61,7.47,7.47,0,0,0,4.73-.47,1,1,0,0,0,.66-.82C62.5,30.81,62.76,29.7,63,28.47Z"/><path class="cls-1" d="M186.81,21.8c0,.5-.16.66-.55.66-.67,0-1.33,0-2,0h-4.93c-.33,1.54-.64,3-1,4.59.44.05.77.11,1.1.12h4.76a3,3,0,0,1,.68,0,.36.36,0,0,1,.23.29.37.37,0,0,1-.25.28,3.07,3.07,0,0,1-.68,0h-5.1c-.88,0-.89,0-1.09.87-.26,1.15-.51,2.31-.75,3.46,0,.25-.06.51-.1.88a16.3,16.3,0,0,0,2.41.06c.81,0,1.62,0,2.42,0h2.42c0,.48-.11.72-.52.73h-9c-.26,0-.51,0-.81-.05a4.31,4.31,0,0,1,0-.72l2.22-10.56c.15-.72.2-.78.8-.78q4.66,0,9.33,0A2.13,2.13,0,0,1,186.81,21.8Z"/><path class="cls-1" d="M167.12,5l-.87.38c-.13-.09-.22-.12-.27-.19-1.43-1.85-3.42-2.15-5.53-1.83a7.09,7.09,0,0,0-6,6.94,3.9,3.9,0,0,0,3.9,4.17A8.83,8.83,0,0,0,165,12.05a2.43,2.43,0,0,1,.29-.22l.39.17a2.62,2.62,0,0,1,.21.17.61.61,0,0,1-.09.23,9.81,9.81,0,0,1-5.55,2.77,10.5,10.5,0,0,1-5-.33,9.12,9.12,0,0,1-1.95-.91,4.27,4.27,0,0,1-2-5,7.18,7.18,0,0,1,3-4.2,12.11,12.11,0,0,1,8.8-2,5.71,5.71,0,0,1,3,1.25C166.42,4.23,166.71,4.57,167.12,5Z"/><path class="cls-1" d="M116.92,14.89c3.21-4.06,6.37-8,9.54-12,.44.53,4.54,10.84,4.8,12a11.73,11.73,0,0,1-2.88.11.88.88,0,0,1-.43-.46c-.28-.69-.51-1.41-.77-2.11s-.25-.68-1-.69c-1.61,0-3.23,0-4.84,0a1.13,1.13,0,0,0-1,.5c-.51.7-1.09,1.35-1.56,2.07A1.43,1.43,0,0,1,116.92,14.89Zm4.58-3.8c1.71.05,3.33,0,5.1,0a43.78,43.78,0,0,0-1.66-4.54A23.21,23.21,0,0,0,121.5,11.09Z"/><path class="cls-1" d="M105.91,23.93a2.43,2.43,0,0,1-.33.21,4.15,4.15,0,0,1-.53.17,4.36,4.36,0,0,0-3.1-2,6.81,6.81,0,0,0-7.75,4.85,5.88,5.88,0,0,0-.21,3.4,3.62,3.62,0,0,0,3.29,2.74A8.31,8.31,0,0,0,103.85,31l.36-.3.6.32c0,.12-.06.21-.11.26a9.24,9.24,0,0,1-4.53,2.57,9.76,9.76,0,0,1-6-.31,7.84,7.84,0,0,1-1.88-1,4.11,4.11,0,0,1-1.56-4.22,6.41,6.41,0,0,1,2.05-3.81,10.77,10.77,0,0,1,10.18-2.62A4.57,4.57,0,0,1,105.91,23.93Z"/><path class="cls-1" d="M226,33.8h-3.13c-.22-.63-.46-1.3-.69-2-.1-.27-.18-.54-.27-.82a.56.56,0,0,0-.58-.42c-1.72,0-3.45,0-5.18,0a1.11,1.11,0,0,0-.68.43c-.56.7-1.07,1.43-1.61,2.14s-.57.74-1.73.56l9.34-12.09C223,25.78,224.5,29.74,226,33.8Zm-4.65-3.87a15.6,15.6,0,0,0-1.66-4.45c-1,1.47-2.23,2.81-3.26,4.45Z"/><path class="cls-1" d="M143.5,33.84c.82-3.86,1.59-7.53,2.4-11.35h-4.26c-.2-.47-.12-.69.26-.75a3,3,0,0,1,.52,0H152.7c.22,0,.45,0,.69.06.08.49-.1.68-.55.68-1,0-2,0-2.93,0-.31,0-.62,0-1,.05-.26,1.17-.51,2.28-.74,3.4-.51,2.39-1,4.79-1.53,7.18-.16.74-.17.74-.89.75Z"/><path class="cls-1" d="M206.17,33.65c.65-3.67,1.58-7.31,2.27-11a5.71,5.71,0,0,0-2.16-.16c-.72,0-1.43,0-2.16,0-.1-.51.06-.73.51-.74h10.71a1,1,0,0,1,.42.05.48.48,0,0,1,.21.32.42.42,0,0,1-.22.32,2,2,0,0,1-.6,0H212.3c-.78,0-.82,0-1,.78-.46,2.19-.92,4.39-1.39,6.58l-.69,3.29c-.15.7-.18.73-.93.73-.6,0-1.21,0-1.81,0C206.42,33.81,206.35,33.74,206.17,33.65Z"/><path class="cls-1" d="M77.43,33.86c.8-3.86,1.56-7.53,2.35-11.32-1.49-.15-2.87,0-4.25-.1-.18-.39-.13-.63.3-.7a3,3,0,0,1,.52,0h10a1,1,0,0,1,.43,0c.16.06.38.18.41.32s-.16.39-.43.4h-3.2c-.78,0-.84.05-1,.78-.64,3.09-1.26,6.19-1.92,9.29-.32,1.5,0,1.31-1.63,1.32Z"/><path class="cls-1" d="M231.06,33.06c2.45.12,4.83,0,7.22.07.12.46,0,.7-.48.71h-9c-.28,0-.56,0-.94,0l.65-3.12c.58-2.73,1.15-5.46,1.73-8.19.15-.75.16-.76.88-.77h2.18c0,.42-.07.73-.13,1l-2,9.54C231.13,32.5,231.11,32.72,231.06,33.06Z"/><path class="cls-1" d="M69,28.85a12.84,12.84,0,0,1-.54-1.18,2.38,2.38,0,0,1,.35-2.59,2.69,2.69,0,0,1,2.79-.69,1.82,1.82,0,0,1,.65,3.17c-.3.31-.64.56-1,.91l2.26,2.65A8.6,8.6,0,0,0,75,28.5l.72.78L74,31.83l1.86,2.24c-.91,0-1.61,0-2.32,0-.16,0-.33-.19-.48-.32s-.37-.35-.44-.42c-1,.35-1.81.71-2.68,1A2.89,2.89,0,0,1,67.89,34a2.28,2.28,0,0,1-1.06-3A2.87,2.87,0,0,1,68,29.49Zm.48.13a1.66,1.66,0,0,0-1,1.75,2.19,2.19,0,0,0,1.48,1.86A1.9,1.9,0,0,0,72,32.07Zm1.35-1.59a2.14,2.14,0,0,0,1-1.35,1.1,1.1,0,0,0-.43-1.3.87.87,0,0,0-1,0A1.11,1.11,0,0,0,70,26,3.05,3.05,0,0,0,70.83,27.39Z"/><path class="cls-1" d="M152.92,33.7c.36-1.71.7-3.34,1.05-5q.67-3.15,1.36-6.32c.14-.66.16-.68.86-.69h2.14c-.06.39-.08.66-.14.93Q157.1,27.84,156,33c-.17.81-.19.82-1,.81A6.32,6.32,0,0,1,152.92,33.7Z"/><path class="cls-1" d="M37.65,5.23a5.41,5.41,0,0,0-4.16-5A8.3,8.3,0,0,0,31.44,0C27.26,0,23.08,0,18.9,0H17.17c-4,0-7.9,0-11.85,0A5.4,5.4,0,0,0,.28,4,7.71,7.71,0,0,0,0,6.09Q0,18.41,0,30.74c0,.26,0,.52,0,.77a5.51,5.51,0,0,0,4.07,5.22A8.69,8.69,0,0,0,6.3,37H31.38c.32,0,.64,0,.95,0a5.59,5.59,0,0,0,5.18-4.25A7.51,7.51,0,0,0,37.67,31q0-12.54,0-25.08C37.67,5.7,37.67,5.46,37.65,5.23ZM23.11,32.08H5.41L22.27,3.17,26.45,9.8a25.85,25.85,0,0,0-9.16,7.66c-6.38,8.21-6.38,14.4-6.38,14.4.92-5.06,4.65-10.92,4.65-10.92,4-6.1,11.55-9.89,11.55-9.89l1.72,2.89a26.36,26.36,0,0,0-8.58,7c-4.39,5.94-4.39,11-4.39,11,1.9-12.2,13.44-17.18,13.44-17.18l3.3,5.71A16.84,16.84,0,0,0,23.11,32.08Z"/></svg>