<svg id="Capa_1" data-name="Capa 1" xmlns="http://www.w3.org/2000/svg" viewBox="0 0 152.93 43.24"><defs><style>.cls-1{fill:#f1f2f2;}</style></defs><path class="cls-1" d="M43.81,21q7.47,2.51,7.47,10.92,0,11.36-16.51,11.35H0V0H35.25q6.63,0,10.43,3.22a10.72,10.72,0,0,1,3.79,8.6q0,5.91-5.66,9.14M35.37,18.1a7.54,7.54,0,0,0,5-1.71,5.28,5.28,0,0,0,2-4.17A5.28,5.28,0,0,0,40.62,8a7.34,7.34,0,0,0-4.94-1.57H7.23V18.1Zm-.54,18.69q9,0,9-5.91,0-6.33-7.89-6.33H7.23V36.79Z"/><polygon class="cls-1" points="100.12 6.46 63.63 6.46 63.63 17.56 88.99 17.56 88.99 24.01 63.63 24.01 63.63 43.24 56.45 43.24 56.45 0.01 100.12 0.01 100.12 6.46"/><path class="cls-1" d="M152.93,10.6l-6.63,2.2q-6.69-6.6-18.73-6.6-9.12,0-14.87,4.34A13.31,13.31,0,0,0,107,21.59a13.31,13.31,0,0,0,5.69,11.19Q118.33,37,128,37q11.67,0,18.37-6.71l6.26,3.22A28.18,28.18,0,0,1,141.89,41a40.28,40.28,0,0,1-14.32,2.28q-11.68,0-19.41-5.41-8.8-6.19-8.81-16.24,0-9.85,8.94-16.12Q116.08,0,127.57,0q16.55,0,25.36,10.6"/></svg>