<svg id="Capa_1" data-name="Capa 1" xmlns="http://www.w3.org/2000/svg" viewBox="0 0 135.84 69.9"><defs><style>.cls-1{fill:#f1f2f2;}</style></defs><path class="cls-1" d="M12.49,0H123.34a12.48,12.48,0,0,1,12.49,12.49h0V57.4a12.48,12.48,0,0,1-12.49,12.5H12.49A12.48,12.48,0,0,1,0,57.4H0V12.49A12.48,12.48,0,0,1,12.49,0ZM123.34,4.18H12.49a8.31,8.31,0,0,0-8.32,8.31V57.4h0a8.31,8.31,0,0,0,8.31,8.33H123.34a8.33,8.33,0,0,0,8.33-8.32V12.49h0a8.33,8.33,0,0,0-8.33-8.31Z"/><path class="cls-1" d="M17.79,52.53V41.11h2.95a5.44,5.44,0,0,1,5.71,5.71,5.44,5.44,0,0,1-5.71,5.71Zm13-5.71c0-5.33-4.12-9.47-10.07-9.47H13.62V56.29h7.12c6,0,10.07-4.14,10.07-9.47Z"/><polygon class="cls-1" points="34.11 37.35 34.11 56.29 47.83 56.29 47.83 52.58 38.25 52.58 38.25 48.52 46.61 48.52 46.61 44.81 38.25 44.81 38.25 41.05 47.69 41.05 47.69 37.35 34.11 37.35 34.11 37.35"/><path class="cls-1" d="M60.67,37a9.8,9.8,0,1,0-.2,19.59c4.39,0,6.54-1.63,7.33-2.28l-2-3.08a8.3,8.3,0,0,1-4.73,1.52c-3.66,0-6.29-2.42-6.29-6,0-3.21,2.4-6,6.54-6a10.47,10.47,0,0,1,5.5,1.58v-4A14.4,14.4,0,0,0,60.67,37Z"/><polygon class="cls-1" points="70.72 37.35 70.72 56.29 74.89 56.29 74.89 47.75 82.48 56.29 88.06 56.29 79.2 46.54 87.6 37.35 82.02 37.35 74.89 45.63 74.89 37.35 70.72 37.35 70.72 37.35"/><polygon class="cls-1" points="90.74 37.35 90.74 56.29 104.46 56.29 104.46 52.58 94.88 52.58 94.88 48.52 103.24 48.52 103.24 44.81 94.88 44.81 94.88 41.05 104.32 41.05 104.32 37.35 90.74 37.35 90.74 37.35"/><path class="cls-1" d="M108.6,37.35V56.29h4.17V49.82h1.53l5,6.47h5.25L119,49.53a5.81,5.81,0,0,0,4.72-6.11c0-3.53-2.62-6.07-7.15-6.07Zm4.17,8.79v-5h3.42c2,0,3.34.83,3.34,2.53s-1.23,2.5-3.26,2.5Z"/><polygon class="cls-1" points="113.52 24.93 113.52 29.8 117.36 29.8 117.36 24.93 122.26 24.93 122.26 21.19 117.36 21.19 117.36 16.32 113.52 16.32 113.52 21.19 108.62 21.19 108.62 24.93 113.52 24.93 113.52 24.93"/><polygon class="cls-1" points="99.23 22.78 107.63 13.59 102.05 13.59 94.91 21.87 94.91 13.59 90.74 13.59 90.74 32.53 94.91 32.53 94.91 24 102.51 32.53 108.09 32.53 99.23 22.78 99.23 22.78"/><path class="cls-1" d="M86.85,18.69v-4a14.5,14.5,0,0,0-6.15-1.41,9.8,9.8,0,1,0-.21,19.59c4.39,0,6.54-1.63,7.34-2.28l-2-3.08A8.38,8.38,0,0,1,81.09,29c-3.66,0-6.29-2.42-6.29-6,0-3.21,2.4-5.95,6.54-5.95a10.56,10.56,0,0,1,5.51,1.58Z"/><path class="cls-1" d="M69.55,32.53,61.43,13.45H57.35L49.09,32.53h4.39l1.73-4.25h8L65,32.53ZM59.21,18.46l2.64,6.41H56.57l2.64-6.41Z"/><polygon class="cls-1" points="38.28 28.74 38.28 13.59 34.11 13.59 34.11 32.53 47.69 32.53 47.69 28.74 38.28 28.74 38.28 28.74"/><path class="cls-1" d="M28.67,18.51c0-2.62-2-4.92-6.25-4.92h-8.8V32.53h9c4.28,0,7.09-1.76,7.09-5.22a4.65,4.65,0,0,0-3.54-4.68,4.5,4.5,0,0,0,2.49-4.12Zm-6.94-1.27c1.76,0,2.8.76,2.8,2s-1,2-2.8,2H17.68v-4Zm.84,7.47c2.13,0,3,.9,3,2.08,0,1.41-1.17,2.09-3,2.09H17.68V24.71Z"/></svg>