<svg id="Capa_1" data-name="Capa 1" xmlns="http://www.w3.org/2000/svg" viewBox="0 0 82.94 91.58"><defs><style>.cls-1{fill:#fff;}</style></defs><path class="cls-1" d="M82.93,45.86c0,12.56,0,25.12,0,37.68a8.18,8.18,0,0,1-6.64,7.9,8.58,8.58,0,0,1-1.6.14H8.52A8.21,8.21,0,0,1,.06,84.44,6.91,6.91,0,0,1,0,83.23V7.81A8.11,8.11,0,0,1,6.66.14,11.81,11.81,0,0,1,8.54,0h66a8.27,8.27,0,0,1,8.07,5.79,8.57,8.57,0,0,1,.35,2.52ZM4.3,45.72V79.29a7.45,7.45,0,0,0,2.26,5.45,8,8,0,0,0,5.92,2.36q12.36,0,24.71,0h33.3a7.86,7.86,0,0,0,8.14-7.92V12.39a7.84,7.84,0,0,0-7.88-7.9q-29.28,0-58.55,0a7.86,7.86,0,0,0-7.9,8Z"/><path class="cls-1" d="M12,41c.81-1.89,1.58-3.7,2.36-5.51Q20,22.24,25.68,9a.9.9,0,0,1,1-.65c7.18,0,14.36,0,21.54,0a6.35,6.35,0,0,1,6.52,5.45,8.89,8.89,0,0,1-3.34,8.36,10.29,10.29,0,0,1-6.23,2.29c0,.2.19.2.33.24C49.42,26,51.08,29.29,50.84,33a8.75,8.75,0,0,1-8.64,8c-10,0-20,0-29.92,0ZM28.42,30.4h9.94a1.07,1.07,0,0,0,.74-.28.91.91,0,0,0,.26-.92c-.08-.31-.32-.33-.59-.34l-9.24-.05c-.22,0-.45,0-.55.26S28.62,29.93,28.42,30.4ZM37.3,18.52h3.18a1.53,1.53,0,0,0,.84-.17.86.86,0,0,0,.52-.81c0-.4-.42-.4-.74-.44s-.44,0-.67,0c-1.77,0-3.55.05-5.33,0a1.19,1.19,0,0,0-1.39.95c-.17.54,0,.54.42.54C35.19,18.51,36.25,18.52,37.3,18.52Z"/><path class="cls-1" d="M25,79.84l3-7Q33.29,60.42,38.62,48a1,1,0,0,1,1.11-.76c7.16,0,14.31,0,21.47,0a6.45,6.45,0,0,1,6.34,4.59c1.19,4.3-1.46,8.6-4.75,10.26a11.23,11.23,0,0,1-2.33.86,20.92,20.92,0,0,1-2.53.41,10.27,10.27,0,0,1,2.32,1,7.72,7.72,0,0,1,3.53,7.78A8.65,8.65,0,0,1,55,79.85c-9.9,0-19.8,0-29.7,0ZM41.39,69.27c3.36,0,6.63,0,9.9,0a1.15,1.15,0,0,0,.76-.26.94.94,0,0,0,.28-1c-.07-.28-.29-.31-.53-.31l-9.37,0c-.21,0-.38,0-.48.26C41.79,68.37,41.59,68.79,41.39,69.27ZM50.27,57.4h0c1.12,0,2.24,0,3.36,0,.68,0,1.3-.52,1.2-1-.15-.63-.72-.49-1.17-.5-1.84,0-3.68,0-5.52,0-1.14,0-1.12,0-1.49,1.07-.12.36,0,.42.32.42C48.07,57.39,49.17,57.4,50.27,57.4Z"/><path class="cls-1" d="M62.94,30.39c.33-.27.28-.57.16-1A2.47,2.47,0,0,1,66,26.08a1.7,1.7,0,0,1,1.53,1.16A1.64,1.64,0,0,1,66.89,29a5.69,5.69,0,0,1-1.71.93c-.22.08-.46.12-.31.45a16.65,16.65,0,0,0,2.2,3.86A5,5,0,0,0,67.94,33c.34-.6.33-1.1-.37-1.45-.15-.08-.39-.17-.2-.45s.1-.54.49-.53h3.37c-.3,1.09-.3,1.11-1.35,1.09a.68.68,0,0,0-.79.5,5.49,5.49,0,0,1-1.32,2c-.41.39-.29.59.06.93a2.33,2.33,0,0,0,2.41.81c.09,0,.21-.13.27,0s-.06.28-.2.38a2.55,2.55,0,0,1-3.4-.2c-.42-.42-.67-.41-1.13-.08a4,4,0,0,1-3.32.72,2.76,2.76,0,0,1-2.22-3.48A4,4,0,0,1,63,30.38c-.34.46-.85.76-1.15,1.28a3,3,0,0,0,.32,3.55,2.39,2.39,0,0,0,3,.43c.41-.22,1-.27.34-1.06a11.64,11.64,0,0,1-2-3.84C63.32,30.49,63.22,30.33,62.94,30.39Zm1.2-2.6a4.61,4.61,0,0,0,.24,1.41c0,.16.06.29.3.22a2.37,2.37,0,0,0,1.53-2.3.91.91,0,0,0-1.56-.57A1.45,1.45,0,0,0,64.14,27.79Z"/></svg>