<svg id="Capa_1" data-name="Capa 1" xmlns="http://www.w3.org/2000/svg" viewBox="0 0 158.23 32.84"><defs><style>.cls-1{fill:#fff;fill-rule:evenodd;}</style></defs><path class="cls-1" d="M27.62,9.87h-3.9V8s-.42-3.83-7.88-3.83S4.73,9.87,4.73,16.76s5.38,11.86,11,11.86,10.45-4.31,10.45-4.31l2.32,3.23s-4,5.22-12.6,5.22A15.87,15.87,0,0,1,0,16.6C0,7.21,6.87,0,16.09,0S27.7,5,27.7,6.38,27.62,9.87,27.62,9.87Z"/><path class="cls-1" d="M37.06.66V4.31h2.08s.76.24.76,1.41V30a2.25,2.25,0,0,0,2.39,2.16H57.15s2,0,2-2.66V25.4h-4v2.06a.89.89,0,0,1-.92.91h-9s-.92,0-.92-1.66V2.65a2.25,2.25,0,0,0-2.41-2Z"/><path class="cls-1" d="M157.57,8.38h-4V6.88s-.32-2.81-5.06-2.81-5.4,3.14-5.4,4.48.58,2.82,3.07,4,12,3.4,12,11.52-8.72,8.71-10.2,8.71a13.48,13.48,0,0,1-10-4.64L140.31,25s3.32,3.81,7.38,3.81,6.15-2,6.15-4.81-3.23-4.56-4.81-5.13S138.4,15.43,138.4,8.38s7.23-8.3,10.21-8.3c4.4,0,9,2.4,9,5.23Z"/><path class="cls-1" d="M90.16,16.42a11.71,11.71,0,1,1,23.39,0,11.71,11.71,0,1,1-23.39,0Zm-4.52,0a16.22,16.22,0,1,1,32.43,0,16.22,16.22,0,1,1-32.43,0Z"/><path class="cls-1" d="M130.34,11.41V2.65a2.25,2.25,0,0,0-2.41-2h-4.81V4.31h2.07s.75.24.75,1.41v5.69Z"/><path class="cls-1" d="M75.77,32.21V2.65a2.27,2.27,0,0,0-2.42-2H68.53V4.31H70.6s.76.24.76,1.41V32.21Z"/></svg>