<svg id="Capa_1" data-name="Capa 1" xmlns="http://www.w3.org/2000/svg" viewBox="0 0 212.92 34.56"><defs><style>.cls-1{fill:#fff;}</style></defs><path class="cls-1" d="M11.55,34.56C4.83,34.56,0,29.6,0,22.83S4.65,11.1,11.6,11.1s11.73,5.28,11.28,13h-18a6.43,6.43,0,0,0,6.81,6.14A5.94,5.94,0,0,0,17.42,27h5.19c-1.27,4.24-5.33,7.53-11.06,7.53m-6.45-14H17.55c-.77-3.65-3.34-5.28-6.09-5.28A6.18,6.18,0,0,0,5.1,20.53"/><rect class="cls-1" x="25.72" y="0.27" width="4.96" height="33.84"/><path class="cls-1" d="M56.76,12.54c0,5.91-4.51,10.47-11.1,10.47H40.74v11.1H35.46v-32h10.2c6.59,0,11.1,4.55,11.1,10.46m-5.19,0c0-3.11-2.21-5.5-6-5.5H40.74v11h4.88c3.74,0,6-2.39,6-5.51"/><path class="cls-1" d="M68.31,34.56c-6.72,0-11.55-5-11.55-11.73S61.41,11.1,68.36,11.1s11.73,5.28,11.28,13h-18a6.43,6.43,0,0,0,6.81,6.14A5.94,5.94,0,0,0,74.18,27h5.19C78.1,31.27,74,34.56,68.31,34.56m-6.45-14H74.31c-.77-3.65-3.34-5.28-6.09-5.28a6.18,6.18,0,0,0-6.36,5.28"/><path class="cls-1" d="M82.48,11.55h5v4a6.34,6.34,0,0,1,6-4.24,9.41,9.41,0,0,1,1.94.18V16.6a7.76,7.76,0,0,0-2.48-.4c-2.85,0-5.42,2.39-5.42,6.9v11h-5Z"/><path class="cls-1" d="M99.85,6.63a3.36,3.36,0,0,1-3.34-3.34A3.35,3.35,0,0,1,99.85,0a3.28,3.28,0,0,1,3.29,3.29,3.29,3.29,0,0,1-3.29,3.34m-2.48,4.92h5V34.11h-5Z"/><path class="cls-1" d="M140.77,11.1A9,9,0,0,1,148,14.57V.27h5V34.11h-5v-3a9,9,0,0,1-7.22,3.47c-6.18,0-10.87-5.28-10.87-11.73s4.69-11.73,10.87-11.73m.9,4.51c-4,0-6.72,3.16-6.72,7.22s2.71,7.22,6.72,7.22,6.73-3.16,6.73-7.22-2.71-7.22-6.73-7.22"/><path class="cls-1" d="M159.9,6.63a3.37,3.37,0,0,1-3.34-3.34A3.36,3.36,0,0,1,159.9,0a3.29,3.29,0,0,1,3.3,3.29,3.3,3.3,0,0,1-3.3,3.34m-2.48,4.92h5V34.11h-5Z"/><path class="cls-1" d="M177,34.56a11.56,11.56,0,0,1-11.82-11.73A11.56,11.56,0,0,1,177,11.1a11.35,11.35,0,0,1,11.46,8.71h-5.23a6.37,6.37,0,0,0-6.23-4.2c-4,0-6.77,3-6.77,7.22S173,30.05,177,30.05a6.37,6.37,0,0,0,6.23-4.2h5.23A11.35,11.35,0,0,1,177,34.56"/><path class="cls-1" d="M201.1,34.56a11.73,11.73,0,1,1,11.82-11.73A11.65,11.65,0,0,1,201.1,34.56m0-4.6c4,0,6.76-3.11,6.76-7.13s-2.79-7.13-6.76-7.13a6.78,6.78,0,0,0-6.82,7.13A6.77,6.77,0,0,0,201.1,30"/><path class="cls-1" d="M117,34.56a11.73,11.73,0,1,1,11.82-11.73A11.64,11.64,0,0,1,117,34.56m0-4.6c4,0,6.77-3.11,6.77-7.13s-2.8-7.13-6.77-7.13-6.81,3.12-6.81,7.13S112.93,30,117,30"/><path class="cls-1" d="M113.3,4.61H121a1.85,1.85,0,0,1,0,3.7H113.3a1.85,1.85,0,1,1,0-3.7"/></svg>