<svg id="Capa_1" data-name="Capa 1" xmlns="http://www.w3.org/2000/svg" viewBox="0 0 195.36 36.77"><defs><style>.cls-1{fill:#f1f2f2;}</style></defs><path class="cls-1" d="M55.1,22.47v8.27H53.74V22.47c0-2.44-1.41-4-3.91-4s-4.65,1.7-4.65,5.29v7H43.85V17.45h1.33V20a5,5,0,0,1,4.76-2.81C53.1,17.16,55.1,19.26,55.1,22.47Z"/><path class="cls-1" d="M69.08,17.45V30.74H67.75V28.21A5,5,0,0,1,63,31c-3.16,0-5.16-2.1-5.16-5.31V17.45h1.36v8.27c0,2.44,1.41,4,3.91,4s4.65-1.7,4.65-5.29v-7Z"/><path class="cls-1" d="M85.06,24.15c0,.21,0,.42,0,.64H73a5.41,5.41,0,0,0,5.63,5,5.06,5.06,0,0,0,4.6-2.42l1.17.69a6.54,6.54,0,0,1-5.79,3,6.72,6.72,0,0,1-7-6.94,6.7,6.7,0,0,1,6.89-6.93C82.53,17.16,85.06,20.5,85.06,24.15ZM73,23.48H83.67a5.15,5.15,0,0,0-5.18-5.05A5.35,5.35,0,0,0,73,23.48Z"/><path class="cls-1" d="M98.14,17.45,92.53,30.74H90.91L85.27,17.45h1.44l5,11.91,5-11.91Z"/><path class="cls-1" d="M98.46,24.09a7,7,0,1,1,7,6.94A6.88,6.88,0,0,1,98.46,24.09Zm12.6,0a5.63,5.63,0,1,0-5.61,5.67A5.57,5.57,0,0,0,111.06,24.09Z"/><path class="cls-1" d="M134.29,22.58v8.16h-4V22.92c0-1.33-.63-2.18-1.91-2.18s-2.07.93-2.07,2.5v7.5h-4V22.92c0-1.33-.64-2.18-1.92-2.18s-2.07.93-2.07,2.5v7.5h-4V17.45h4v1.22a4.08,4.08,0,0,1,3.56-1.59,4,4,0,0,1,3.49,1.75,4.37,4.37,0,0,1,3.85-1.75C132.3,17.08,134.29,19.26,134.29,22.58Z"/><path class="cls-1" d="M148.94,17.45V30.74h-4V29.49a4.53,4.53,0,0,1-3.8,1.62c-2.68,0-5-1.91-5-5.5V17.45h4V25a2.19,2.19,0,0,0,2.31,2.42c1.46,0,2.47-.85,2.47-2.73V17.45Z"/><path class="cls-1" d="M164,22.58v8.16h-4V23.16a2.19,2.19,0,0,0-2.31-2.42c-1.46,0-2.47.85-2.47,2.74v7.26h-4V17.45h4V18.7a4.53,4.53,0,0,1,3.8-1.62C161.67,17.08,164,19,164,22.58Z"/><path class="cls-1" d="M179.67,12.13V30.74h-4V29.49a5,5,0,0,1-4,1.62c-3.48,0-6.35-3.05-6.35-7s2.87-7,6.35-7a5,5,0,0,1,4,1.62V12.13Zm-4,12a3.17,3.17,0,1,0-6.33,0,3.17,3.17,0,1,0,6.33,0Z"/><path class="cls-1" d="M181.27,24.09a7,7,0,1,1,7,7A7,7,0,0,1,181.27,24.09Zm10.1,0a3.06,3.06,0,1,0-6.11,0,3.06,3.06,0,1,0,6.11,0Z"/><path class="cls-1" d="M51.89,10.31v3.43a4.4,4.4,0,0,1-1.56.88,6,6,0,0,1-2,.31,4.89,4.89,0,0,1-1.81-.33,4.37,4.37,0,0,1-1.43-.93,4.06,4.06,0,0,1-.93-1.46,5.13,5.13,0,0,1-.34-1.9,5.23,5.23,0,0,1,.33-1.88A4.24,4.24,0,0,1,45.09,7a4.19,4.19,0,0,1,1.42-1,4.77,4.77,0,0,1,1.83-.34A4.61,4.61,0,0,1,51.75,7l-.52.47a4.31,4.31,0,0,0-4.11-.92,3.44,3.44,0,0,0-1,.52A3.55,3.55,0,0,0,44.79,9a4.94,4.94,0,0,0-.17,1.31,4.29,4.29,0,0,0,.46,2,3.46,3.46,0,0,0,1.32,1.39,3.85,3.85,0,0,0,2,.49,4.23,4.23,0,0,0,2.81-.86V11h-3v-.7Z"/><path class="cls-1" d="M59.08,14.87l-2.53-3.69H54.48v3.69h-.73V5.72h3.13a3.81,3.81,0,0,1,1.32.21,2.25,2.25,0,0,1,.92.57,2.47,2.47,0,0,1,.52.85,3.4,3.4,0,0,1,.17,1.08,2.59,2.59,0,0,1-.64,1.87,2.86,2.86,0,0,1-1.76.83h0L60,14.87Zm-4.6-4.39h2.16a3.61,3.61,0,0,0,1.1-.15,1.78,1.78,0,0,0,1.17-1.09A2.3,2.3,0,0,0,59,8.43a1.92,1.92,0,0,0-.57-1.51,2.39,2.39,0,0,0-1.63-.51H54.48Z"/><path class="cls-1" d="M63.31,14.68A3.08,3.08,0,0,1,62.22,14a3.24,3.24,0,0,1-.71-1.18,4.68,4.68,0,0,1-.25-1.58V5.72H62v5.41a3.67,3.67,0,0,0,.34,1.64,2.53,2.53,0,0,0,1,1.08,2.76,2.76,0,0,0,1.42.37,2.56,2.56,0,0,0,2-.83,3.23,3.23,0,0,0,.75-2.26V5.72h.72v5.47a4.56,4.56,0,0,1-.25,1.56,3.13,3.13,0,0,1-.7,1.19,3.24,3.24,0,0,1-1.09.74,3.82,3.82,0,0,1-1.42.26A3.7,3.7,0,0,1,63.31,14.68Z"/><path class="cls-1" d="M70.08,5.72h3.1a3.83,3.83,0,0,1,1.33.21,2.13,2.13,0,0,1,.92.57,2.56,2.56,0,0,1,.52.85,3.31,3.31,0,0,1,.16,1.08,3.26,3.26,0,0,1-.15,1,2.28,2.28,0,0,1-.42.77,2.51,2.51,0,0,1-.66.54,3.22,3.22,0,0,1-.87.31,4.88,4.88,0,0,1-1,.11H70.8v3.69h-.72Zm2.86,4.76a3.63,3.63,0,0,0,1.11-.15,1.94,1.94,0,0,0,.75-.44,1.79,1.79,0,0,0,.41-.65,2.37,2.37,0,0,0,.13-.81,1.91,1.91,0,0,0-.57-1.5,2.3,2.3,0,0,0-1.6-.52H70.8v4.07Z"/><path class="cls-1" d="M79.87,14.57a4.13,4.13,0,0,1-1.45-1,4.46,4.46,0,0,1-.92-1.48,5,5,0,0,1-.33-1.82,4.93,4.93,0,0,1,.33-1.81A4.42,4.42,0,0,1,78.42,7a4.15,4.15,0,0,1,1.45-1,4.68,4.68,0,0,1,1.84-.36A4.54,4.54,0,0,1,83.48,6a4.17,4.17,0,0,1,2.4,2.4,4.89,4.89,0,0,1,.36,1.89,5,5,0,0,1-.36,1.9,4.12,4.12,0,0,1-1,1.48,4.31,4.31,0,0,1-1.44.93,4.73,4.73,0,0,1-1.77.34A4.52,4.52,0,0,1,79.87,14.57Zm3.31-.64a3.62,3.62,0,0,0,1.19-.8,3.49,3.49,0,0,0,.8-1.25,4.36,4.36,0,0,0,0-3.18,3.58,3.58,0,0,0-.8-1.25,3.75,3.75,0,0,0-1.19-.79,3.81,3.81,0,0,0-1.47-.28,4,4,0,0,0-1.54.3A3.56,3.56,0,0,0,79,7.52a4,4,0,0,0-.76,1.25,4.1,4.1,0,0,0-.28,1.52,4.64,4.64,0,0,0,.17,1.24,3.84,3.84,0,0,0,.51,1.08,3.77,3.77,0,0,0,.79.85,3.3,3.3,0,0,0,1,.56,3.94,3.94,0,0,0,1.25.2A3.82,3.82,0,0,0,83.18,13.93Z"/><path class="cls-1" d="M31.39,5.39a18.37,18.37,0,0,0-26,0,18.37,18.37,0,0,0,0,26,18.38,18.38,0,0,0,31.38-13A18.25,18.25,0,0,0,31.39,5.39Zm-13,29a16,16,0,1,1,16-16A16,16,0,0,1,18.39,34.35Z"/><path class="cls-1" d="M18.39,7.25a11.14,11.14,0,1,0,11.12,11.6c0-.14,0-.28,0-.42v0A11.15,11.15,0,0,0,18.39,7.25Zm8.7,10.84c0,.1,0,.21,0,.32a2.69,2.69,0,1,1,0-.32Zm-7.9.3a5.18,5.18,0,0,0,4.34,5.09,5.3,5.3,0,0,1-1.79.31,5.37,5.37,0,1,1,0-10.73,5.26,5.26,0,0,1,1.64.26A5.17,5.17,0,0,0,19.19,18.39Zm-9.52,0a8.73,8.73,0,0,1,8.72-8.72,8.64,8.64,0,0,1,4.05,1c-.23,0-.47,0-.7,0a7.79,7.79,0,0,0,0,15.58l.51,0a8.63,8.63,0,0,1-3.86.9A8.73,8.73,0,0,1,9.67,18.39Z"/></svg>