<svg id="Capa_1" data-name="Capa 1" xmlns="http://www.w3.org/2000/svg" viewBox="0 0 89.07 84.11"><defs><style>.cls-1{fill:#f1f2f2;}</style></defs><path class="cls-1" d="M2,25.78V5.34H6.07v17h4.21v3.47Z"/><path class="cls-1" d="M11.94,24.46a6.4,6.4,0,0,1-1.28-4.25V10.48a5.61,5.61,0,0,1,1.28-4A5,5,0,0,1,15.7,5.15a5,5,0,0,1,3.76,1.34,5.57,5.57,0,0,1,1.29,4v9.73a6.34,6.34,0,0,1-1.29,4.26A4.67,4.67,0,0,1,15.7,26,4.66,4.66,0,0,1,11.94,24.46Zm4.5-2.73a3.6,3.6,0,0,0,.19-1.33v-10a2.7,2.7,0,0,0-.18-1.08.7.7,0,0,0-.72-.42c-.68,0-1,.52-1,1.55v10a3.27,3.27,0,0,0,.22,1.33.78.78,0,0,0,.78.45A.72.72,0,0,0,16.44,21.73Z"/><path class="cls-1" d="M26.77,25.78V5.34H35v4H30.88v3.26h3.86V16.5H30.88v9.28Z"/><path class="cls-1" d="M35.12,25.78l2-20.44H44L46,25.78H42.09l-.29-3.31H39.33l-.24,3.31Zm4.52-6.57h1.85l-.9-10.4H40.4Z"/><path class="cls-1" d="M46.61,25.78V5.34H50.7v17h4.21v3.47Z"/><path class="cls-1" d="M56.29,24.59a6.59,6.59,0,0,1-1.23-4.45v-2h4v2.55c0,1,.32,1.52,1,1.52a.84.84,0,0,0,.76-.32A2,2,0,0,0,61,20.81a4.9,4.9,0,0,0-.24-1.66,3.56,3.56,0,0,0-.61-1.09,17.55,17.55,0,0,0-1.32-1.37L57.1,14.93a6.09,6.09,0,0,1-2-4.43,5.86,5.86,0,0,1,1.2-4,4.43,4.43,0,0,1,3.51-1.37,4.9,4.9,0,0,1,4,1.46A7.13,7.13,0,0,1,65,11.19H60.79l0-1.4a.9.9,0,0,0-.23-.64.82.82,0,0,0-.63-.24.92.92,0,0,0-.71.26,1,1,0,0,0-.24.72A3,3,0,0,0,60.1,12l2.38,2.28a15.1,15.1,0,0,1,1.38,1.53,6.19,6.19,0,0,1,.88,1.72,7.42,7.42,0,0,1,.33,2.34A7.94,7.94,0,0,1,64,24.41,4.18,4.18,0,0,1,60.31,26,5.17,5.17,0,0,1,56.29,24.59Z"/><path class="cls-1" d="M67,24.46a6.4,6.4,0,0,1-1.28-4.25V10.48a5.61,5.61,0,0,1,1.28-4,5.95,5.95,0,0,1,7.52,0,5.57,5.57,0,0,1,1.29,4v9.73a6.34,6.34,0,0,1-1.29,4.26,5.45,5.45,0,0,1-7.52,0Zm4.5-2.73a3.6,3.6,0,0,0,.19-1.33v-10a2.7,2.7,0,0,0-.18-1.08.7.7,0,0,0-.72-.42c-.69,0-1,.52-1,1.55v10a3.1,3.1,0,0,0,.22,1.33.78.78,0,0,0,.78.45A.72.72,0,0,0,71.45,21.73Z"/><path class="cls-1" d="M2.43,48.44V31.93H0V28H9v3.93H6.52V48.44Z"/><path class="cls-1" d="M9.49,48.44V28h8.19V32h-4v4h3.85v3.85H13.66v4.69h4.28v4Z"/><path class="cls-1" d="M29.46,48.47c-.61.11-.95.16-1,.16a4.84,4.84,0,0,1-3.76-1.41,6,6,0,0,1-1.28-4.15V33.19a5.59,5.59,0,0,1,1.3-4,4.91,4.91,0,0,1,3.74-1.37,4.92,4.92,0,0,1,3.75,1.37,5.64,5.64,0,0,1,1.3,4v9.88a6.29,6.29,0,0,1-1.15,4l1.77,1.12-1.38,2.43Zm-.27-4.17a5.39,5.39,0,0,0,.17-1.47V33.26a3.15,3.15,0,0,0-.2-1.23.75.75,0,0,0-.75-.46c-.65,0-1,.56-1,1.67V42.9a4.62,4.62,0,0,0,.19,1.41.77.77,0,0,0,.81.56A.72.72,0,0,0,29.19,44.3Z"/><path class="cls-1" d="M35.82,47.21A6.37,6.37,0,0,1,34.59,43V28h4V42.8a4.8,4.8,0,0,0,.19,1.53.88.88,0,0,0,1.62,0,5,5,0,0,0,.19-1.54V28h4V43a6.42,6.42,0,0,1-1.22,4.24,4.69,4.69,0,0,1-3.75,1.42A4.69,4.69,0,0,1,35.82,47.21Z"/><path class="cls-1" d="M45.52,48.44V28H53.7V32h-4v4h3.85v3.85H49.68v4.69H54v4Z"/><path class="cls-1" d="M54.72,28h5.64a4.21,4.21,0,0,1,3.29,1.22,5.29,5.29,0,0,1,1.11,3.59l0,9.57a7.72,7.72,0,0,1-1.05,4.54,4,4,0,0,1-3.54,1.52h-5.5Zm4.83,16.83a1,1,0,0,0,1.12-1.1V33.19a3.37,3.37,0,0,0-.11-1,.69.69,0,0,0-.39-.47,2.4,2.4,0,0,0-.88-.12h-.45V44.83Z"/><path class="cls-1" d="M65.31,48.44l2-20.44h6.92l2,20.44H72.28L72,45.14H69.52l-.24,3.3Zm4.52-6.56h1.86l-.91-10.4h-.19Z"/><path class="cls-1" d="M39.85,71.11V50.67h6.24L47.8,63.14l1.71-12.47h6.28V71.11H52.06V56.38L49.7,71.11H46l-2.5-14.73V71.11Z"/><path class="cls-1" d="M56.46,71.11l2-20.44h6.92l2,20.44H63.43l-.28-3.31H60.67l-.24,3.31ZM61,64.54h1.86l-.91-10.4h-.19Z"/><path class="cls-1" d="M68,71.11V50.67h4.1v17h4.21v3.48Z"/><polygon class="cls-1" points="89.07 84.11 0 84.11 0 79.57 84.53 79.57 84.53 0 89.07 0 89.07 84.11"/></svg>