<?xml version="1.0" encoding="utf-8"?>
<!-- Generator: Adobe Illustrator 26.0.3, SVG Export Plug-In . SVG Version: 6.00 Build 0)  -->
<svg version="1.1" id="Capa_1" xmlns="http://www.w3.org/2000/svg" xmlns:xlink="http://www.w3.org/1999/xlink" x="0px" y="0px"
	 viewBox="0 0 200 27" style="enable-background:new 0 0 200 27;" xml:space="preserve">
<style type="text/css">
	.st0{fill:#FFFFFF;}
</style>
<g>
	<g>
		<path class="st0" d="M12.4,21c0.6,0,1.2-0.1,1.7-0.2c0.5-0.1,1-0.2,1.4-0.5l0.7-4H12l0.8-4.1h8.8l-2,11.3c-1.1,0.6-2.3,1-3.7,1.4
			c-1.4,0.3-2.8,0.5-4.2,0.5c-1.5,0-2.9-0.2-4.2-0.6c-1.3-0.4-2.3-1.1-3.2-1.9c-0.9-0.8-1.6-1.8-2.1-2.9c-0.5-1.1-0.7-2.4-0.7-3.9
			c0-1.8,0.3-3.6,1-5.2c0.6-1.6,1.5-3,2.7-4.2c1.1-1.2,2.5-2.1,4-2.8c1.5-0.7,3.2-1,5-1c1.7,0,3.2,0.3,4.6,0.8C20.1,4.2,21.2,5,22,6
			l-3.7,3.3c-0.4-0.6-1-1.1-1.6-1.5c-0.7-0.4-1.6-0.6-2.6-0.6c-1,0-2,0.2-2.9,0.7c-0.9,0.4-1.7,1-2.3,1.8c-0.7,0.8-1.2,1.6-1.5,2.6
			c-0.4,1-0.6,2-0.6,3.2c0,0.8,0.1,1.5,0.4,2.2c0.2,0.7,0.6,1.3,1.1,1.8c0.5,0.5,1.1,0.9,1.8,1.1C10.7,20.9,11.5,21,12.4,21z"/>
		<path class="st0" d="M39.6,19.5l4.6,5.3h-6l-1.7-2.2c-1,0.9-2.1,1.6-3.2,2c-1.1,0.4-2.1,0.6-3.3,0.6c-1,0-1.9-0.1-2.8-0.3
			c-0.9-0.2-1.6-0.6-2.3-1.1c-0.7-0.5-1.2-1.1-1.5-1.8c-0.4-0.7-0.6-1.6-0.6-2.6c0-0.8,0.1-1.6,0.4-2.3c0.3-0.7,0.7-1.3,1.2-1.9
			c0.5-0.6,1.1-1,1.8-1.4c0.7-0.4,1.5-0.8,2.3-1.1c-0.5-0.6-0.8-1.2-1-1.9c-0.2-0.7-0.3-1.4-0.3-2c0-0.9,0.2-1.7,0.5-2.4
			C28,5.7,28.4,5.1,29,4.6c0.6-0.5,1.3-1,2.1-1.3c0.8-0.3,1.7-0.5,2.6-0.5c0.9,0,1.7,0.1,2.4,0.3c0.7,0.2,1.4,0.6,1.9,1
			c0.5,0.4,1,1,1.3,1.6c0.3,0.6,0.5,1.4,0.5,2.2c0,0.7-0.1,1.3-0.4,1.9c-0.2,0.6-0.6,1.1-1,1.6c-0.5,0.5-1,0.9-1.6,1.3
			c-0.6,0.4-1.4,0.8-2.2,1.1l2.2,2.6l2.3-3.2h5.5L39.6,19.5z M30.7,15.7c-0.8,0.3-1.5,0.7-2.1,1.2c-0.6,0.5-0.9,1.2-0.9,2.1
			c0,0.7,0.3,1.3,0.8,1.7c0.5,0.4,1.2,0.6,1.9,0.6c0.7,0,1.3-0.2,1.9-0.5c0.6-0.3,1.1-0.7,1.6-1.3L30.7,15.7z M35.6,8.2
			c0-0.6-0.2-1-0.5-1.4c-0.3-0.3-0.8-0.5-1.4-0.5c-0.7,0-1.2,0.2-1.7,0.7c-0.4,0.4-0.6,1-0.6,1.7c0,0.5,0.1,0.9,0.3,1.4
			c0.2,0.5,0.5,0.9,0.8,1.2c0.9-0.3,1.6-0.7,2.2-1.2C35.3,9.5,35.6,8.9,35.6,8.2z"/>
		<path class="st0" d="M57.3,7.8l-3,17.1h-5l3-17.1h-6l0.8-4.3H64l-0.8,4.3H57.3z"/>
	</g>
	<path class="st0" d="M67.6,3.1l3,0l5.2,18L86.2,3.2l2.8,0l-3.1,21.4l-2,0l2.7-18.8l-0.1,0L75.7,24.5l-0.9,0L69.3,5.7l-0.1,0
		l-2.7,18.8l-2,0L67.6,3.1z"/>
	<path class="st0" d="M93.5,3.2l13.1,0.1l-0.3,1.8L95.2,5.1l-1.1,7.6l10.4,0.1l-0.3,1.8l-10.4-0.1l-1.2,8.3l11.6,0.1l-0.3,1.8
		l-13.6-0.1L93.5,3.2z"/>
	<path class="st0" d="M125.6,21.8c-0.4,0.5-0.9,0.9-1.5,1.3c-0.6,0.4-1.2,0.8-1.9,1.1c-0.7,0.3-1.5,0.6-2.4,0.8
		c-0.9,0.2-1.8,0.3-2.8,0.3c-1.5,0-2.9-0.2-4.1-0.7c-1.2-0.4-2.2-1.1-3.1-1.9c-0.8-0.8-1.5-1.8-1.9-3c-0.5-1.2-0.7-2.4-0.7-3.8
		c0-1.8,0.3-3.6,1-5.2c0.7-1.6,1.6-3,2.7-4.2c1.1-1.2,2.5-2.1,4-2.8c1.6-0.7,3.2-1,5-1c1.7,0,3.2,0.3,4.6,0.9c1.3,0.6,2.4,1.4,3,2.3
		l-3.7,3.3c-0.3-0.5-0.8-1-1.5-1.4c-0.7-0.4-1.5-0.6-2.5-0.6c-1.1,0-2,0.2-2.9,0.7c-0.9,0.4-1.6,1-2.3,1.8c-0.6,0.8-1.1,1.6-1.5,2.6
		c-0.4,1-0.5,2-0.5,3c0,0.7,0.1,1.4,0.3,2.1c0.2,0.7,0.6,1.2,1,1.7c0.4,0.5,1,0.9,1.6,1.2c0.7,0.3,1.4,0.4,2.2,0.4
		c0.9,0,1.8-0.2,2.7-0.6c0.8-0.4,1.6-1,2.2-1.7L125.6,21.8z"/>
	<path class="st0" d="M144.8,20.5c-0.5,1-1.2,1.9-2,2.6c-0.8,0.7-1.8,1.3-2.9,1.7c-1.1,0.4-2.4,0.6-3.9,0.6c-1.3,0-2.5-0.2-3.5-0.5
		c-1-0.3-1.9-0.8-2.7-1.3c-0.7-0.6-1.3-1.3-1.7-2.1c-0.4-0.8-0.6-1.8-0.6-2.8c0-0.3,0-0.6,0-0.9c0-0.3,0.1-0.6,0.1-0.9l2.4-13.4l5,0
		l-2.4,12.9c0,0.2-0.1,0.4-0.1,0.6c0,0.2,0,0.4,0,0.6c0,0.4,0.1,0.9,0.2,1.3c0.1,0.4,0.3,0.8,0.6,1.1c0.3,0.3,0.7,0.6,1.1,0.7
		c0.5,0.2,1,0.3,1.7,0.3c0.8,0,1.5-0.1,2.1-0.4c0.6-0.3,1-0.6,1.4-1c0.4-0.4,0.6-0.9,0.8-1.4c0.2-0.5,0.3-1.1,0.4-1.6l2.4-13l5,0
		L145.9,17C145.7,18.3,145.3,19.5,144.8,20.5z"/>
	<path class="st0" d="M148.2,24.9l3.9-21.4l5,0l-3.9,21.4L148.2,24.9z"/>
	<path class="st0" d="M161,3.6l7.9,0c1.2,0,2.4,0.2,3.6,0.5c1.2,0.3,2.3,0.9,3.2,1.6c1,0.7,1.7,1.7,2.3,2.8c0.6,1.1,0.9,2.5,0.9,4.1
		c0,1.9-0.3,3.6-1,5.1c-0.7,1.5-1.6,2.8-2.8,3.9c-1.2,1.1-2.6,1.9-4.1,2.5c-1.6,0.6-3.3,0.9-5.2,0.9l-8.7,0L161,3.6z M162.8,20.6
		l3.2,0c1.2,0,2.4-0.2,3.3-0.6c1-0.4,1.8-1,2.4-1.6c0.6-0.7,1.1-1.5,1.4-2.4c0.3-0.9,0.5-1.8,0.5-2.8c0-0.7-0.1-1.4-0.3-2.1
		c-0.2-0.7-0.6-1.2-1.1-1.7c-0.5-0.5-1.1-0.9-1.8-1.2c-0.7-0.3-1.6-0.4-2.6-0.4l-2.7,0L162.8,20.6z"/>
	<path class="st0" d="M193.2,25.1l-0.7-4.3l-8.2,0l-2.6,4.2l-5.7,0l13.7-21.3l4.9,0l3.9,21.4L193.2,25.1z M190.9,9.2l-4.5,7.6l5.6,0
		L190.9,9.2z"/>
</g>
</svg>
