<?xml version="1.0" encoding="utf-8"?>
<!-- Generator: Adobe Illustrator 26.0.3, SVG Export Plug-In . SVG Version: 6.00 Build 0)  -->
<svg version="1.1" id="Capa_1" xmlns="http://www.w3.org/2000/svg" xmlns:xlink="http://www.w3.org/1999/xlink" x="0px" y="0px"
	 viewBox="0 0 207 37" style="enable-background:new 0 0 207 37;" xml:space="preserve">
<style type="text/css">
	.st0{fill:#FFFFFF;}
</style>
<g>
	<g>
		<path class="st0" d="M11.3,24.5c0-1.2,0-2.3,0-3.5c0-5.9,0-11.8,0-17.7c0-0.7,0.1-1.4,0.9-1.8c0.7-0.3,1.3-0.1,1.9,0.4
			c6.1,5,12.2,10,18.3,15c1.3,1,1.3,1.9,0,2.9c-6,5-12.1,9.9-18.1,14.9c-0.9,0.8-1.8,0.9-2.8,0.2c-0.5-0.5-0.6-1.1-0.6-1.8
			c0-2.4,0-4.8,0-7.2C10.9,25.3,10.9,24.9,11.3,24.5z"/>
		<path class="st0" d="M121.1,17c2.5-4,6.6-4.4,9.9-3.4c2.3,0.7,3.5,2.4,4.1,4.7c0.3,1.2,0.4,2.3,0.4,3.5c0,4.1,0,8.2,0,12.3
			c0,0.8-0.2,1.1-1,1.1c-0.8-0.1-1.5-0.1-2.3,0c-0.8,0.1-1.1-0.1-1.1-1.1c0.1-4.1,0-8.1,0-12.2c0-0.5-0.1-0.9-0.1-1.4
			c-0.3-1.8-1-3.2-2.9-3.6c-2.1-0.4-4-0.1-5.4,1.7c-1.2,1.6-1.5,3.4-1.5,5.3c0,3.5,0,6.9,0,10.4c0,0.7-0.2,0.9-0.9,0.9
			c-0.9-0.1-1.9-0.1-2.8,0c-0.6,0-0.8-0.2-0.8-0.8c0-6.7,0-13.4,0-20.1c0-0.6,0.2-0.8,0.8-0.8c1,0,1.9,0,2.9,0
			c0.7,0,0.8,0.2,0.7,0.8C121,15.2,121.1,15.9,121.1,17z"/>
		<path class="st0" d="M182.7,29.2c0.5,0.9,0.9,1.8,1.3,2.7c0.2,0.5,0,0.7-0.3,0.9c-1.6,1.6-3.6,2.3-5.8,2.7
			c-4.9,0.8-9.4-1.1-11.7-5c-3.6-6.1-1.4-15.5,7.4-17.1c3.4-0.7,6.7-0.1,9.7,2.1c0.7,0.5,0.9,0.9,0.4,1.7c-0.4,0.7-0.6,1.7-1.1,2
			c-0.6,0.3-1.1-0.8-1.8-1.1c-3.2-1.9-7.3-1.6-9.6,0.8c-2.2,2.3-2.5,5-1.7,7.9c0.7,2.6,2.3,4.3,5,4.9c2.8,0.6,5.3-0.1,7.5-1.8
			c0.1-0.1,0.3-0.2,0.4-0.3C182.4,29.5,182.5,29.4,182.7,29.2z"/>
		<path class="st0" d="M142.1,24c0-2,0-4.1,0-6.1c0-0.6-0.1-0.8-0.8-0.8c-2.4,0-2.4,0-2.5-2.4c0-1,0.3-1.1,1.2-1.1c2,0.1,2,0,2-2
			c0-1.2,0-2.5,0-3.7c0-0.5,0.1-0.8,0.7-0.8c1,0,1.9,0,2.9,0c0.6,0,0.8,0.2,0.8,0.8c0,1.6,0,3.3,0,4.9c0,0.6,0.2,0.8,0.8,0.8
			c1.2,0,2.5,0,3.7,0c0.6,0,0.7,0.2,0.7,0.7c0.1,2.8,0.1,2.8-2.7,2.8c-0.4,0-0.8,0-1.2,0c-1.4,0-1.3-0.3-1.3,1.3
			c0,3.4,0,6.8,0.1,10.2c0,0.1,0,0.1,0,0.2c0.1,2.6,1.5,3.6,4,2.9c1-0.3,1.1,0,1.1,0.8c0,0.3,0,0.6,0.1,0.9c0.2,1.6,0.2,1.6-1.4,2
			c-1.3,0.3-2.6,0.4-3.9,0.1c-2.5-0.4-4-2.4-4.1-5.4c-0.1-2.1,0-4.1,0-6.2C142.2,24,142.1,24,142.1,24z"/>
		<path class="st0" d="M160,24.4c0,3.3,0,6.6,0,9.9c0,0.7-0.1,0.9-0.9,0.9c-1-0.1-1.9,0-2.9,0c-0.5,0-0.7-0.2-0.7-0.7
			c0-6.7,0-13.5,0-20.2c0-0.5,0.1-0.7,0.7-0.7c1,0,2,0,3,0c0.6,0,0.8,0.2,0.8,0.8C160,17.7,160,21.1,160,24.4z"/>
		<path class="st0" d="M11.3,24.5c0,2.8,0,5.5,0,8.3c0,0.7,0,1.4,0.2,2.2c-2.8-1.5-5.6-3.1-8.4-4.6c-0.8-0.4-1.3-1-1.2-2
			C2,27.4,2.6,27,3.5,26.8C6.1,26,8.7,25.2,11.3,24.5z"/>
		<path class="st0" d="M160.6,6.5c0,1.6-1.2,2.7-2.8,2.7c-1.7,0-2.9-1.2-2.9-2.8c0-1.6,1.2-2.6,2.9-2.6
			C159.4,3.8,160.6,4.9,160.6,6.5z"/>
		<path class="st0" d="M100.8,10.3c-1-0.6-2.2-1.1-3.2-1.8c-0.4-0.3-0.2-0.8,0.3-1c2.5-0.8,4.9-1.5,7.4-2.2c0.3-0.1,0.6-0.1,0.8,0.3
			c0.2,0.3,0.1,0.5-0.2,0.7c-1.6,1.3-3.1,2.6-4.7,3.8C101.2,10.2,101,10.3,100.8,10.3z"/>
		<path class="st0" d="M63.9,34.3C60.1,25,56.3,15.7,52.5,6.4c-1.1-2.7-1.1-2.6-4-2.7c-0.7,0-1.1,0.2-1.4,0.9
			c-2.4,6-4.9,12.1-7.3,18.1c-1.6,3.9-3.1,7.8-4.7,11.6c-0.3,0.7-0.2,0.9,0.6,0.9c0.9-0.1,1.9-0.1,2.8,0c0.8,0.1,1.1-0.2,1.4-0.9
			c0.8-2.2,1.7-4.3,2.5-6.5c0.2-0.6,0.5-0.8,1.2-0.8c3.9,0,7.8,0,11.8,0c0.6,0,0.9,0.2,1.1,0.7c0.9,2.3,1.8,4.5,2.7,6.8
			c0.1,0.4,0.2,0.7,0.8,0.7c1.4-0.1,2.9,0,4.4,0C64.1,34.8,64,34.5,63.9,34.3z M43.9,23.2c1.8-4.6,3.6-9.1,5.4-13.9
			c1.9,4.8,3.6,9.3,5.4,13.9C51.1,23.2,47.6,23.2,43.9,23.2z"/>
		<path class="st0" d="M89.2,20.2c-2.5-8-11.8-8.5-15.7-5c-0.5,0.5-1,1-1.7,1.7c0-4.3,0-8.2,0-12.2c0-0.7-0.2-0.9-0.9-0.9
			c-0.8,0.1-1.6,0.1-2.4,0c-0.9-0.1-1.1,0.3-1.1,1.1c0,8.4,0,16.9,0,25.3c0,1.4,0,2.8,0,4.2c0,0.5,0.1,0.8,0.7,0.8
			c0.9,0,1.9,0,2.8,0c0.5,0,0.7-0.2,0.7-0.7c0-0.8-0.1-1.6,0.1-2.5c0.1,0.1,0.2,0.2,0.3,0.2c3.5,4.8,11.8,4.4,15.3-0.3
			C90.1,28.4,90.5,24.4,89.2,20.2z M85.3,24.4c-0.1,3-1,5.6-3.9,6.9c-3.8,1.8-8-0.1-9.3-4.1c-0.9-3-0.7-5.9,1.5-8.3
			c1.8-2.1,4.2-2.5,6.8-1.8c2.7,0.7,4.1,2.6,4.7,5.3C85.3,23,85.4,23.7,85.3,24.4z"/>
		<path class="st0" d="M204.4,21.4c-0.2-4.6-2.8-7.5-7.2-8.1c-3.1-0.4-6,0-8.9,1.3c-1.6,0.7-1.6,0.7-0.9,2.3
			c0.1,0.2,0.2,0.4,0.3,0.6c0.2,0.7,0.5,0.8,1.1,0.4c2-1,4.1-1.6,6.3-1.5c2.9,0.1,4.8,2.1,4.8,4.9c0,0.7-0.3,0.9-0.9,0.9
			c-0.9,0-1.9,0-2.8,0.1c-2.4,0.1-4.7,0.1-6.9,1.1c-3.9,1.8-4.9,6.8-2,9.9c2.3,2.4,6.4,3.1,9.6,1.5c1.1-0.5,2-1.3,3.1-2.3
			c0,0.9,0,1.4,0,2c0,0.4,0.1,0.7,0.6,0.7c1,0,2.1,0,3.1,0c0.5,0,0.6-0.2,0.6-0.6C204.5,30.2,204.6,25.8,204.4,21.4z M197.8,31.7
			c-1.8,1.1-3.8,1.3-5.7,0.3c-1.3-0.7-1.9-1.8-1.9-3.3c0-1.4,0.8-2.3,2-2.9c0.7-0.3,1.4-0.5,2.1-0.5c1.6-0.1,3.2-0.2,4.9-0.4
			c0.7-0.1,0.9,0.1,0.9,0.8c-0.1,0.5,0,1.1,0,1.6C200.6,29.4,199.4,30.7,197.8,31.7z"/>
		<path class="st0" d="M111,21c-0.1-4-2.6-6.8-6.6-7.5c-2.9-0.6-5.7-0.2-8.5,0.8c-2.6,1-2.6,1-1.4,3.4c0.3,0.5,0.4,0.7,1,0.3
			c2-1.1,4.1-1.6,6.4-1.5c2.5,0.1,4.4,1.6,4.7,3.9c0.3,1.7,0.2,1.8-1.5,1.8c-0.3,0-0.6,0-0.9,0c-2.6,0.1-5.3,0-7.8,1.1
			c-2.1,0.9-3.6,2.4-3.9,4.8c-0.3,2.4,0.5,4.5,2.5,6.1c3.1,2.3,8,2,10.9-0.8c0.2-0.2,0.4-0.5,0.9-0.6c0,0.6,0,1.1,0,1.7
			c0,0.6,0.2,0.8,0.8,0.8c0.9,0,1.9,0,2.8,0c0.5,0,0.7-0.2,0.7-0.7C111.1,30,111.2,25.5,111,21z M104.6,31.5
			c-1.7,1.1-3.6,1.3-5.5,0.6c-1.5-0.6-2.3-1.9-2.2-3.5c0.1-1.4,0.9-2.5,2.5-3c1.6-0.5,3.3-0.5,5-0.6c0.8,0,1.8-0.5,2.3,0
			c0.4,0.4,0.1,1.5,0.1,2.4C107.3,29.3,106.2,30.5,104.6,31.5z"/>
	</g>
</g>
</svg>
