<?xml version="1.0" encoding="utf-8"?>
<!-- Generator: Adobe Illustrator 26.0.3, SVG Export Plug-In . SVG Version: 6.00 Build 0)  -->
<svg version="1.1" id="Capa_1" xmlns="http://www.w3.org/2000/svg" xmlns:xlink="http://www.w3.org/1999/xlink" x="0px" y="0px"
	 viewBox="0 0 238 37" style="enable-background:new 0 0 238 37;" xml:space="preserve">
<style type="text/css">
	.st0{fill:#FFFFFF;}
</style>
<g>
	<g>
		<path class="st0" d="M27.7,30.8c0.3-0.3,0.6-0.6,1-0.8C28.4,30.3,28.1,30.6,27.7,30.8z"/>
		<path class="st0" d="M7.8,24c-0.2-0.1-0.3-0.2-0.5-0.2c-1.6-0.8-3.3-1.7-4.9-2.5c-0.1-0.1-0.2-0.1-0.3-0.2C2.1,20.7,2.1,20.4,2,20
			c0.1,0.1,0.2,0.1,0.3,0.2c2.2,1.1,4.3,2.2,6.5,3.2c0.1,0,0.2,0.1,0.3,0.1c0.8-0.4,1.5-0.8,2.3-1.3c-2.1-1-4.1-2-6.1-2.9
			c-1-0.5-2.1-1.1-3.1-1.7C2.1,17.5,2,17.4,2,17.3c0-0.3,0.1-0.7,0.1-1c0,0,0,0,0,0c2.1,1.1,4.2,2.3,6.4,3.4
			c1.2,0.6,2.4,1.1,3.6,1.6c0.1,0,0.3,0,0.4,0c0.6-0.4,1.1-0.9,1.7-1.4c-0.1-0.1-0.2-0.1-0.3-0.1c-2.3-1.1-4.6-2.1-6.9-3.2
			c-1.5-0.8-3-1.7-4.5-2.5c0.1-0.4,0.2-0.7,0.3-1c2.5,1.5,5.1,2.9,7.7,4.1c1.4,0.6,2.9,1.2,4.3,1.8c0.1,0,0.3,0.1,0.4,0
			c0.5-0.4,1-0.9,1.6-1.4c-0.2-0.1-0.3-0.1-0.4-0.2c-4.5-1.7-8.7-3.8-12.8-6.3c0.2-0.4,0.4-0.8,0.6-1.1c1.6,1,3.2,1.9,4.9,2.8
			c2.7,1.5,5.6,2.7,8.5,3.7c0.1,0,0.3,0.1,0.3,0c0.6-0.4,1.1-0.9,1.7-1.3c-0.1-0.1-0.2-0.1-0.3-0.1C16,14,12.7,12.6,9.5,11
			c-1.4-0.7-2.8-1.5-4.2-2.4c0.3-0.3,0.6-0.7,0.9-1C7.4,8.3,8.6,9,9.8,9.6c3.5,1.9,7.2,3.4,11,4.7c0.1,0,0.2,0.1,0.3,0
			c0.6-0.4,1.2-0.8,1.9-1.2c-5.5-1.7-10.7-3.9-15.5-6.9c0.4-0.3,0.7-0.6,1.1-0.9c1.9,1.1,3.8,2.1,5.7,3c3.3,1.5,6.7,2.8,10.2,3.8
			c0.2,0.1,0.4,0,0.6,0c0.7-0.2,1.4-0.5,2.1-0.7c0.2-0.1,0.3-0.1,0.6-0.2c-3.8-0.9-7.3-2-10.7-3.5c-2.3-1-4.6-2.1-6.8-3.4
			c0.5-0.3,1.1-0.5,1.6-0.8c1.7,1,3.5,1.8,5.4,2.6c4.5,2,9.2,3.4,14.1,4.2c0.1,0,0.1,0,0.2,0c0.3,0.6,0.6,1.2,0.9,1.8
			c-0.4,0-0.8,0-1.3,0c-1.4,0-2.8,0.3-4.2,0.8c-2.4,0.8-4.6,2-6.6,3.6c-2.1,1.7-4.1,3.4-6.1,5.1c-2.2,1.8-4.4,3.5-7.4,4
			c0.5,0.2,1,0.5,1.4,0.6c1.3,0.6,1.3,0.5,2.6-0.1c1.7-0.9,3.3-2.1,4.8-3.3c2-1.6,3.9-3.3,5.9-4.9c2.3-1.8,4.9-3.2,7.8-3.8
			c1.3-0.2,2.5-0.3,3.8-0.2c0.1,0.4,0.2,0.9,0.3,1.4c-0.1,0-0.2,0-0.2,0c-0.8,0-1.5,0-2.3,0c-2.3,0.2-4.4,1-6.4,2.2
			c-2.4,1.5-4.5,3.4-6.7,5.2c-1.6,1.4-3.3,2.8-5.1,4c-0.5,0.3-1,0.6-1.5,0.9c0.7,0.3,1.3,0.5,1.9,0.7c0.3,0.1,0.5,0.1,0.7-0.1
			c0.8-0.6,1.6-1.1,2.4-1.7c2.1-1.7,4.2-3.5,6.3-5.3c1.9-1.5,3.8-2.8,6.1-3.6c1.6-0.5,3.3-0.7,5-0.4c0,0.4,0,0.7,0,1.1
			c0,0,0,0.1,0,0.1c-0.1,0-0.3,0-0.4,0c-1.4-0.2-2.8,0-4.2,0.4c-1.8,0.5-3.3,1.5-4.8,2.6c-1.9,1.5-3.6,3-5.5,4.5c-1.2,1-2.5,2-3.8,3
			c0.5,0.2,1.1,0.3,1.6,0.5c0.4,0.2,0.7,0.1,1.1-0.2c2-1.7,3.9-3.3,5.9-4.9c1.7-1.4,3.4-2.7,5.4-3.5c1.4-0.6,2.9-0.7,4.4-0.5
			c-0.1,0.4-0.1,0.8-0.2,1.2c-1.2-0.2-2.4-0.1-3.5,0.3c-1.8,0.7-3.3,1.7-4.8,2.9c-1.9,1.6-3.8,3.2-5.7,4.8c-0.2,0.1-0.3,0.3-0.6,0.5
			c0.8,0.2,1.6,0.4,2.3,0.6c0.1,0,0.2,0,0.3-0.1c1.3-1.1,2.6-2.2,3.8-3.3c1.4-1.2,2.8-2.3,4.5-3.1c1-0.5,2-0.7,3-0.6
			c-0.1,0.4-0.3,0.7-0.4,1.1c-0.2,0-0.4,0-0.5,0c-1.3,0.1-2.4,0.8-3.4,1.6c-1.6,1.2-3,2.4-4.6,3.7c-0.4,0.3-0.8,0.7-1.3,1.2
			c0.9,0.2,1.7,0.4,2.5,0.5c0.1,0,0.2,0,0.3-0.1c0.5-0.4,1-0.9,1.5-1.4c0.9-0.8,1.8-1.6,2.7-2.3c0.5-0.4,1-0.7,1.6-0.9
			c-0.7,1.1-1.5,2.1-2.5,3c-0.3,0.3-0.7,0.6-1,0.8c-1.1,0.9-2.3,1.6-3.5,2.1c-0.9-0.2-1.7-0.4-2.6-0.6c-3.3-0.8-6.6-1.8-9.8-3
			c-2.7-1-5.4-2.2-8-3.5c-0.4-0.7-0.7-1.4-1-2.2C4.4,24.4,6,24.5,7.8,24z"/>
		<path class="st0" d="M16.7,2.5C16.7,2.5,16.7,2.5,16.7,2.5c3.4,1.6,6.9,2.9,10.6,3.8c0.5,0.1,0.9,0.2,1.4,0.3
			c0.6,0.5,1.2,1.1,1.7,1.8c-5.6-1.1-10.9-3-15.9-5.6C15.1,2.7,15.9,2.6,16.7,2.5z"/>
		<path class="st0" d="M5.7,28.7c0.9,1,1.9,1.9,3,2.7c2.3,1.6,5,2.6,8,2.8c0.4,0,0.8,0,1.2,0c1,0,1.9-0.1,2.9-0.3
			C15.6,32.7,10.6,30.9,5.7,28.7z"/>
		<path class="st0" d="M25.6,4.5c-1.7-0.5-3.4-1.1-5-1.8C22.4,3,24.1,3.6,25.6,4.5z"/>
	</g>
	<g>
		<path class="st0" d="M42.1,2.5h5.5c3.3,0,6.1,1.9,6.1,4.9c0,2.3-1.1,3.5-2,4.1h0.1c1.1,0.3,3.3,1.8,3.3,4.6c0,3.6-2.8,5.8-6.5,5.8
			h-6.5V2.5z M47.6,11.1c1.8,0,3.8-0.8,3.8-3.2c0-2.5-2-3.3-3.9-3.3h-3.2v6.5H47.6z M48.4,19.8c2.2,0,4.4-1.1,4.4-3.5
			c0-2.2-2-3.2-4.1-3.2h-4.4v6.7H48.4z"/>
		<path class="st0" d="M63.2,2.5H65l7.1,19.5h-2.3l-1.7-4.6h-8.1l-1.7,4.6h-2.3L63.2,2.5z M67.4,15.2l-3.2-9l-3.2,9H67.4z"/>
		<path class="st0" d="M74.7,2.5h5.6c3.3,0,6.5,1.6,6.5,5.6c0,2.6-1.8,4.7-4.5,5.2l6.8,8.7h-2.8l-6.6-8.4h-2.9v8.4h-2.2V2.5z
			 M80.3,11.4c2.4,0,4.2-1,4.2-3.5c0-2.2-1.7-3.3-4.2-3.3h-3.4v6.8H80.3z"/>
		<path class="st0" d="M91.2,2.5h12.1v2.2h-9.9v6.4h9.2v2.2h-9.2v6.5h10.1v2.2H91.2V2.5z"/>
		<path class="st0" d="M107.1,2.5h12.2v2.2h-10v6.4h9.3v2.2h-9.3v8.7h-2.2V2.5z"/>
		<path class="st0" d="M170.1,4.6h-6.1V2.4h14.3v2.2h-6.1v17.3h-2.2V4.6z"/>
		<path class="st0" d="M186.5,12.6c0-5.7,4-10.1,9.6-10.1c3.4,0,6.3,1.8,8,4.6l-2,1.2c-1.2-2-3.3-3.5-6-3.5c-4,0-7.4,3.2-7.4,8
			c0,4.7,3.4,7.9,7.4,7.9c2.5,0,4.8-1.4,6.4-4.1l1.9,1.1c-1.3,2.5-4.1,5.2-8.4,5.2C190.3,22.6,186.5,18.3,186.5,12.6z"/>
		<path class="st0" d="M212.7,2.4h1.8l7.1,19.5h-2.3l-1.7-4.6h-8.1l-1.7,4.6h-2.3L212.7,2.4z M216.8,15.1l-3.2-9l-3.2,9H216.8z"/>
		<path class="st0" d="M227.6,14.7l-5.8-12.3h2.5l4.4,9.6l4.4-9.6h2.4l-5.8,12.3v7.2h-2.1V14.7z"/>
		<path class="st0" d="M121.7,12.6c0-5.6,4.1-10.1,9.7-10.1c5.6,0,9.7,4.5,9.7,10.1c0,5.7-4.1,10-9.7,10
			C125.8,22.6,121.7,18.3,121.7,12.6z M138.8,12.6c0-4.7-3.4-8-7.3-8c-4,0-7.3,3.3-7.3,8c-0.1,4.7,3.3,7.9,7.3,7.9
			C135.5,20.5,138.8,17.3,138.8,12.6z"/>
		<path class="st0" d="M143.3,12.6c0-5.6,4.1-10.1,9.7-10.1c5.6,0,9.7,4.5,9.7,10.1c0,5.7-4.1,10-9.7,10
			C147.4,22.6,143.3,18.3,143.3,12.6z M160.3,12.6c0-4.7-3.4-8-7.3-8c-4,0-7.3,3.3-7.3,8c-0.1,4.7,3.3,7.9,7.3,7.9
			C157,20.5,160.3,17.3,160.3,12.6z"/>
	</g>
	<g>
		<path class="st0" d="M46.8,30.2c0.5,0.1,0.8,0.3,1.1,0.6c0.3,0.3,0.5,0.8,0.5,1.3c0,0.6-0.2,1.2-0.6,1.6c-0.4,0.4-1,0.6-1.8,0.6
			h-3.8v-8h3.7c0.7,0,1.3,0.2,1.7,0.6c0.4,0.4,0.6,0.9,0.6,1.5c0,0.5-0.1,0.9-0.4,1.2C47.5,29.9,47.2,30.1,46.8,30.2L46.8,30.2z
			 M43.1,29.8h2.7c0.4,0,0.8-0.1,1.1-0.4c0.3-0.3,0.4-0.6,0.4-1c0-0.4-0.1-0.7-0.4-1c-0.3-0.2-0.7-0.4-1.1-0.4h-2.6V29.8z
			 M45.9,33.4c0.5,0,0.9-0.1,1.2-0.4c0.3-0.3,0.4-0.6,0.4-1c0-0.4-0.1-0.8-0.4-1c-0.3-0.3-0.7-0.4-1.1-0.4h-2.8v2.8H45.9z"/>
		<path class="st0" d="M57.6,27.3c0.8,0.8,1.2,1.8,1.2,2.9c0,1.2-0.4,2.1-1.2,2.9c-0.8,0.8-1.8,1.2-2.9,1.2c-1.2,0-2.1-0.4-2.9-1.2
			c-0.8-0.8-1.2-1.8-1.2-2.9c0-1.2,0.4-2.1,1.2-2.9c0.8-0.8,1.8-1.2,2.9-1.2C55.8,26.1,56.8,26.5,57.6,27.3z M56.9,32.6
			c0.6-0.6,0.9-1.4,0.9-2.3c0-0.9-0.3-1.7-0.9-2.3c-0.6-0.6-1.4-0.9-2.2-0.9c-0.9,0-1.6,0.3-2.3,0.9c-0.6,0.6-0.9,1.4-0.9,2.3
			c0,0.9,0.3,1.7,0.9,2.3c0.6,0.6,1.4,0.9,2.3,0.9C55.6,33.5,56.3,33.2,56.9,32.6z"/>
		<path class="st0" d="M67.9,30.8c0,1.1-0.3,2-0.9,2.6c-0.6,0.7-1.4,1-2.4,1c-1,0-1.8-0.3-2.4-1c-0.6-0.7-0.9-1.5-0.9-2.6v-4.5h0.9
			v4.5c0,0.8,0.2,1.5,0.7,2c0.4,0.5,1,0.7,1.8,0.7c0.7,0,1.3-0.2,1.7-0.7c0.4-0.5,0.7-1.2,0.7-2v-4.5h0.9V30.8z"/>
		<path class="st0" d="M74,27.1v7.1H73v-7.1h-3v-0.8h6.8v0.8H74z"/>
		<path class="st0" d="M79.1,34.2v-8h0.9v8H79.1z"/>
		<path class="st0" d="M88.4,34c-0.5,0.2-1.1,0.3-1.7,0.3c-1.2,0-2.1-0.4-2.9-1.2c-0.8-0.8-1.2-1.8-1.2-2.9c0-1.2,0.4-2.1,1.2-2.9
			c0.8-0.8,1.8-1.2,2.9-1.2c1.1,0,2.1,0.4,2.9,1.2c0.8,0.8,1.2,1.8,1.2,2.9c0,0.7-0.1,1.3-0.4,1.9c-0.3,0.6-0.7,1-1.2,1.4l1.6,2
			l-0.7,0.7L88.4,34z M84.5,32.6c0.6,0.6,1.4,0.9,2.3,0.9c0.9,0,1.6-0.3,2.2-0.9c0.6-0.6,0.9-1.4,0.9-2.3c0-0.9-0.3-1.7-0.9-2.3
			c-0.6-0.6-1.4-0.9-2.2-0.9c-0.9,0-1.6,0.3-2.3,0.9c-0.6,0.6-0.9,1.4-0.9,2.3C83.6,31.2,83.9,31.9,84.5,32.6z"/>
		<path class="st0" d="M100,30.8c0,1.1-0.3,2-0.9,2.6c-0.6,0.7-1.4,1-2.4,1c-1,0-1.8-0.3-2.4-1c-0.6-0.7-0.9-1.5-0.9-2.6v-4.5h0.9
			v4.5c0,0.8,0.2,1.5,0.7,2c0.4,0.5,1,0.7,1.8,0.7c0.7,0,1.3-0.2,1.7-0.7c0.4-0.5,0.7-1.2,0.7-2v-4.5h0.9V30.8z"/>
		<path class="st0" d="M108.7,34.2h-5.8v-8h5.8v0.8h-4.9v2.7h4.5v0.8h-4.5v2.7h4.9V34.2z"/>
		<path class="st0" d="M120.7,34.2l-3-3.4h-1.5v3.4h-0.9v-8h3.7c0.8,0,1.4,0.2,1.9,0.6c0.5,0.4,0.7,1,0.7,1.6c0,0.7-0.2,1.2-0.7,1.6
			c-0.5,0.4-1.1,0.6-1.9,0.6h-0.1l3.1,3.4H120.7z M118.9,30c0.5,0,0.9-0.1,1.2-0.4c0.3-0.3,0.5-0.6,0.5-1c0-0.4-0.2-0.8-0.5-1
			c-0.3-0.3-0.7-0.4-1.2-0.4h-2.7V30H118.9z"/>
		<path class="st0" d="M129.9,34.2h-5.8v-8h5.8v0.8H125v2.7h4.5v0.8H125v2.7h4.9V34.2z"/>
		<path class="st0" d="M137.2,26.7c0.5,0.4,0.9,0.9,1,1.6l-0.9,0.2c-0.1-0.5-0.3-0.9-0.7-1.2c-0.4-0.3-0.8-0.4-1.4-0.4
			c-0.5,0-1,0.1-1.3,0.4c-0.3,0.3-0.5,0.6-0.5,1c0,0.3,0.1,0.6,0.3,0.8c0.2,0.2,0.5,0.3,0.9,0.4l1.7,0.4c1.3,0.3,2,1,2,2.1
			c0,0.7-0.3,1.3-0.8,1.7c-0.5,0.4-1.3,0.6-2.1,0.6c-0.9,0-1.6-0.2-2.2-0.6c-0.6-0.4-0.9-1-1-1.7l1-0.2c0.1,0.6,0.3,1,0.8,1.3
			c0.4,0.3,0.9,0.5,1.6,0.5c0.6,0,1.1-0.1,1.4-0.4c0.3-0.3,0.5-0.6,0.5-1.1c0-0.4-0.1-0.6-0.3-0.8c-0.2-0.2-0.5-0.3-1-0.4l-1.8-0.4
			c-1.3-0.3-1.9-1-1.9-2c0-0.7,0.3-1.2,0.8-1.6c0.5-0.4,1.2-0.6,2-0.6C136,26.1,136.6,26.3,137.2,26.7z"/>
		<path class="st0" d="M147.5,27.3c0.8,0.8,1.2,1.8,1.2,2.9c0,1.2-0.4,2.1-1.2,2.9c-0.8,0.8-1.8,1.2-2.9,1.2c-1.2,0-2.1-0.4-2.9-1.2
			c-0.8-0.8-1.2-1.8-1.2-2.9c0-1.2,0.4-2.1,1.2-2.9c0.8-0.8,1.8-1.2,2.9-1.2C145.7,26.1,146.7,26.5,147.5,27.3z M146.8,32.6
			c0.6-0.6,0.9-1.4,0.9-2.3c0-0.9-0.3-1.7-0.9-2.3c-0.6-0.6-1.4-0.9-2.2-0.9c-0.9,0-1.6,0.3-2.3,0.9c-0.6,0.6-0.9,1.4-0.9,2.3
			c0,0.9,0.3,1.7,0.9,2.3c0.6,0.6,1.4,0.9,2.3,0.9C145.4,33.5,146.2,33.2,146.8,32.6z"/>
		<path class="st0" d="M156.7,34.2l-3-3.4h-1.5v3.4h-0.9v-8h3.7c0.8,0,1.4,0.2,1.9,0.6c0.5,0.4,0.7,1,0.7,1.6c0,0.7-0.2,1.2-0.7,1.6
			c-0.5,0.4-1.1,0.6-1.9,0.6h-0.1l3.1,3.4H156.7z M154.9,30c0.5,0,0.9-0.1,1.2-0.4c0.3-0.3,0.5-0.6,0.5-1c0-0.4-0.2-0.8-0.5-1
			c-0.3-0.3-0.7-0.4-1.2-0.4h-2.7V30H154.9z"/>
		<path class="st0" d="M162.9,27.1v7.1h-0.9v-7.1h-3v-0.8h6.8v0.8H162.9z"/>
		<path class="st0" d="M177.2,33.3c-0.7,0.7-1.5,1.1-2.6,1.1c-0.9,0-1.6-0.2-2.1-0.7c-0.5-0.4-0.8-1-0.8-1.7c0-0.5,0.1-0.9,0.4-1.3
			c0.3-0.4,0.6-0.7,1.1-0.9c-0.5-0.5-0.7-1.1-0.7-1.6c0-0.6,0.2-1.1,0.6-1.5c0.4-0.4,1-0.6,1.6-0.6c0.6,0,1.2,0.2,1.6,0.6
			c0.4,0.4,0.7,0.9,0.7,1.5l-0.9,0.2c0-0.5-0.2-0.9-0.5-1.1c-0.3-0.2-0.6-0.4-1-0.4c-0.4,0-0.8,0.1-1,0.4c-0.3,0.2-0.4,0.6-0.4,1
			c0,0.4,0.1,0.7,0.4,1.1c0.3,0.3,0.7,0.8,1.3,1.3l1.9,1.6c0.2-0.4,0.3-0.9,0.3-1.4v-0.5h0.8v0.5c0,0.7-0.2,1.4-0.5,2l1.4,1.2
			l-0.5,0.6L177.2,33.3z M176.5,32.8l-2.1-1.8l-0.7-0.6c-0.4,0.2-0.7,0.4-0.9,0.7c-0.2,0.3-0.3,0.6-0.3,0.9c0,0.5,0.2,0.9,0.6,1.2
			c0.4,0.3,0.9,0.4,1.5,0.4C175.4,33.6,176,33.3,176.5,32.8z"/>
		<path class="st0" d="M193.7,34.2h-0.9v-5.8l-3.1,5.8h-0.6l-3.1-5.8v5.8h-0.9v-8h0.8l3.5,6.6l3.5-6.6h0.8V34.2z"/>
		<path class="st0" d="M202.7,34.2l-0.9-2h-4.2l-0.9,2h-1l3.6-8h0.9l3.6,8H202.7z M199.8,27.4l-1.7,3.9h3.5L199.8,27.4z"/>
		<path class="st0" d="M211.2,34.2l-3-3.4h-1.5v3.4h-0.9v-8h3.7c0.8,0,1.4,0.2,1.9,0.6s0.7,1,0.7,1.6c0,0.7-0.2,1.2-0.7,1.6
			c-0.5,0.4-1.1,0.6-1.9,0.6h-0.1l3.1,3.4H211.2z M209.5,30c0.5,0,0.9-0.1,1.2-0.4c0.3-0.3,0.5-0.6,0.5-1c0-0.4-0.2-0.8-0.5-1
			s-0.7-0.4-1.2-0.4h-2.7V30H209.5z"/>
		<path class="st0" d="M214.7,34.2v-8h0.9v8H214.7z"/>
		<path class="st0" d="M225.5,34.2h-0.8l-5.2-6.3v6.3h-0.9v-8h0.8l5.2,6.4v-6.4h0.9V34.2z"/>
		<path class="st0" d="M234.4,34.2l-0.9-2h-4.2l-0.9,2h-1l3.6-8h0.9l3.6,8H234.4z M231.4,27.4l-1.7,3.9h3.5L231.4,27.4z"/>
	</g>
</g>
</svg>
