<?xml version="1.0" encoding="utf-8"?>
<!-- Generator: Adobe Illustrator 26.0.3, SVG Export Plug-In . SVG Version: 6.00 Build 0)  -->
<svg version="1.1" id="Capa_1" xmlns="http://www.w3.org/2000/svg" xmlns:xlink="http://www.w3.org/1999/xlink" x="0px" y="0px"
	 viewBox="0 0 130 37" style="enable-background:new 0 0 130 37;" xml:space="preserve">
<style type="text/css">
	.st0{fill:#FFFFFF;}
</style>
<g>
	<g>
		<polygon class="st0" points="108.1,6.3 110.2,14.6 127.5,1.1 		"/>
		<polygon class="st0" points="113.2,12.3 116.7,19 127.5,1.1 		"/>
		<polygon class="st0" points="120.9,12 124.3,14.9 127.5,1.1 		"/>
	</g>
	<path class="st0" d="M28.5,1.1h4.2v34.8h-4.2V1.1z M21.8,14.5c2.2,2.2,3.3,5.1,3.3,8.5l0,0.1l-0.3,2.1l-18.6,0
		c0.2,1.8,1,3.3,2.4,4.7c1.5,1.4,3.3,2.2,5.3,2.2c1.4,0,2.6-0.3,3.8-0.9c1.2-0.6,2-1.2,2.5-1.8l1.1-1.3l2.7,2.7L23.8,31
		c-0.1,0.1-0.2,0.3-0.4,0.5c-0.2,0.2-0.6,0.6-1.2,1.2c-0.6,0.6-1.3,1-2,1.5c-0.7,0.4-1.7,0.8-2.8,1.2c-1.1,0.4-2.3,0.5-3.5,0.5
		c-3.2,0-6.1-1.2-8.4-3.6c-2.3-2.4-3.5-5.4-3.5-8.8s1.2-6.4,3.5-8.8c2.3-2.4,5.1-3.6,8.2-3.6C16.8,11.1,19.6,12.3,21.8,14.5z
		 M18.5,17c-1.3-1.3-3-1.9-4.9-1.9c-1.9,0-3.6,0.7-5,2c-1.3,1.2-2.1,2.7-2.4,4.3h14.6C20.5,19.7,19.7,18.2,18.5,17z M56.1,14.5
		c2.2,2.2,3.3,5.1,3.3,8.5l0,0.1l-0.3,2.1l-18.6,0c0.2,1.8,1,3.3,2.4,4.7c1.5,1.4,3.3,2.2,5.3,2.2c1.4,0,2.6-0.3,3.8-0.9
		c1.2-0.6,2-1.2,2.5-1.8l1.1-1.3l2.7,2.7L58.1,31c-0.1,0.1-0.2,0.3-0.4,0.5c-0.2,0.2-0.6,0.6-1.2,1.2c-0.6,0.6-1.3,1-2,1.5
		c-0.7,0.4-1.7,0.8-2.8,1.2c-1.1,0.4-2.3,0.5-3.5,0.5c-3.2,0-6.1-1.2-8.4-3.6c-2.3-2.4-3.5-5.3-3.5-8.8c0-3.4,1.2-6.4,3.5-8.8
		c2.3-2.4,5.1-3.6,8.2-3.6C51.2,11.1,54,12.3,56.1,14.5z M52.9,17c-1.3-1.3-3-1.9-4.9-1.9c-1.9,0-3.6,0.7-5,2
		c-1.3,1.2-2.1,2.7-2.4,4.3h14.6C54.9,19.7,54.1,18.2,52.9,17z M78.3,11.1l-7.1,18.2L64,11.1h-4.5l9.6,24.5l0.1,0.3h3.9l9.7-24.8
		H78.3z"/>
	<path class="st0" d="M103.7,14.7c-2.3-2.4-5.2-3.6-8.6-3.6c-3.4,0-6.3,1.2-8.6,3.6c-2.4,2.4-3.5,5.3-3.5,8.8s1.2,6.4,3.5,8.8
		c2.4,2.4,5.3,3.6,8.6,3.6c3.4,0,6.3-1.2,8.6-3.6c2.3-2.4,3.5-5.3,3.5-8.8S106,17.1,103.7,14.7z M103.1,23.5c0,2.4-0.8,4.4-2.4,6
		c-1.6,1.6-3.4,2.4-5.6,2.4c-2.2,0-4.1-0.8-5.6-2.5c-1.6-1.6-2.4-3.7-2.4-6c0-2.4,0.8-4.4,2.4-6c1.6-1.6,3.4-2.4,5.6-2.4
		c2.2,0,4.1,0.8,5.6,2.4C102.3,19.1,103.1,21.2,103.1,23.5z"/>
</g>
</svg>
