<?xml version="1.0" encoding="utf-8"?>
<!-- Generator: Adobe Illustrator 26.0.3, SVG Export Plug-In . SVG Version: 6.00 Build 0)  -->
<svg version="1.1" id="Capa_1" xmlns="http://www.w3.org/2000/svg" xmlns:xlink="http://www.w3.org/1999/xlink" x="0px" y="0px"
	 viewBox="0 0 81 46" style="enable-background:new 0 0 81 46;" xml:space="preserve">
<style type="text/css">
	.st0{fill:#FFFFFF;}
</style>
<g>
	<path class="st0" d="M3.4,9c1.3,0,2.5,0,3.8,0c0,1.3,0,2.7,0,4.1c0.2-0.2,0.3-0.2,0.4-0.3c3.9-4.9,11.2-4.7,15.3-1.5
		c3.8,2.9,5.4,6.8,4.9,11.5c-0.6,4.6-3.1,7.9-7.3,9.8c-3.9,1.8-9.6,1-13.1-2.8c0,4.7,0,9.3,0,14c-1.3,0-2.6,0-3.9,0
		C3.4,32.2,3.4,20.6,3.4,9z M24.1,21.4c0-4.7-3.7-8.5-8.4-8.5c-4.7,0-8.3,3.7-8.3,8.6c0,4.8,3.7,8.5,8.4,8.5
		C20.3,29.9,24.1,26,24.1,21.4z"/>
	<path class="st0" d="M54.6,22.4c-7.1,0-14.2,0-21.3,0c-0.3,2.3,2,5.4,4.8,6.7c1.9,0.9,3.9,1,6,0.6c2.1-0.5,3.6-1.7,4.7-3.5
		c0.9,0.8,1.7,1.5,2.5,2.2c0.1,0.1,0.1,0.4,0,0.6c-0.7,1.4-1.8,2.4-3.2,3.1c-4.5,2.4-11,1.7-14.6-1.6c-5-4.6-5.4-11.3-1.6-16.4
		c4.7-6.3,13.5-5.9,17.8-2.3c3.1,2.5,4.6,5.8,4.8,9.7C54.6,21.6,54.6,21.9,54.6,22.4z M50.4,19c-0.9-4.1-5-6.9-9.3-6.4
		c-3.7,0.4-7.3,3.6-7.3,6.4C39.3,19,44.8,19,50.4,19z"/>
	<path class="st0" d="M60.1,33.3c-1.3,0-2.5,0-3.8,0c0-8.1,0-16.2,0-24.3c1.3,0,2.5,0,3.8,0c0,0.7,0,1.4,0,2.3c1.1-1,2.2-1.7,3.5-2
		c2.1-0.5,4.2-0.5,6.3,0c1,0.3,1.1,0.3,1.1,1.4c0,1,0,1.9,0,2.9c-1.7-0.7-3.3-1-5-0.9c-3.7,0.3-5.7,2.4-5.8,6.2c0,4.6,0,9.1,0,13.7
		C60.1,32.8,60.1,33.1,60.1,33.3z"/>
	<path class="st0" d="M73,9c1.3,0,2.6,0,3.9,0c0,8.1,0,16.1,0,24.3c-1.3,0-2.6,0-3.9,0C73,25.2,73,17.2,73,9z"/>
	<path class="st0" d="M77.5,4.4c0,1.5-1.1,2.5-2.5,2.5c-1.4,0-2.5-1.1-2.5-2.5c0-1.4,1.1-2.5,2.5-2.5C76.4,1.9,77.5,3,77.5,4.4z"/>
</g>
</svg>
