<svg id="Capa_1" data-name="Capa 1" xmlns="http://www.w3.org/2000/svg" viewBox="0 0 108.4 93.88"><defs><style>.cls-1{fill:#fff;}</style></defs><path class="cls-1" d="M80.06,9.49c.65-3.12,1.3-6.24,2-9.39L83.36,2c1.74,2.42,3.56,4.79,5.21,7.27A19.68,19.68,0,0,1,92,18a30.45,30.45,0,0,1,0,3.31c0,2.46-1.34,4.41-2.53,6.39A33.43,33.43,0,0,1,83,36c-.8.7-1.69,1.28-2.61,2a37.8,37.8,0,0,0,10.37,2.84l-3.06,2.19a33.33,33.33,0,0,1-8.62,4.91,14.42,14.42,0,0,1-7.81.49L69.66,48V87.53c0,1.47,0,1.49-1.63,1.2v-.84Q68,68,68.05,48a1.06,1.06,0,0,0-.66-1.08c-4-2.2-7.83-4.62-10.81-8.15a34.19,34.19,0,0,1-2.3-3.47,19.19,19.19,0,0,0-1.9,5c-.41,1.78-.69,3.58-1,5.39,0,0-.06,0-.09,0-1.81-2.72-3.75-5.37-5.4-8.2a13.41,13.41,0,0,1-1.31-11,28,28,0,0,1,2.72-5.58,33.29,33.29,0,0,1,6.21-7.92,11.65,11.65,0,0,1,4.32-2.59A28,28,0,0,0,47.27,7.21c0-.09,0-.17.08-.19,2.41-1.59,4.78-3.26,7.26-4.74a15.14,15.14,0,0,1,8-2.28,15.36,15.36,0,0,1,7.76,2.31,45.05,45.05,0,0,1,8.44,6.22c.32.31.62.65.93,1ZM89,41.19c-.22-.07-.32-.12-.42-.14A33.4,33.4,0,0,1,78,37.49a20.9,20.9,0,0,1-8-7.3c-.76-1.25-1.35-2.61-2-3.92,0,.11-.12.26-.18.42-.7,2-1.43,4-2.07,6.09a15.52,15.52,0,0,0-.23,9.32,7.75,7.75,0,0,0,4.85,5.3,12.46,12.46,0,0,0,8,0,27.12,27.12,0,0,0,7.73-4.11C87,42.61,88,41.92,89,41.19ZM49,6.72c9.67,1.68,16.6,6.54,19.78,16.14.5-1.32,1-2.53,1.43-3.76,1.17-3.3,2.28-6.59,1.82-10.21A8.82,8.82,0,0,0,67.84,2a11.14,11.14,0,0,0-8.72-.85C55.31,2.08,52.28,4.49,49,6.72ZM82.88,17a7.26,7.26,0,0,0-.49.55c-.19.26-.35.53-.53.79a4.2,4.2,0,0,1-.7,1c-.87.72-1.78,1.38-2.7,2-.32.22-.71.33-1,.52s-.88.56-1.34.79-.85.33-1.27.51-.56.29-.85.38c-.77.25-1.55.44-2.32.69a2.41,2.41,0,0,0-.57.41,3,3,0,0,0,.46.59,1.5,1.5,0,0,0,.74.33,8.16,8.16,0,0,1,2.42.73A16.54,16.54,0,0,0,77,27c1.29.31,2.59.6,3.89.83a5.67,5.67,0,0,0,1.59-.06c1-.11,2.06-.21,3.07-.42a6.2,6.2,0,0,0,1.52-.72,6.21,6.21,0,0,0,1.13-.76c.47-.4.83-1,1.35-1.24a2.51,2.51,0,0,0,1-1,5.85,5.85,0,0,0,.77-2.86,8.48,8.48,0,0,0-.25-3.56,23.74,23.74,0,0,0-1.39-4.38c-.64-1.26-1.32-2.51-2-3.73A22.34,22.34,0,0,0,86.21,7c-.4-.52-.92-.94-1.3-1.47-.74-1-1.42-2.12-2.13-3.19A4.48,4.48,0,0,0,82.42,2c-.19,1.18-.35,2.25-.54,3.31a13.69,13.69,0,0,1-.36,1.4c0,.19-.19.35-.23.54C81.13,8,81,8.8,80.86,9.56a2.31,2.31,0,0,0,.75,2,1.77,1.77,0,0,1,.41.61c.11.19.12.44.26.59a3.43,3.43,0,0,1,.7,1.71c.11.8.16,1.6.23,2.4,0,.06,0,.12-.08.22ZM50.65,43.22c.23-.39.54-.68.53-1a6.81,6.81,0,0,1,.61-2.67c.21-.48.17-1.07.36-1.56.68-1.73,1.93-3.24,1.93-5.23a1.67,1.67,0,0,1,.18-.72,11.56,11.56,0,0,1,4.29-4.51,34.74,34.74,0,0,1,3.79-1.81,19.72,19.72,0,0,1,3.51-1.5A1.18,1.18,0,0,0,66.2,24c-1.39-.54-2.72-1-4.06-1.55a3.63,3.63,0,0,0-.59-.1,3.58,3.58,0,0,1-.74-.13c-.25-.1-.45-.34-.7-.4-.87-.21-1.75-.39-2.63-.54-.35-.06-.72,0-1.07,0a14.29,14.29,0,0,0-1.56-.3,11.92,11.92,0,0,0-1.87.22c-1.26.2-2.62.11-3.59,1.21a.65.65,0,0,1-.43.19c-1-.06-1.52.67-2,1.29a13.6,13.6,0,0,0-1.5,2.66,15.47,15.47,0,0,0-.62,2.17c-.17.6.35,1.26-.16,1.84,0,.06,0,.22,0,.33.06.51.12,1,.19,1.53a8,8,0,0,0,.23,1c.08.29.21.57.31.86a23.34,23.34,0,0,0,.8,2.31,14,14,0,0,0,1,1.67c.49.78,1,1.57,1.47,2.34.15.23.43.38.56.62.25.46.39,1,.65,1.41A3,3,0,0,0,50.65,43.22ZM67.7,25l-.15-.2c-1.5.52-3,1-4.49,1.59a21,21,0,0,0-6.53,3.92c-1.86,1.69-2.23,3.34-1.07,5.57a14.88,14.88,0,0,0,2,2.88A29.68,29.68,0,0,0,63.77,44c.94.62,1.91,1.2,2.86,1.8a12.39,12.39,0,0,1-2.23-10,61,61,0,0,1,2.09-7.53C66.82,27.16,67.29,26.08,67.7,25ZM70.4,3.16c.18.25.38.49.55.76a12.51,12.51,0,0,1,1.51,9.89,74.22,74.22,0,0,1-2.41,7.59c-.28.86-.65,1.68-1,2.6l.51-.07a27.81,27.81,0,0,0,6.91-2.53,15.54,15.54,0,0,0,4.49-3.22,3.72,3.72,0,0,0,1-3.85,10.39,10.39,0,0,0-2.1-3.74A36.48,36.48,0,0,0,70.4,3.16ZM50.64,20.1a6.79,6.79,0,0,0,1.1.19c1.55,0,3.08-.48,4.65-.13,1,.22,2,.34,3,.52s2.08.95,3.27.59c.1,0,.26.13.37.23s.3.38.49.45a12.24,12.24,0,0,1,3.4,1.17,2.14,2.14,0,0,0,.57.2,1.77,1.77,0,0,0,.09-.74,21.23,21.23,0,0,0-1.07-3c-.24-.5-.27-1.33-1.17-1.33a2.06,2.06,0,0,1-.1-.45c0-.22.05-.49-.06-.63-.76-1-1.52-1.92-2.36-2.8-.68-.72-1.5-1.32-2.23-2-.35-.32-.61-.72-1.19-.59a.57.57,0,0,1-.45-.24c-.46-.66-1.06-.48-1.62-.25a8.7,8.7,0,0,0-1.21.71,9.21,9.21,0,0,0-1.64,1.1A47.72,47.72,0,0,0,51,16.76c-1,1.24-1.87,2.61-2.79,3.93-.09.14-.13.48-.06.52a.77.77,0,0,0,.6.12,10.66,10.66,0,0,0,1.55-.67C50.46,20.58,50.51,20.34,50.64,20.1Zm38.25,7-.2-.21c-.36.28-.71.56-1.08.83a1.54,1.54,0,0,1-.59.37c-.94.17-1.89.27-2.83.44a10,10,0,0,1-1.55.37,25,25,0,0,1-6.11-1c-1.07-.27-2.11-.66-3.17-1a7.9,7.9,0,0,1-.84-.2c-1-.46-1.88-1.05-3-.68-.07,0-.16-.05-.24-.08.26-.58.26-.58-.39-.57l.79,2.35.06,0c.34.69.66,1.4,1,2.08a5.38,5.38,0,0,0,.69.9,17.31,17.31,0,0,0,1.26,1.44c.55.54,1.24.95,1.73,1.54s1.35.81,1.62,1.64c0,.11.36.11.55.18a3.3,3.3,0,0,1,.71.33c.59.43,1.13.93,1.73,1.33A.9.9,0,0,0,80.26,37a9.73,9.73,0,0,1,1.27-.91c.53-.36,1.2-.58,1.25-1.39,0-.13.25-.33.41-.36,1.07-.23,1.34-1.14,1.81-1.89a4.84,4.84,0,0,0,.75-.75c1-1.36,2-2.73,3-4.11A1.56,1.56,0,0,0,88.89,27.09Z"/><path class="cls-1" d="M106.78,77.79c0-.38,0-.76,0-1.13s.1-.69.6-.64a7.49,7.49,0,0,0,1,0,3.72,3.72,0,0,1,.07.46c0,4.05,0,8.09,0,12.13a7.47,7.47,0,0,1-.19,1.41c-.66,2.93-2.84,4-6,3.82a5.15,5.15,0,0,1-3.85-1.71A3,3,0,0,1,97.55,90a9.45,9.45,0,0,1,1.19,0,.57.57,0,0,1,.39.35,2.87,2.87,0,0,0,2.54,2,7.06,7.06,0,0,0,2.34,0,3.31,3.31,0,0,0,2.67-3.12,21.72,21.72,0,0,0,0-2.8c-.06,0-.14.07-.17.13C105,89,102.12,89,100.09,88.12A4.92,4.92,0,0,1,97.4,85a8.43,8.43,0,0,1-.1-5.14,5.31,5.31,0,0,1,4.21-4A5,5,0,0,1,106.78,77.79Zm.09,4.46a17.15,17.15,0,0,0-.44-2.31,3.72,3.72,0,0,0-3.18-2.86,3.59,3.59,0,0,0-4,2.1,6.41,6.41,0,0,0,.08,6.17,3.8,3.8,0,0,0,6.52.2A6.58,6.58,0,0,0,106.87,82.25Z"/><path class="cls-1" d="M33.34,59.18c-.3,1-.56,1.89-.8,2.75q-1,3.57-2.06,7.15c-.12.4-.25.72-.77.62s-1.09.29-1.36-.56c-1.19-3.84-2.45-7.65-3.68-11.47-.05-.17-.08-.35-.15-.62a8.73,8.73,0,0,1,1.36,0,.86.86,0,0,1,.47.54c.93,3.06,1.83,6.13,2.75,9.2a1.58,1.58,0,0,0,.38.72c.5-1.74,1-3.48,1.5-5.23.44-1.54.89-3.08,1.3-4.63a.71.71,0,0,1,.83-.64c1.14,0,1.14,0,1.44,1.07q1.31,4.53,2.59,9l.2.58c.44-1.45.85-2.77,1.24-4.1.58-1.92,1.17-3.84,1.7-5.77.18-.63.45-.93,1.12-.81a5.49,5.49,0,0,0,.83,0c-.33,1-.61,2-.91,2.92-1,3.05-2,6.09-2.94,9.15-.27.9-.91.47-1.41.58s-.59-.22-.7-.6C35.38,66,34.48,63,33.58,59.87,33.53,59.71,33.47,59.55,33.34,59.18Z"/><path class="cls-1" d="M81.33,59.11V52.28H82.9V69.65H81.48v-2a5.85,5.85,0,0,1-3.23,2.25A5.21,5.21,0,0,1,72,67a8.49,8.49,0,0,1,.13-7.41,5.34,5.34,0,0,1,7.94-1.8A10.51,10.51,0,0,1,81.33,59.11Zm-4.29-1a3.33,3.33,0,0,0-3.2,1.67,7,7,0,0,0-.13,7.05,3.47,3.47,0,0,0,3.41,1.91,3.76,3.76,0,0,0,3.53-2.22,7.16,7.16,0,0,0,.19-5.79A3.81,3.81,0,0,0,77,58.07Z"/><path class="cls-1" d="M55.65,63.81a4.57,4.57,0,0,0,3.06,4.77,3.86,3.86,0,0,0,4.55-2c.55-1.17.55-1.17,2-1a5.35,5.35,0,0,1-2.89,4,5.61,5.61,0,0,1-7.9-3.35,9.29,9.29,0,0,1-.06-5.4,5.63,5.63,0,0,1,2.22-3.22,5.35,5.35,0,0,1,7.91,2.15,18.46,18.46,0,0,1,.8,3.6c.09.47-.26.48-.6.47H55.65Zm8-1.37c-.14-2.75-1.76-4.43-4.15-4.37a4.27,4.27,0,0,0-3.8,4.37Z"/><path class="cls-1" d="M23.66,65.51A5,5,0,0,1,18.79,70c-3.48.19-5.66-1.59-6.19-5a8.83,8.83,0,0,1,.63-5.17,5.23,5.23,0,0,1,5.51-3.09,5,5,0,0,1,4.49,3.56,7.83,7.83,0,0,1,.47,3.52H14.07c.11,1.74.53,3.28,2,4.25a3.7,3.7,0,0,0,4.28.06,4.6,4.6,0,0,0,1.49-1.85c.3-.6.59-.88,1.25-.76A3.8,3.8,0,0,0,23.66,65.51Zm-1.52-3.07a4.45,4.45,0,0,0-2-3.85,3.52,3.52,0,0,0-3.91,0,4.91,4.91,0,0,0-2.1,3.81Z"/><path class="cls-1" d="M15.39,82.65a7.21,7.21,0,0,1,2.13-5.58c2.34-2.17,7.38-2,9.15,1.8a8,8,0,0,1-.29,7.65A5.94,5.94,0,0,1,15.57,84.2C15.47,83.6,15.43,83,15.39,82.65ZM17,82.26a6.49,6.49,0,0,0,.72,3.26,4.11,4.11,0,0,0,7.17.37,6.75,6.75,0,0,0-.13-7.11,4.08,4.08,0,0,0-6.65-.08A6.06,6.06,0,0,0,17,82.26Z"/><path class="cls-1" d="M42.29,84.66c.22,0,.4,0,.57,0,.64-.1,1,.05,1.13.8a3,3,0,0,0,2.78,2.31,4.74,4.74,0,0,0,2.85-.38,2.06,2.06,0,0,0,1.36-2,1.86,1.86,0,0,0-1.42-1.79c-1-.32-2-.52-2.93-.8-.67-.19-1.35-.39-2-.64a2.77,2.77,0,0,1-1.93-2.32,3.21,3.21,0,0,1,1.38-3.25,6.38,6.38,0,0,1,6.38-.08,3.69,3.69,0,0,1,1.62,3.28H50.58a2.64,2.64,0,0,0-2.37-2.61,6.4,6.4,0,0,0-2.46.16,1.8,1.8,0,0,0-1.46,1.8,1.7,1.7,0,0,0,1.29,1.72c1.17.4,2.39.64,3.58,1a7.54,7.54,0,0,1,1.89.72A3.33,3.33,0,0,1,51.33,88a7,7,0,0,1-7.25.27A4.34,4.34,0,0,1,42.29,84.66Z"/><path class="cls-1" d="M38.46,88.82V88c0-2.41,0-4.83,0-7.25a6.7,6.7,0,0,0-.15-1.48,3.24,3.24,0,0,0-4.92-1.8,4.12,4.12,0,0,0-2.05,3.8c0,2.24,0,4.48,0,6.71v.78H29.74V76.08h1.55V78c1.69-2.17,3.6-2.82,6-2.12A3.57,3.57,0,0,1,40,79.33c.1,1.33.08,2.66.1,4,0,1.56,0,3.12,0,4.68,0,.65-.16.92-.82.83A5.32,5.32,0,0,0,38.46,88.82Z"/><path class="cls-1" d="M93.16,88.82V81.38c0-.49,0-1-.09-1.48-.25-2.62-2.22-3.21-4.25-2.7A4,4,0,0,0,86,81.36c0,2.21,0,4.43,0,6.64v.78H84.42V76.08H86V78a14.1,14.1,0,0,1,1-1.14,5.47,5.47,0,0,1,6-.53,3.55,3.55,0,0,1,1.71,3.07c.09,2,.07,3.93.09,5.89,0,1,0,2,0,2.92,0,.51-.15.7-.66.64C93.82,88.8,93.53,88.82,93.16,88.82Z"/><path class="cls-1" d="M65.09,76.06V88.77H63.66V86.85a5.14,5.14,0,0,1-3.48,2.23c-3,.41-5.26-.74-5.39-4.16-.11-2.84,0-5.69,0-8.54a2.08,2.08,0,0,1,0-.3h1.55c0,.25,0,.48,0,.72,0,2.47,0,4.93,0,7.39a6.24,6.24,0,0,0,.07,1.15,2.55,2.55,0,0,0,1.91,2.3,3.64,3.64,0,0,0,3.82-.89,5.43,5.43,0,0,0,1.3-3.82c0-2,0-4,0-6,0-.88,0-.88.9-.87Z"/><path class="cls-1" d="M1.6,69.66H0v-.74c0-3.75,0-7.5,0-11.25,0-.45.12-.68.61-.63.31,0,.62,0,1,0v2l.54-.75a5.26,5.26,0,0,1,6.77-.69,4,4,0,0,1,1.34,3.15c.06,2.91,0,5.82,0,8.74,0,0,0,.08-.07.16H8.7c0-.28,0-.52,0-.76,0-2.42,0-4.83,0-7.25a6,6,0,0,0-.05-.95,2.75,2.75,0,0,0-2.28-2.59,3.67,3.67,0,0,0-4.09,1.83,6.6,6.6,0,0,0-.61,2.46C1.55,64.79,1.6,67.19,1.6,69.66Z"/><path class="cls-1" d="M13.75,80.09a7.22,7.22,0,0,0-.93,0c-.44.05-.63-.12-.76-.54a3.19,3.19,0,0,0-2.55-2.44,4,4,0,0,0-4.15,1.55,6.78,6.78,0,0,0,.07,7.57,3.79,3.79,0,0,0,4,1.46,3.59,3.59,0,0,0,2.82-3c0-.17.09-.34.14-.54h1.48A5,5,0,0,1,9.1,89.15a5.91,5.91,0,0,1-6.44-5.86,7.61,7.61,0,0,1,1.5-5.61c2.13-2.65,6.81-2.74,8.7-.14A13.29,13.29,0,0,1,14,79.89Z"/><path class="cls-1" d="M46.3,57.06h2.36v1.32H46.24v11.2a.9.9,0,0,1-.18.1c-1.4.16-1.41.15-1.41-1.22q0-4.68,0-9.36c0-.22,0-.44,0-.72h-2V57.05a9.74,9.74,0,0,1,1.21,0c.66.07,1-.12.88-.85a7.32,7.32,0,0,1,.07-1.55,2.57,2.57,0,0,1,2.62-2.42h.48c1.3,0,1.3,0,1.19,1.37H47.85c-1,0-1.44.35-1.53,1.32C46.25,55.59,46.3,56.27,46.3,57.06Z"/><path class="cls-1" d="M73.49,77.38H71.31a3.35,3.35,0,0,1-.07-.45c0-.9,0-.9.85-.9h1.37V72.25h1.62c0,1,0,2,0,3.06,0,.55.15.78.72.73s1.21,0,1.86,0v1.33H75.14c0,.28,0,.49,0,.7q0,3.9,0,7.8,0,.3,0,.6a1.05,1.05,0,0,0,1.13,1.1,5,5,0,0,0,.67,0l.72,0V89A22.67,22.67,0,0,1,75,88.8c-1-.17-1.52-1-1.52-2.23,0-2.76,0-5.52,0-8.27Z"/><path class="cls-1" d="M79.89,88.77V76.08h1.57V88.77Z"/><path class="cls-1" d="M50.21,57.08h1.51V69.65H50.21Z"/><path class="cls-1" d="M79.92,71.2h1.52v2.46H79.92Z"/><path class="cls-1" d="M51.75,52.27v2.46H50.2V52.27Z"/></svg>