<svg id="Capa_1" data-name="Capa 1" xmlns="http://www.w3.org/2000/svg" viewBox="0 0 91.96 57.6"><defs><style>.cls-1{fill:#f1f2f2;}</style></defs><path class="cls-1" d="M46.48,48.49h3.93V41.84a1.43,1.43,0,0,1,2.85,0v6.65H57.2V41.84a1.43,1.43,0,0,1,2.85,0v6.65H64V42.43a5.38,5.38,0,0,0-5.18-5.56,5,5,0,0,0-3.57,1.53,5,5,0,0,0-3.57-1.53,5.38,5.38,0,0,0-5.18,5.56Zm-32.82,0h4.4V37.73a1.79,1.79,0,0,1,1.79-1.81,1.82,1.82,0,1,1,0,3.63H18.71v3.92h1.14A6,6,0,0,0,26,37.72,6,6,0,0,0,19.85,32a6,6,0,0,0-6.19,5.74Zm59-3.62a5.1,5.1,0,0,1-1.71.31,2.25,2.25,0,1,1,0-4.5,2.28,2.28,0,0,1,2.33,2.25v5.56h3.94V42.92a6.35,6.35,0,0,0-12.66,0,6.11,6.11,0,0,0,6.33,5.84,6.81,6.81,0,0,0,1.77-.23Zm-39.24,0a5.16,5.16,0,0,1-1.72.31,2.25,2.25,0,1,1,0-4.5A2.29,2.29,0,0,1,34,42.93v5.56H38V42.92a6.1,6.1,0,0,0-6.33-5.85,6.1,6.1,0,0,0-6.32,5.85,6.1,6.1,0,0,0,6.32,5.84,7,7,0,0,0,1.78-.23Zm9.15-1.12v4.74H38.63V37.17h3.66v1.72a3.81,3.81,0,0,1,3.14-1.75h1v3.45H45.9s-3.33-.16-3.33,3.16"/><path class="cls-1" d="M76.67,34.72h.44a1,1,0,0,0,.48-.09.32.32,0,0,0,.14-.29.28.28,0,0,0-.14-.26.82.82,0,0,0-.42-.09h-.5Zm-.54,1.52V33.56H77.4a.91.91,0,0,1,.69.22.76.76,0,0,1,.21.54.71.71,0,0,1-.18.5,1,1,0,0,1-.54.25.62.62,0,0,1,.26.17,3.1,3.1,0,0,1,.31.46l.32.54h-.68l-.22-.43a2.05,2.05,0,0,0-.36-.53.57.57,0,0,0-.4-.14h-.14v1.1Zm1.2-3.38a2,2,0,0,0-2.09,2,2,2,0,0,0,4.07,0,2.05,2.05,0,0,0-2-2m-.13-.5a2.48,2.48,0,0,1,1.87.76,2.52,2.52,0,0,1,.73,1.77,2.53,2.53,0,1,1-4.68-1.32,2.52,2.52,0,0,1,2.08-1.21"/><path class="cls-1" d="M48.32,16.41a5.42,5.42,0,0,0-1.77-2.17l-.16-.1a1.5,1.5,0,0,0-.5.2c-.51.37-1.22.2-1.64.36a36.46,36.46,0,0,0-2.9,2.83c-.72.66-.94,1.29-1.61,1.41s-2.07.27-2.45.9-.69,1.42-1.5,1.62a3.56,3.56,0,0,0-2.25,1.11c-.22.31-.07.28-.07.28a4,4,0,0,0,1.42.14,2.67,2.67,0,0,0,1.79-.72c.53-.63.23-1.58,1-1.57a3.85,3.85,0,0,0,1.89-.19,10.31,10.31,0,0,0,3.08-2.59A6.44,6.44,0,0,1,44,16.46s.9,2.38,1.83,2.37c0,0-1.23-2-1-2.78.29-1,1.64-.45,1.62.39,0,0,.4-1.84,1.85,0M56,29.51c.58.59,8.81,2.83,8.81,2.83s-2.7-.11-4.72-.39c-1-.13-4.57-1.31-6.75-2s.44-1.64.87-1.8,3.41-.67,4-1-.19-.47-.45-.56a30.8,30.8,0,0,0-3.46.64c-1.05.2-3.49.38-4.34,1s-.31,1.13,1.23,2.37,5,1.36,5,1.36c-2.07.78-4.12.55-6.64.52A11.93,11.93,0,0,1,45,31.44a4.16,4.16,0,0,1-1.79-1.83c-.2-.55-.2-.75-.5-.75s-.25.62-1.85.81-2.73-1.16-3-1.25a3.67,3.67,0,0,0-1.9.15c-.34.25-1.63,0-2.27,0s-1.63-.9-1.38-.9,12.92.06,14.52.08,1.64-.53,1.57-1.16-2.44-.36-2.82-.37-6.57.31-7.65.42-13-.11-13-.11c.71,0,2.62-1.44,2.93-1.73a10.1,10.1,0,0,1,3.41-1,4.7,4.7,0,0,0,1.39-.2,2.69,2.69,0,0,1,.78-1.21,4.15,4.15,0,0,1,2.15-1.19c.81-.2,1.11-1,1.5-1.63s1.77-.78,2.44-.89.9-.76,1.62-1.42A38.39,38.39,0,0,1,44,14.39c.42-.16,1.13,0,1.64-.36a1.06,1.06,0,0,1,1.47.06c.46.43,7.23,5.17,8.47,6.15s10,6.18,10,6.18l-3.79.29a4,4,0,0,0-1.39.58c-.34.33-2.91.55-4,.83s-1,.8-.4,1.39"/><path class="cls-1" d="M38.59,17.49a1.8,1.8,0,0,0-.58.11l0,0a2.18,2.18,0,0,1-.49.26,6.81,6.81,0,0,1-1.57.1h-.47a1.33,1.33,0,0,0-.74.14l-.25.14a5,5,0,0,1-1,.06h0l-.64,0h-.38a1.11,1.11,0,0,1-.68-.28,1.36,1.36,0,0,0-.47-.68c-.21-.15-.23-.27-.23-.29a.12.12,0,0,1,0-.13.83.83,0,0,1,.52-.21,1.17,1.17,0,0,0,.66-.14l.1,0a.86.86,0,0,1,.3-.05.88.88,0,0,1,.44.12.73.73,0,0,0,.93-.13c.07-.1.34-.41.43-.51l.08-.07a1.82,1.82,0,0,1,.68-.44,1.4,1.4,0,0,1,.47-.08,1,1,0,0,1,.63.18l.19.16a3.14,3.14,0,0,0,.83.58c.54.27,1.47.64,1.53.67s.34.13.34.3-.34.23-.59.23m-9.48.39c-.23,0-.88.09-1.09-.22-.08-.12-.07-.19-.05-.23a.7.7,0,0,1,.37-.3l.55-.17a5.78,5.78,0,0,0,1.21-.52l.06,0a.84.84,0,0,1,.5-.18c.1,0,.26.13.4.26a.7.7,0,0,0-.29.22.48.48,0,0,0-.1.41.86.86,0,0,0,.37.51l.12.11a14,14,0,0,0-2.05.15M39,16.62s-1-.39-1.49-.65a3,3,0,0,1-.75-.53l-.2-.17a1.66,1.66,0,0,0-1.47-.15,2.38,2.38,0,0,0-.78.5l-.09.09a6.78,6.78,0,0,0-.47.56.41.41,0,0,1-.43,0,1.13,1.13,0,0,0-.65-.18,1,1,0,0,0-.44.07l-.11.05a1,1,0,0,1-.52.11h-.1a1.37,1.37,0,0,0-.8-.51,1.21,1.21,0,0,0-.7.24l-.05,0a5.18,5.18,0,0,1-1.12.48l-.54.16a1,1,0,0,0-.62.52.64.64,0,0,0,.09.56,1.2,1.2,0,0,0,1,.41,3.08,3.08,0,0,0,.46,0,12.29,12.29,0,0,1,2.21-.13h0a1.26,1.26,0,0,0,1,.55h.37l.64,0h0a5.74,5.74,0,0,0,1.09-.07,1.42,1.42,0,0,0,.37-.19,1.16,1.16,0,0,1,.54-.09h.47a6.06,6.06,0,0,0,1.71-.12,2.77,2.77,0,0,0,.57-.3,1.15,1.15,0,0,1,.42-.09c.47,0,.94-.17.95-.58s-.37-.58-.58-.64"/><path class="cls-1" d="M18,53.19s8.4,4.41,27.2,4.41,28.54-4.41,28.54-4.41S63.35,55.8,45.22,55.8,18,53.19,18,53.19"/><path class="cls-1" d="M6.43,31.47c-2.08,12.91,8,20.26,8,20.26C-1.56,46.28,0,26.28,0,26.28,0-.51,44,0,46.39,0S91.92,0,91.92,26.28c0,0,1.6,20-14.39,25.45,0,0,10.08-7.35,8-20.26s-8.89-20.26-39.1-20.85c-30.1.59-37.92,8-40,20.85"/></svg>