<?xml version="1.0" encoding="utf-8"?>
<!-- Generator: Adobe Illustrator 26.0.3, SVG Export Plug-In . SVG Version: 6.00 Build 0)  -->
<svg version="1.1" id="Capa_1" xmlns="http://www.w3.org/2000/svg" xmlns:xlink="http://www.w3.org/1999/xlink" x="0px" y="0px"
	 viewBox="0 0 127.4 77.7" style="enable-background:new 0 0 127.4 77.7;" xml:space="preserve">
<style type="text/css">
	.st0{fill:#FFFFFF;}
	.st1{opacity:0.6;fill:#FFFFFF;}
	.st2{opacity:0.75;fill:#FFFFFF;}
</style>
<g>
	<g>
		<g>
			<path class="st0" d="M21.1,69.9H9.3l-1.9,4.2H2.8l10.1-22.5h4.6l10.1,22.5H23L21.1,69.9z M15.2,56.4L11,66h8.3L15.2,56.4z"/>
			<path class="st0" d="M40.5,74.2v-8.3c0-2.4-1.3-4.2-3.8-4.2c-2.4,0-4,2-4,4.4v8.1h-3.9V58.3h3.5l0.3,2.2c1.6-1.6,3.2-2.4,5.2-2.4
				c3.7,0,6.7,2.8,6.7,7.8v8.3H40.5z"/>
			<path class="st0" d="M64.2,51.7v22.4h-3.7L60.3,72c-1.2,1.9-3.2,2.5-5.1,2.5c-4.7,0-8.2-3.1-8.2-8.3c0-5.5,3.4-8.3,8.1-8.3
				c1.7,0,4.3,0.9,5.2,2.5v-8.8H64.2z M51,66.2c0,2.8,2,4.7,4.5,4.7c2.5,0,4.6-1.8,4.6-4.7c0-2.8-2.1-4.6-4.6-4.6
				C53,61.6,51,63.4,51,66.2z"/>
			<path class="st0" d="M80.2,58.3h3.8v15.8h-3.7l-0.2-2.3c-0.9,1.9-3.4,2.8-5.1,2.8c-4.7,0-8.2-2.9-8.2-8.4c0-5.5,3.6-8.3,8.2-8.3
				c2.1,0,4.1,1,5,2.6L80.2,58.3z M70.7,66.2c0,3,2.1,4.8,4.7,4.8c6.2,0,6.2-9.6,0-9.6C72.8,61.5,70.7,63.2,70.7,66.2z"/>
			<path class="st0" d="M90.9,58.3l0.3,1.8c1.2-2,2.9-2.2,4.5-2.2c1.6,0,3.2,0.6,4.1,1.5l-1.8,3.4c-0.8-0.7-1.5-1-2.8-1
				c-2.1,0-3.9,1.1-3.9,4v8.3h-3.9V58.3H90.9z"/>
			<path class="st0" d="M105.5,53.9c0,3-4.6,3-4.6,0C100.8,50.8,105.5,50.8,105.5,53.9z M101.2,58.3v15.9h3.9V58.3H101.2z"/>
			<path class="st0" d="M121.2,58.3h3.8v15.8h-3.7l-0.2-2.3c-0.9,1.9-3.4,2.8-5.1,2.8c-4.7,0-8.2-2.9-8.2-8.4c0-5.5,3.6-8.3,8.2-8.3
				c2.1,0,4.1,1,5,2.6L121.2,58.3z M111.7,66.2c0,3,2.1,4.8,4.7,4.8c6.2,0,6.2-9.6,0-9.6C113.8,61.5,111.7,63.2,111.7,66.2z"/>
		</g>
		<g>
			<path class="st0" d="M13.4,40.9v3.6h-0.8V34.2c1.5,0,3,0,4.5,0c4.5,0,4.5,6.7,0,6.7H13.4z M13.4,34.9v5.3h3.7
				c3.4,0,3.4-5.3,0-5.3H13.4z"/>
			<path class="st0" d="M28.8,37.2c0,2.4,0,4.8,0,7.3h-0.7v-1.5c-0.7,1.1-1.8,1.7-3,1.7c-2,0-3.7-1.5-3.7-3.7c0-2.2,1.7-3.7,3.7-3.7
				c1.2,0,2.4,0.5,3,1.7v-1.6H28.8z M22.2,40.8c0,1.8,1.3,3,3,3c4,0,4-6.1,0-6.1C23.5,37.8,22.2,39,22.2,40.8z"/>
			<path class="st0" d="M35.8,38.5c-0.7-0.6-1.5-0.8-2.3-0.8c-1.1,0-2.2,0.4-2.2,1.3c0,1,1.3,1.2,2.2,1.3c1.3,0.2,3.1,0.4,3,2.1
				c0,1.6-1.7,2-3,2c-1.3,0-2.5-0.5-3.2-1.5l0.5-0.5c0.6,0.9,1.7,1.2,2.7,1.2c0.9,0,2.2-0.2,2.3-1.4c0-1-1.2-1.2-2.4-1.4
				c-1.4-0.2-2.8-0.5-2.8-2c0-1.4,1.4-2,2.9-2c1.1,0,2,0.3,2.7,1L35.8,38.5z"/>
			<path class="st0" d="M37.7,40.8c0-2.2,1.6-3.7,3.7-3.7c2,0,3.9,1.2,3.6,4.1h-6.5c0.1,1.7,1.5,2.7,3,2.7c1,0,2.1-0.4,2.6-1.1
				l0.5,0.4c-0.7,0.9-2,1.4-3.1,1.4C39.3,44.6,37.7,43.2,37.7,40.8z M44.3,40.6c0-1.8-1.2-2.8-2.9-2.8c-1.5,0-2.8,1-3,2.8H44.3z"/>
			<path class="st0" d="M46.5,40.9c0-2.3,1.6-3.8,3.7-3.8c2,0,3.7,1.5,3.7,3.8c0,2.3-1.6,3.7-3.7,3.7C48.1,44.6,46.5,43.2,46.5,40.9
				z M53.2,40.9c0-1.9-1.3-3.1-3-3.1c-1.6,0-3,1.2-3,3.1c0,1.9,1.3,3,3,3C51.8,43.9,53.2,42.7,53.2,40.9z"/>
		</g>
	</g>
	<polygon class="st1" points="72,23.3 72,44.2 72.2,44.4 93.1,44.4 89.5,40.7 	"/>
	<polygon class="st1" points="114,2.4 93.1,2.4 114,23.3 	"/>
	<polygon class="st2" points="114,28.3 114,23.3 93.1,2.4 76.9,2.4 114,39.6 114,39.6 102.7,28.3 	"/>
	<polygon class="st2" points="72,7.2 83.3,18.5 72,18.5 72,23.3 89.5,40.7 93.1,44.4 93.1,44.4 93.1,44.4 109.2,44.4 72,7.2 	"/>
	<polygon class="st0" points="89.5,40.7 93.1,44.4 93.1,44.4 	"/>
	<polygon class="st0" points="72,7.2 72,7.2 60.8,18.5 72,18.5 83.3,18.5 	"/>
	<polygon class="st0" points="114,28.3 102.7,28.3 114,39.6 114,39.6 125.3,28.3 	"/>
</g>
</svg>
