<?xml version="1.0" encoding="utf-8"?>
<!-- Generator: Adobe Illustrator 26.0.3, SVG Export Plug-In . SVG Version: 6.00 Build 0)  -->
<svg version="1.1" id="Capa_1" xmlns="http://www.w3.org/2000/svg" xmlns:xlink="http://www.w3.org/1999/xlink" x="0px" y="0px"
	 viewBox="0 0 68.8 96.4" style="enable-background:new 0 0 68.8 96.4;" xml:space="preserve">
<style type="text/css">
	.st0{fill:#FFFFFF;}
	.st1{opacity:0.6;fill:#FFFFFF;}
	.st2{opacity:0.75;fill:#FFFFFF;}
</style>
<g>
	<path class="st0" d="M33.3,14.3c-0.2,0.1-0.3,0.2-0.4,0.2c-3.2,1.6-6.5,3.2-9.7,4.9c-0.3,0.2-0.5,0.2-0.8-0.1
		c-4.8-3.8-9.6-7.7-14.4-11.5C7.8,7.7,7.7,7.6,7.5,7.4C8.7,7,9.9,6.5,11,6c2.6-1.1,5.2-2.1,7.7-3.2c0.2-0.1,0.4-0.2,0.6,0
		c4.6,3.8,9.2,7.5,13.9,11.2C33.2,14.2,33.3,14.2,33.3,14.3z"/>
	<path class="st0" d="M62.1,7.4c-1.2,1-2.4,1.9-3.6,2.8c-3.8,3-7.5,6-11.3,9c-0.3,0.3-0.5,0.3-0.9,0.1c-3.2-1.6-6.4-3.2-9.6-4.8
		c-0.1-0.1-0.3-0.1-0.5-0.2c0.9-0.7,1.7-1.4,2.5-2.1c3.8-3.1,7.6-6.1,11.3-9.2c0.3-0.2,0.5-0.3,0.9-0.1c3.5,1.5,7.1,2.9,10.6,4.4
		C61.7,7.3,61.9,7.4,62.1,7.4z"/>
	<path class="st0" d="M6.8,57.2c1,0,1.9,0,2.9,0c0,1,0,2,0,3.1c0.2-0.1,0.2-0.2,0.3-0.3c2.9-3.7,8.4-3.6,11.5-1.2
		c2.8,2.2,4.1,5.1,3.7,8.7c-0.4,3.5-2.3,6-5.5,7.4c-3,1.3-7.2,0.8-9.9-2.1c0,3.6,0,7.1,0,10.6c-1,0-2,0-3,0
		C6.8,74.7,6.8,66,6.8,57.2z M22.5,66.6c0-3.6-2.8-6.5-6.3-6.5c-3.6,0-6.3,2.8-6.3,6.5c0,3.6,2.8,6.5,6.4,6.4
		C19.6,73,22.5,70.1,22.5,66.6z"/>
	<path class="st0" d="M45.5,67.3c-5.4,0-10.7,0-16.1,0c-0.2,1.7,1.5,4,3.7,5c1.5,0.7,3,0.8,4.5,0.4c1.6-0.4,2.7-1.3,3.6-2.7
		c0.7,0.6,1.3,1.1,1.9,1.7c0.1,0.1,0.1,0.3,0,0.4c-0.5,1.1-1.4,1.8-2.4,2.3c-3.4,1.8-8.3,1.3-11-1.2c-3.8-3.5-4.1-8.6-1.2-12.4
		c3.6-4.8,10.2-4.5,13.5-1.8c2.3,1.9,3.5,4.4,3.6,7.4C45.5,66.7,45.5,67,45.5,67.3z M42.4,64.8c-0.7-3.1-3.8-5.2-7.1-4.9
		c-2.8,0.3-5.5,2.7-5.5,4.9C34,64.8,38.1,64.8,42.4,64.8z"/>
	<path class="st1" d="M41,50.2c0-2.8,0-5.6,0-8.5c2,1.2,3.9,2.4,5.9,3.7c0-7.4,0-14.8,0-22.1c1.5-0.5,3-1,4.6-1.6c0,0.2,0,0.3,0,0.4
		c0,0.7,0,1.5,0,2.2c0,6.9,0,13.7,0,20.6c0,0.4-0.1,0.6-0.5,0.7c-3.3,1.5-6.5,3-9.8,4.5C41.2,50.1,41.1,50.1,41,50.2z"/>
	<path class="st1" d="M22.7,45.4c2-1.2,3.9-2.4,5.9-3.7c0,2.8,0,5.6,0,8.4c-0.1,0-0.2-0.1-0.3-0.1c-3.3-1.5-6.6-3-9.8-4.5
		c-0.3-0.1-0.4-0.3-0.4-0.6c0-3.1,0-6.2,0-9.4c0-4.5,0-8.9,0-13.4c0-0.1,0-0.3,0-0.5c0.2,0.1,0.4,0.1,0.5,0.1
		c1.2,0.4,2.4,0.8,3.7,1.2c0.3,0.1,0.4,0.3,0.4,0.6c0,7,0,14,0,21C22.7,44.9,22.7,45.1,22.7,45.4z"/>
	<path class="st1" d="M33.8,14.6c0,0.2,0,0.4,0,0.6c0,5.9,0,11.8,0,17.6c0,1.6,0,3.1,0,4.7c0,0.3-0.1,0.5-0.3,0.6
		c-1.4,0.9-2.8,1.7-4.3,2.7c0-0.3,0-0.4,0-0.6c0-4.9,0-9.9,0-14.8c0-0.4-0.1-0.6-0.5-0.7c-1.7-0.5-3.4-1.1-5.1-1.7
		c-0.3-0.1-0.4-0.2-0.4-0.5c0-0.8,0-1.6,0-2.3c0-0.1,0.1-0.4,0.2-0.4c3.4-1.7,6.8-3.4,10.1-5.1C33.6,14.6,33.7,14.6,33.8,14.6z"/>
	<path class="st1" d="M35.9,14.6c0.5,0.2,0.9,0.5,1.4,0.7c2.9,1.5,5.9,2.9,8.8,4.4c0.3,0.1,0.4,0.3,0.4,0.6c0,0.7,0,1.5,0,2.2
		c0,0.3-0.1,0.4-0.4,0.5c-1.7,0.6-3.4,1.2-5.1,1.7c-0.4,0.1-0.4,0.3-0.4,0.6c0,4.9,0,9.9,0,14.8c0,0.2,0,0.4,0,0.6
		c-0.2-0.1-0.3-0.1-0.4-0.2c-1.3-0.8-2.6-1.6-4-2.5c-0.2-0.1-0.3-0.3-0.3-0.6c0-7.5,0-15.1,0-22.6C35.8,14.9,35.8,14.8,35.9,14.6z"
		/>
	<path class="st2" d="M23.2,44.5c0-7.1,0-14.1,0-21.1c1.4,0.5,2.9,1,4.3,1.4c1.2,0.4,1.2,0.4,1.2,1.7c0,4.7,0,9.4,0,14.1
		c0,0.4-0.1,0.6-0.5,0.8c-1.5,0.9-3,1.9-4.6,2.8C23.5,44.3,23.4,44.4,23.2,44.5z"/>
	<path class="st2" d="M46.4,23.4c0,7,0,14,0,21.1c-0.1-0.1-0.3-0.1-0.4-0.2c-1.6-1-3.2-2-4.8-2.9c-0.2-0.1-0.3-0.3-0.3-0.6
		c0-5,0-10.1,0-15.1c0-0.2,0.1-0.4,0.2-0.5C42.9,24.6,44.6,24,46.4,23.4z"/>
	<path class="st0" d="M49.7,75.6c-1,0-1.9,0-2.9,0c0-6.1,0-12.3,0-18.4c1,0,1.9,0,2.9,0c0,0.6,0,1.1,0,1.7c0.8-0.8,1.6-1.3,2.6-1.5
		c1.6-0.3,3.2-0.4,4.8,0c0.8,0.2,0.8,0.3,0.8,1c0,0.7,0,1.5,0,2.2c-1.3-0.5-2.5-0.7-3.8-0.6c-2.8,0.2-4.3,1.8-4.4,4.7
		c0,3.4,0,6.9,0,10.3C49.7,75.2,49.7,75.4,49.7,75.6z"/>
	<path class="st0" d="M59.5,57.2c1,0,2,0,3,0c0,6.1,0,12.2,0,18.4c-1,0-2,0-3,0C59.5,69.5,59.5,63.4,59.5,57.2z"/>
	<path class="st0" d="M17.6,25.6c-1.5,0-2.9,0.1-4.4,0.1c-0.1,0-0.2,0-0.3-0.1c-3.2-1.3-6.5-2.6-9.7-3.9c-0.1,0-0.1-0.1-0.2-0.1
		c4.9,0,9.8,0,14.6,0C17.6,23,17.6,24.3,17.6,25.6z"/>
	<path class="st0" d="M52,25.6c0-1.3,0-2.6,0-3.9c4.9,0,9.7,0,14.7,0c-0.3,0.1-0.5,0.2-0.7,0.3c-2.9,1.2-5.8,2.3-8.7,3.5
		c-0.6,0.2-1.1,0.3-1.7,0.3C54.4,25.7,53.2,25.7,52,25.6z"/>
	<path class="st0" d="M37,83.5c-4,0-8,0-12,0c0-0.9,0-1.8,0-2.8c4,0,8,0,12,0C37,81.6,37,82.5,37,83.5z"/>
	<path class="st0" d="M24.2,80.7c0,0.9,0,1.8,0,2.7c-4,0-8,0-12,0c0-0.9,0-1.8,0-2.7C16.2,80.7,20.2,80.7,24.2,80.7z"/>
	<path class="st0" d="M49.7,80.7c0,0.9,0,1.8,0,2.7c-4,0-8,0-12,0c0-0.9,0-1.8,0-2.7C41.7,80.7,45.7,80.7,49.7,80.7z"/>
	<path class="st0" d="M50.4,83.5c0-0.9,0-1.7,0-2.5c0-0.1,0-0.1,0-0.2c4,0,8,0,12,0c0,0.9,0,1.8,0,2.8
		C58.5,83.5,54.5,83.5,50.4,83.5z"/>
	<path class="st0" d="M54.9,92.2c0.2,0.2,0.4,0.3,0.5,0.5c-0.7,1.3-2.6,1.6-3.9,1c-1.5-0.6-2.3-2.4-1.8-4c0.5-1.7,2.1-2.6,3.8-2.3
		c1.5,0.3,2.6,1.8,2.5,3.3c-1.8,0-3.7,0-5.5,0c-0.1,1,0.5,1.9,1.3,2.3C52.8,93.5,53.9,93.2,54.9,92.2z M55.1,90
		c-0.2-1.1-1.1-1.8-2.2-1.9c-1.2,0-2.1,0.7-2.3,1.9C52.1,90,53.6,90,55.1,90z"/>
	<path class="st0" d="M42.8,90.8c-1.8,0-3.7,0-5.5,0c-0.1,1,0.5,1.8,1.3,2.2c1,0.5,2.1,0.2,3.1-0.8c0.2,0.2,0.4,0.3,0.5,0.5
		c-0.7,1.2-2.6,1.6-4,1c-1.4-0.7-2.2-2.5-1.7-4.1c0.5-1.6,2.1-2.5,3.8-2.2C41.8,87.8,42.9,89.2,42.8,90.8z M37.3,90c1.5,0,3,0,4.5,0
		c-0.3-1.1-1.1-1.8-2.3-1.8C38.5,88.2,37.6,88.9,37.3,90z"/>
	<path class="st0" d="M19.9,94c-1.8,0-3.2-1.4-3.2-3.3c0-1.9,1.5-3.3,3.3-3.3c1.9,0,3.3,1.4,3.3,3.3C23.3,92.6,21.9,94,19.9,94z
		 M22.4,90.7c0-1.4-1.1-2.5-2.4-2.5c-1.3,0-2.5,1.2-2.5,2.5c0,1.4,1.1,2.5,2.4,2.5C21.3,93.2,22.4,92.1,22.4,90.7z"/>
	<path class="st0" d="M27.5,94c-1.8,0-3.2-1.4-3.2-3.3c0-1.9,1.4-3.3,3.3-3.3c1.8,0,3.3,1.4,3.3,3.3C30.8,92.6,29.4,94,27.5,94z
		 M30,90.7c0-1.4-1.1-2.5-2.4-2.5c-1.3,0-2.5,1.1-2.5,2.5c0,1.4,1.1,2.5,2.4,2.5C28.9,93.2,30,92.1,30,90.7z"/>
	<path class="st0" d="M62.9,53.7c0,1.1-0.8,1.9-1.9,1.9c-1.1,0-1.9-0.8-1.9-1.9c0-1.1,0.8-1.9,1.9-1.9C62,51.8,62.9,52.7,62.9,53.7z
		"/>
	<path class="st0" d="M61.2,88.4c0,1.5,0,2.9,0,4.3c0,0.2,0.2,0.4,0.4,0.5c0.1,0.1,0.4,0.1,0.5,0.1c0,0.2,0,0.4,0,0.7
		c-0.4,0-0.7,0-1.1,0c-0.5-0.1-0.7-0.4-0.7-1.1c0-1.3,0-2.6,0-3.9c0-0.2,0-0.4,0-0.6c-0.4,0-0.7,0-1.1,0c0-0.3,0-0.5,0-0.7
		c0.3,0,0.7,0,1,0c0-0.8,0-1.5,0-2.2c0.3,0,0.5,0,0.8,0c0,0.7,0,1.5,0,2.2c0.4,0,0.8,0,1.3,0c0,0.3,0,0.5,0,0.8
		C62.1,88.4,61.7,88.4,61.2,88.4z"/>
	<path class="st0" d="M35.5,88.2c-0.3,0.2-0.4,0.4-0.6,0.5c-0.2-0.1-0.5-0.3-0.8-0.5c-0.5-0.2-1.1-0.1-1.3,0.4
		c-0.2,0.4-0.1,0.9,0.4,1.2c0.3,0.2,0.7,0.4,1.1,0.6c1.1,0.6,1.4,1.6,0.9,2.5c-0.5,0.9-1.6,1.3-2.7,0.8c-0.3-0.1-0.6-0.4-0.9-0.6
		c0.2-0.2,0.4-0.4,0.5-0.6c0.4,0.2,0.7,0.5,1.1,0.6c0.5,0.2,1.1-0.1,1.3-0.6c0.2-0.5,0-0.9-0.5-1.3c-0.4-0.3-0.9-0.5-1.3-0.8
		c-0.8-0.5-1-1.4-0.6-2.2c0.4-0.8,1.3-1.1,2.2-0.8C34.7,87.7,35,87.9,35.5,88.2z"/>
	<path class="st0" d="M46.2,94c-1-2.1-1.9-4.1-2.9-6.2c0.8-0.1,0.8-0.1,1.1,0.6c0.5,1.1,1.1,2.3,1.6,3.4c0.1,0.1,0.1,0.3,0.2,0.5
		c0.6-1.3,1.2-2.6,1.8-3.9c0.3-0.7,0.3-0.7,1.2-0.6c-1,2.1-1.9,4.2-2.9,6.3C46.3,94,46.2,94,46.2,94z"/>
	<path class="st0" d="M13.1,93.9c-0.4,0-0.6,0-0.9,0c0-2.2,0-4.3,0-6.4c0.3,0,0.6,0,0.9,0c0,0.1,0,0.3,0.1,0.5
		c0.6-0.5,1.2-0.6,1.9-0.5c1.1,0.1,1.1,0.1,1,1.1c-0.5,0-1-0.1-1.5-0.1c-0.8,0-1.4,0.7-1.4,1.5C13.1,91.3,13.1,92.6,13.1,93.9z"/>
	<path class="st0" d="M58.2,94c-0.3,0-0.5,0-0.8,0c0-2.9,0-5.7,0-8.6c0.2,0,0.5,0,0.8,0C58.2,88.2,58.2,91,58.2,94z"/>
</g>
</svg>
