<svg id="Capa_1" data-name="Capa 1" xmlns="http://www.w3.org/2000/svg" viewBox="0 0 132.31 40.62"><defs><style>.cls-1{fill:#fff;}</style></defs><path class="cls-1" d="M1.46,0h8.81q5.25,0,8.12,3.16a10.77,10.77,0,0,1,2.88,7.49,10.77,10.77,0,0,1-2.88,7.47q-2.86,3.18-8.12,3.18H4.21a1.2,1.2,0,0,0-.76.25.81.81,0,0,0-.31.67v7a1.19,1.19,0,0,1-.46,1,1.72,1.72,0,0,1-1.11.36,1.76,1.76,0,0,1-1.11-.36,1.19,1.19,0,0,1-.46-1V1.34C0,.5.49.05,1.46,0ZM4.21,18.16h6.06A7.51,7.51,0,0,0,16.11,16a7.61,7.61,0,0,0,2-5.31,7.65,7.65,0,0,0-2-5.32A7.45,7.45,0,0,0,10.27,3.1h-6a1.17,1.17,0,0,0-.78.27.85.85,0,0,0-.33.69V17.2a.84.84,0,0,0,.31.69A1.1,1.1,0,0,0,4.21,18.16Z"/><path class="cls-1" d="M58.24,29.2a.61.61,0,0,0-.69.69v9.46a1.08,1.08,0,0,1-.46.94,1.85,1.85,0,0,1-1.11.33,1.87,1.87,0,0,1-1.11-.33,1.08,1.08,0,0,1-.46-.94V11.46a1.38,1.38,0,0,1,.44-1.06A1.59,1.59,0,0,1,56,10a1.42,1.42,0,0,1,1.38.73c.28.43.56.65.84.65a1.1,1.1,0,0,0,.58-.19,10.38,10.38,0,0,1,6.28-1.92,10.73,10.73,0,0,1,7.49,2.88q3.17,2.87,3.16,8.12t-3.18,8.14a11.14,11.14,0,0,1-13.75,1A1.07,1.07,0,0,0,58.24,29.2ZM70.39,14.43a8,8,0,0,0-10.65,0,7.54,7.54,0,0,0-2.19,5.84,7.23,7.23,0,0,0,7.51,7.89,7.59,7.59,0,0,0,5.33-2,7.62,7.62,0,0,0,2.18-5.88A7.57,7.57,0,0,0,70.39,14.43Z"/><path class="cls-1" d="M89.36,9.31a11.13,11.13,0,0,1,3.46.54,10.39,10.39,0,0,1,2.32,1,5.64,5.64,0,0,1,.92.69,1.32,1.32,0,0,1,.46,1.3,1.56,1.56,0,0,1-.63,1,1.8,1.8,0,0,1-1.09.39,1.75,1.75,0,0,1-.92-.42,7.42,7.42,0,0,0-4.41-1.38,8.45,8.45,0,0,0-3.35.61,2,2,0,0,0-1.44,1.84A1.88,1.88,0,0,0,85,15.88a2.28,2.28,0,0,0,.65.69,3.75,3.75,0,0,0,1,.46,8.64,8.64,0,0,0,1.06.27c.24,0,.62.08,1.13.13s.8.08.88.08a13.19,13.19,0,0,1,5.84,1.86,5.07,5.07,0,0,1,2.17,4.54c0,.13,0,.47-.08,1a6.3,6.3,0,0,1-2.78,4.7,9.69,9.69,0,0,1-5.61,1.67c-.49,0-.84,0-1.07,0a11.27,11.27,0,0,1-4.77-1.63,8.42,8.42,0,0,1-3.36-3.51,1.57,1.57,0,0,1,.16-1.57,1.48,1.48,0,0,1,1.3-.76,1.17,1.17,0,0,1,.65.19,2.17,2.17,0,0,1,.48.38c.11.13.27.32.46.57l.36.5a7.24,7.24,0,0,0,5.06,2.69,7.37,7.37,0,0,0,.77,0,6.59,6.59,0,0,0,3.46-.92,3.48,3.48,0,0,0,1.79-2.64,1.11,1.11,0,0,1,0-.23,2.2,2.2,0,0,0,0-.23,2.74,2.74,0,0,0-.34-1.4,3.65,3.65,0,0,0-.8-1,4.16,4.16,0,0,0-1.25-.61,10.77,10.77,0,0,0-1.36-.36c-.38-.08-.87-.16-1.46-.23q-4.94-.46-6.63-2.3A4.73,4.73,0,0,1,81.5,15,4.64,4.64,0,0,1,83,11.42,9.26,9.26,0,0,1,89.36,9.31Z"/><path class="cls-1" d="M103.93,5.88a1.53,1.53,0,0,1-.4-1,1.57,1.57,0,0,1,.4-1.06,1.78,1.78,0,0,1,2.34,0,1.52,1.52,0,0,1,.4,1.06,1.63,1.63,0,0,1-2.74,1Zm-.36,15.81V11.3a1.22,1.22,0,0,1,.46-1,1.67,1.67,0,0,1,1.11-.39,1.64,1.64,0,0,1,1.11.39,1.22,1.22,0,0,1,.46,1V21.5a7.32,7.32,0,0,0,1,3.69,8.84,8.84,0,0,0,2.66,2.94,1.43,1.43,0,0,1,.69,1.18,1.45,1.45,0,0,1-.52,1.15,1.72,1.72,0,0,1-1.2.46,3.23,3.23,0,0,1-2-1.15,12.83,12.83,0,0,1-2-2.33A10.89,10.89,0,0,1,103.57,21.69Z"/><path class="cls-1" d="M123.92,9.31a11.13,11.13,0,0,1,3.46.54,10.18,10.18,0,0,1,2.32,1,5.64,5.64,0,0,1,.92.69,1.32,1.32,0,0,1,.46,1.3,1.52,1.52,0,0,1-.63,1,1.8,1.8,0,0,1-1.09.39,1.75,1.75,0,0,1-.92-.42A7.42,7.42,0,0,0,124,12.38a8.45,8.45,0,0,0-3.35.61,2,2,0,0,0-1.44,1.84,1.88,1.88,0,0,0,.29,1.05,2.28,2.28,0,0,0,.65.69,3.75,3.75,0,0,0,1,.46,8.64,8.64,0,0,0,1.06.27c.24,0,.62.08,1.13.13s.8.08.88.08a13.19,13.19,0,0,1,5.84,1.86,5,5,0,0,1,2.17,4.54c0,.13,0,.47-.08,1a6.27,6.27,0,0,1-2.78,4.7,9.69,9.69,0,0,1-5.61,1.67c-.49,0-.84,0-1.07,0A11.27,11.27,0,0,1,118,29.64a8.42,8.42,0,0,1-3.36-3.51,1.57,1.57,0,0,1,.16-1.57,1.48,1.48,0,0,1,1.3-.76,1.17,1.17,0,0,1,.65.19,1.79,1.79,0,0,1,.48.38c.11.13.27.32.46.57l.36.5a7.24,7.24,0,0,0,5.06,2.69,7.51,7.51,0,0,0,.77,0,6.62,6.62,0,0,0,3.47-.92,3.49,3.49,0,0,0,1.78-2.64,1.11,1.11,0,0,1,0-.23c0-.1,0-.18,0-.23a2.74,2.74,0,0,0-.35-1.4,3.65,3.65,0,0,0-.8-1,4.16,4.16,0,0,0-1.25-.61,10.77,10.77,0,0,0-1.36-.36c-.38-.08-.87-.16-1.46-.23q-4.94-.46-6.62-2.3a4.69,4.69,0,0,1-1.27-3.3,4.64,4.64,0,0,1,1.53-3.56A9.26,9.26,0,0,1,123.92,9.31Z"/><path class="cls-1" d="M32,4.77a8.74,8.74,0,0,0-5.49,12.57,6.82,6.82,0,0,0-4.28,9.23c1.84,4.22,6.74,5.07,10.23,2.76a7.81,7.81,0,0,0,7.42,4.06c3.85-.24,7-3.1,8.85-6.33s2.45-7.27.47-10.45a7.32,7.32,0,0,0-6.43-3.54A8.71,8.71,0,0,0,32,4.77Zm8,9.63a1.36,1.36,0,0,0,1.75,1.53,4.59,4.59,0,0,1,5.49,2.77c1,2.31.22,5.1-1,7.17-2.16,3.79-9.16,7.81-11.66,1.88a1.3,1.3,0,0,0-.7-.72,1.4,1.4,0,0,0-2.28-.49c-2.18,2.18-5.8,1.82-7-1.16s1.18-5.68,4.21-5.74a1.35,1.35,0,0,0,1-2.08c-2.83-3.29-2.18-8.53,2.26-10A6.07,6.07,0,0,1,40,14.4Z"/></svg>