<svg id="Capa_1" data-name="Capa 1" xmlns="http://www.w3.org/2000/svg" viewBox="0 0 192.53 34.27"><defs><style>.cls-1{fill:#fff;}</style></defs><path class="cls-1" d="M139.26,26.86c-5.31,0-7.73-3.71-7.73-8.29s3.07-8.29,7.73-8.29S147,14,147,18.57s-2.42,8.29-7.72,8.29Zm0-17.78c-6.45,0-10.7,4.22-10.7,9.43S131.91,28,139.26,28,150,23.73,150,18.51s-4.25-9.43-10.69-9.43Z"/><polygon class="cls-1" points="90.77 9.42 90.78 23.43 77.73 9.42 75.29 9.42 75.29 27.61 76.7 27.61 76.7 13.03 90.27 27.61 92.18 27.61 92.18 9.42 90.77 9.42 90.77 9.42"/><polygon class="cls-1" points="167.49 9.42 167.5 23.43 154.44 9.42 152 9.42 152 27.61 153.42 27.61 153.42 13.03 166.99 27.61 168.9 27.61 168.9 9.42 167.49 9.42 167.49 9.42"/><polygon class="cls-1" points="68.39 27.61 71.62 27.61 71.62 9.42 68.39 9.42 68.39 27.61 68.39 27.61"/><polygon class="cls-1" points="130.05 9.42 111.93 9.42 111.93 10.89 119.37 10.78 119.37 27.61 122.6 27.61 122.6 10.78 130.05 10.89 130.05 9.42 130.05 9.42"/><path class="cls-1" d="M172.17,7v-.5h.33c.18,0,.38,0,.38.24s-.19.26-.4.26Zm1-.25c0-.35-.22-.5-.65-.5h-.67V7.93h.3V7.19h.25l.44.74h.36l-.48-.74a.48.48,0,0,0,.45-.49Zm-.67,1.55a1.19,1.19,0,0,1,0-2.37,1.19,1.19,0,0,1,0,2.37Zm0-2.7A1.51,1.51,0,1,0,174,7.06a1.51,1.51,0,0,0-1.51-1.51Z"/><polygon class="cls-1" points="192.53 34.27 181.48 34.27 181.48 0 192.53 0 192.53 34.27 192.53 34.27"/><polygon class="cls-1" points="24.27 27.61 24.27 9.39 37.69 9.39 37.69 10.88 27.45 10.68 27.45 17.34 35.42 17.34 35.42 18.44 27.45 18.44 27.45 26.31 38.08 26.16 38.08 27.61 24.27 27.61 24.27 27.61"/><polygon class="cls-1" points="43.77 9.37 53.02 25.03 61.22 9.37 64.57 9.37 64.57 27.61 61.22 27.61 61.21 12.14 53.11 27.61 50.78 27.61 42.14 13.25 42.18 27.61 40.75 27.61 40.75 9.37 43.77 9.37 43.77 9.37"/><path class="cls-1" d="M3.77,6.52H7.14c2.32,0,10.93-.09,10.93,5.16,0,4.75-6,5.6-8.67,5.6H3.77V6.52Zm19,21.08-10.2-9.35c.4,0,.82-.05,1.21-.1,2.32-.31,7-1.59,7.32-6.42.13-6.3-9.92-6.29-12.08-6.29H0V27.63H3.77V18.37H8.59L18.85,27.6Z"/><path class="cls-1" d="M109.91,9.47a21.67,21.67,0,0,0-4.39-.42c-7,0-11.18,4.27-11.18,9.48S97.69,28,105,28a11.56,11.56,0,0,0,7.68-2.39V18.86H108.1l1.47,1.33v5.45A8,8,0,0,1,105,26.88c-5.31,0-7.73-3.72-7.73-8.3a8,8,0,0,1,8.22-8.32,12.38,12.38,0,0,1,4.38.66V9.47Z"/></svg>