<svg id="Capa_1" data-name="Capa 1" xmlns="http://www.w3.org/2000/svg" viewBox="0 0 153.71 61.35"><defs><style>.cls-1{fill:#fff;}</style></defs><path class="cls-1" d="M30.67,0A30.68,30.68,0,1,0,61.35,30.67,30.67,30.67,0,0,0,30.67,0ZM51.24,30.71C47.17,41.47,30.67,50.62,30.67,50.62S14.18,41.47,10.1,30.71A12.27,12.27,0,0,1,30.67,18,12.27,12.27,0,0,1,51.24,30.71Z"/><path class="cls-1" d="M72.21,21.38a4.5,4.5,0,0,1-1.8-1.08l.48-.92a4.53,4.53,0,0,0,1.64,1,6.06,6.06,0,0,0,2.11.38,3.88,3.88,0,0,0,2.29-.56,1.73,1.73,0,0,0,.76-1.46,1.46,1.46,0,0,0-.41-1.08,2.79,2.79,0,0,0-1-.63,14.91,14.91,0,0,0-1.67-.48,18.36,18.36,0,0,1-2-.62A3.54,3.54,0,0,1,71.23,15a2.46,2.46,0,0,1-.54-1.68,2.77,2.77,0,0,1,.46-1.56,3,3,0,0,1,1.39-1.13,5.75,5.75,0,0,1,2.34-.43,6.83,6.83,0,0,1,1.91.27,5.75,5.75,0,0,1,1.62.74l-.41,1a5.76,5.76,0,0,0-1.53-.71,5.93,5.93,0,0,0-1.59-.23,3.73,3.73,0,0,0-2.25.57,1.8,1.8,0,0,0-.75,1.49,1.47,1.47,0,0,0,.41,1.1,2.71,2.71,0,0,0,1,.63,17.4,17.4,0,0,0,1.68.48,17.09,17.09,0,0,1,2,.61,3.2,3.2,0,0,1,1.31.91,2.41,2.41,0,0,1,.54,1.65,2.88,2.88,0,0,1-.46,1.57A3.17,3.17,0,0,1,77,21.37a6,6,0,0,1-2.35.41A7.29,7.29,0,0,1,72.21,21.38Z"/><path class="cls-1" d="M82.52,21.21A4.17,4.17,0,0,1,81,19.65a4.69,4.69,0,0,1,0-4.48,4,4,0,0,1,1.56-1.54,4.7,4.7,0,0,1,4.45,0,3.89,3.89,0,0,1,1.55,1.54,4.76,4.76,0,0,1,0,4.48A4.07,4.07,0,0,1,87,21.21a4.7,4.7,0,0,1-4.45,0Zm3.86-.88a3,3,0,0,0,1.13-1.18,4,4,0,0,0,0-3.48,2.9,2.9,0,0,0-1.13-1.17,3.23,3.23,0,0,0-1.64-.42,3.19,3.19,0,0,0-1.63.42A2.92,2.92,0,0,0,82,15.67a3.9,3.9,0,0,0,0,3.48,3,3,0,0,0,1.14,1.18,3.29,3.29,0,0,0,1.63.41A3.33,3.33,0,0,0,86.38,20.33Z"/><path class="cls-1" d="M92.71,21.21a4,4,0,0,1-1.57-1.55,4.78,4.78,0,0,1,0-4.49,4,4,0,0,1,1.57-1.54A4.6,4.6,0,0,1,95,13.07a4.46,4.46,0,0,1,2,.43,3.36,3.36,0,0,1,1.38,1.26l-.87.59a2.64,2.64,0,0,0-1.07-.95A3.17,3.17,0,0,0,95,14.08a3.34,3.34,0,0,0-1.67.42,2.88,2.88,0,0,0-1.15,1.17,3.92,3.92,0,0,0,0,3.49,3,3,0,0,0,1.15,1.17,3.44,3.44,0,0,0,1.67.41,3.17,3.17,0,0,0,1.41-.31,2.55,2.55,0,0,0,1.07-.94l.87.59a3.32,3.32,0,0,1-1.39,1.26,4.48,4.48,0,0,1-2,.43A4.6,4.6,0,0,1,92.71,21.21Z"/><path class="cls-1" d="M100.57,11a.83.83,0,0,1-.25-.59.82.82,0,0,1,.25-.57.87.87,0,0,1,1.2,0,.74.74,0,0,1,.24.56.85.85,0,0,1-.24.6.87.87,0,0,1-1.2,0Zm0,2.11h1.16v8.54h-1.16Z"/><path class="cls-1" d="M112.4,17.77h-7.15a3,3,0,0,0,1,2.15,3.39,3.39,0,0,0,2.34.82,3.65,3.65,0,0,0,1.46-.28,3.2,3.2,0,0,0,1.16-.84l.65.75a3.75,3.75,0,0,1-1.43,1,5.09,5.09,0,0,1-4.2-.2,4.11,4.11,0,0,1-1.59-1.56,4.39,4.39,0,0,1-.57-2.24,4.51,4.51,0,0,1,.55-2.24,3.88,3.88,0,0,1,1.49-1.54,4.19,4.19,0,0,1,2.14-.56,4.13,4.13,0,0,1,2.13.56,4,4,0,0,1,1.48,1.53,4.73,4.73,0,0,1,.53,2.25Zm-6.2-2.92a3.07,3.07,0,0,0-1,2.06h6.06a3.16,3.16,0,0,0-1-2.06,3,3,0,0,0-2.09-.79A2.92,2.92,0,0,0,106.2,14.85Z"/><path class="cls-1" d="M122.57,9.63v12h-1.11V20a3.47,3.47,0,0,1-1.37,1.32,4.08,4.08,0,0,1-1.93.46,4.3,4.3,0,0,1-2.17-.56,3.91,3.91,0,0,1-1.53-1.54,4.53,4.53,0,0,1-.55-2.26,4.56,4.56,0,0,1,.55-2.26A3.88,3.88,0,0,1,116,13.62a4.4,4.4,0,0,1,2.17-.55,4.13,4.13,0,0,1,1.88.43,3.6,3.6,0,0,1,1.37,1.26V9.63Zm-2.69,10.7A2.92,2.92,0,0,0,121,19.15a3.81,3.81,0,0,0,0-3.48,2.83,2.83,0,0,0-1.13-1.17,3.35,3.35,0,0,0-3.25,0,2.86,2.86,0,0,0-1.14,1.17,3.9,3.9,0,0,0,0,3.48,2.94,2.94,0,0,0,1.14,1.18,3.43,3.43,0,0,0,3.25,0Z"/><path class="cls-1" d="M131.34,13.91a3.25,3.25,0,0,1,.89,2.48v5.29h-1.1V20.35a2.59,2.59,0,0,1-1.15,1,4,4,0,0,1-1.79.38,3.49,3.49,0,0,1-2.28-.69,2.19,2.19,0,0,1-.84-1.8,2.15,2.15,0,0,1,.79-1.75,3.81,3.81,0,0,1,2.51-.67h2.71v-.52a2.18,2.18,0,0,0-.62-1.68,2.51,2.51,0,0,0-1.8-.58,4.57,4.57,0,0,0-1.56.27,3.89,3.89,0,0,0-1.29.74l-.52-.86a4.72,4.72,0,0,1,1.56-.86,6.12,6.12,0,0,1,1.92-.3A3.62,3.62,0,0,1,131.34,13.91Zm-1.3,6.5a2.74,2.74,0,0,0,1-1.29v-1.4H128.4c-1.46,0-2.2.51-2.2,1.53a1.4,1.4,0,0,0,.57,1.18,2.65,2.65,0,0,0,1.6.43A3,3,0,0,0,130,20.41Z"/><path class="cls-1" d="M143.2,9.63v12h-1.11V20a3.41,3.41,0,0,1-1.37,1.32,4.06,4.06,0,0,1-1.92.46,4.31,4.31,0,0,1-2.18-.56,3.91,3.91,0,0,1-1.53-1.54,4.53,4.53,0,0,1-.55-2.26,4.56,4.56,0,0,1,.55-2.26,3.88,3.88,0,0,1,1.53-1.53,4.41,4.41,0,0,1,2.18-.55,4.12,4.12,0,0,1,1.87.43A3.52,3.52,0,0,1,142,14.76V9.63Zm-2.69,10.7a3,3,0,0,0,1.14-1.18,3.9,3.9,0,0,0,0-3.48,2.92,2.92,0,0,0-1.14-1.17,3.16,3.16,0,0,0-1.62-.42,3.19,3.19,0,0,0-1.63.42,2.92,2.92,0,0,0-1.14,1.17,3.9,3.9,0,0,0,0,3.48,3,3,0,0,0,1.14,1.18,3.29,3.29,0,0,0,1.63.41A3.25,3.25,0,0,0,140.51,20.33Z"/><path class="cls-1" d="M79,40.25l.1,12H78V50.62A3.57,3.57,0,0,1,76.6,52a4.13,4.13,0,0,1-1.92.47,4.33,4.33,0,0,1-2.18-.54A4,4,0,0,1,71,50.35a4.64,4.64,0,0,1-.57-2.25,4.52,4.52,0,0,1,.53-2.26,3.91,3.91,0,0,1,1.52-1.55,4.3,4.3,0,0,1,2.17-.56,4,4,0,0,1,1.88.41,3.52,3.52,0,0,1,1.38,1.25l0-5.14ZM76.39,51a3.06,3.06,0,0,0,1.12-1.19,3.86,3.86,0,0,0,0-3.48,2.92,2.92,0,0,0-1.14-1.17,3.39,3.39,0,0,0-3.25,0A3,3,0,0,0,72,46.35a3.66,3.66,0,0,0-.4,1.74A3.6,3.6,0,0,0,72,49.82,2.88,2.88,0,0,0,73.14,51a3.43,3.43,0,0,0,3.25,0Z"/><path class="cls-1" d="M89.71,48.3l-7.15.06a3.05,3.05,0,0,0,1,2.14,3.42,3.42,0,0,0,2.35.8,3.5,3.5,0,0,0,1.46-.3,3.25,3.25,0,0,0,1.15-.84l.65.74A3.54,3.54,0,0,1,87.8,52a4.76,4.76,0,0,1-1.87.37,4.7,4.7,0,0,1-2.34-.54A4,4,0,0,1,82,50.24,4.36,4.36,0,0,1,81.41,48a4.5,4.5,0,0,1,.52-2.25,3.94,3.94,0,0,1,1.48-1.55,4.05,4.05,0,0,1,2.14-.57,4.11,4.11,0,0,1,2.13.53,3.89,3.89,0,0,1,1.49,1.52,4.6,4.6,0,0,1,.55,2.25Zm-6.22-2.87a3.08,3.08,0,0,0-.94,2.06l6.06-.05a3.07,3.07,0,0,0-1-2,2.93,2.93,0,0,0-2.1-.77A2.86,2.86,0,0,0,83.49,45.43Z"/><path class="cls-1" d="M92,40.14h1.15l.1,12H92.11Z"/><path class="cls-1" d="M107.59,44.39a3.64,3.64,0,0,1,1,2.71l0,5h-1.15l0-4.85a2.83,2.83,0,0,0-.68-2,2.51,2.51,0,0,0-1.91-.68,2.89,2.89,0,0,0-2.18.83,3.12,3.12,0,0,0-.78,2.28l0,4.48h-1.15l-.07-8.54h1.11v1.57a3.19,3.19,0,0,1,1.3-1.22,4.1,4.1,0,0,1,1.93-.44A3.47,3.47,0,0,1,107.59,44.39Z"/><path class="cls-1" d="M111.64,41.37a.76.76,0,0,1-.25-.58.71.71,0,0,1,.24-.57.82.82,0,0,1,.59-.25.89.89,0,0,1,.61.23.81.81,0,0,1,0,1.16.79.79,0,0,1-.6.25A.81.81,0,0,1,111.64,41.37Zm0,2.12h1.15l.07,8.54h-1.15Z"/><path class="cls-1" d="M123,44.26a3.65,3.65,0,0,1,1,2.72l0,5h-1.15l0-4.84a2.9,2.9,0,0,0-.68-2,2.51,2.51,0,0,0-1.91-.68,2.94,2.94,0,0,0-2.18.84,3.09,3.09,0,0,0-.78,2.27l0,4.49h-1.15L116,43.45h1.1l0,1.58a3.16,3.16,0,0,1,1.29-1.22,4.05,4.05,0,0,1,1.94-.45A3.49,3.49,0,0,1,123,44.26Zm-2.58-2.45a3.83,3.83,0,0,1-.64-.47,4.7,4.7,0,0,0-.46-.35.71.71,0,0,0-.37-.1.75.75,0,0,0-.6.28,1.26,1.26,0,0,0-.24.77h-.69a2.1,2.1,0,0,1,.41-1.3,1.26,1.26,0,0,1,1-.5,1.4,1.4,0,0,1,.66.16,4.83,4.83,0,0,1,.66.48,3.78,3.78,0,0,0,.45.34.62.62,0,0,0,.37.11.72.72,0,0,0,.58-.27,1.26,1.26,0,0,0,.26-.74h.69a2,2,0,0,1-.41,1.28,1.28,1.28,0,0,1-1,.49A1.26,1.26,0,0,1,120.38,41.81Z"/><path class="cls-1" d="M128.4,51.41a4.12,4.12,0,0,1-1.57-1.53,4.71,4.71,0,0,1,0-4.49,4,4,0,0,1,1.55-1.55,4.48,4.48,0,0,1,2.22-.58,4.57,4.57,0,0,1,2.23.54,3.92,3.92,0,0,1,1.57,1.53,4.72,4.72,0,0,1,0,4.48,3.94,3.94,0,0,1-1.54,1.57,4.42,4.42,0,0,1-2.22.58A4.52,4.52,0,0,1,128.4,51.41Zm3.85-.9a2.86,2.86,0,0,0,1.12-1.19,3.66,3.66,0,0,0,.4-1.74,3.79,3.79,0,0,0-.42-1.74,3,3,0,0,0-1.14-1.17,3.32,3.32,0,0,0-1.64-.4,3.27,3.27,0,0,0-1.63.43,3,3,0,0,0-1.13,1.19,3.66,3.66,0,0,0-.4,1.74,3.6,3.6,0,0,0,.43,1.73A2.88,2.88,0,0,0,129,50.53a3.19,3.19,0,0,0,1.64.4A3.16,3.16,0,0,0,132.25,50.51Z"/><path class="cls-1" d="M78.15,28.09a4,4,0,0,1,1.53,1.54,4.94,4.94,0,0,1,0,4.53,4,4,0,0,1-1.52,1.54,4.42,4.42,0,0,1-2.19.54,4,4,0,0,1-1.87-.43,3.62,3.62,0,0,1-1.38-1.26v4.76H71.57V27.61h1.11V29.3A3.56,3.56,0,0,1,74.05,28,4.06,4.06,0,0,1,76,27.55,4.4,4.4,0,0,1,78.15,28.09Zm-.63,6.71a2.86,2.86,0,0,0,1.14-1.17,3.56,3.56,0,0,0,.42-1.74,3.49,3.49,0,0,0-.42-1.73A2.88,2.88,0,0,0,77.52,29a3.37,3.37,0,0,0-3.26,0,3,3,0,0,0-1.14,1.18,3.6,3.6,0,0,0-.41,1.73,3.66,3.66,0,0,0,.41,1.74,3,3,0,0,0,1.14,1.17,3.37,3.37,0,0,0,3.26,0Z"/><path class="cls-1" d="M84.9,28a4.15,4.15,0,0,1,2-.44v1.12l-.27,0a2.76,2.76,0,0,0-2.12.83,3.32,3.32,0,0,0-.76,2.33v4.35H82.59V27.61h1.1v1.68A2.78,2.78,0,0,1,84.9,28Z"/><path class="cls-1" d="M90.16,35.68a4.07,4.07,0,0,1-1.56-1.55,4.69,4.69,0,0,1,0-4.48,4,4,0,0,1,1.56-1.55,4.78,4.78,0,0,1,4.45,0,3.92,3.92,0,0,1,1.55,1.55,4.76,4.76,0,0,1,0,4.48,4,4,0,0,1-1.55,1.55,4.7,4.7,0,0,1-4.45,0ZM94,34.8a3,3,0,0,0,1.13-1.17,4,4,0,0,0,0-3.48A3,3,0,0,0,94,29a3.22,3.22,0,0,0-1.64-.41,3.19,3.19,0,0,0-1.63.41,3,3,0,0,0-1.14,1.18,3.9,3.9,0,0,0,0,3.48,3,3,0,0,0,1.14,1.17,3.19,3.19,0,0,0,1.63.42A3.23,3.23,0,0,0,94,34.8Z"/><path class="cls-1" d="M103.58,35.64a2.27,2.27,0,0,1-.81.45,3.32,3.32,0,0,1-1,.15,2.51,2.51,0,0,1-1.85-.65,2.48,2.48,0,0,1-.65-1.83V28.59H97.74v-1h1.53V25.75h1.16v1.86H103v1h-2.59v5.1a1.58,1.58,0,0,0,.38,1.16,1.42,1.42,0,0,0,1.09.4,2.26,2.26,0,0,0,.69-.11,1.72,1.72,0,0,0,.58-.33Z"/><path class="cls-1" d="M112.81,32.24h-7.15a3,3,0,0,0,1,2.16,3.44,3.44,0,0,0,2.34.82,3.66,3.66,0,0,0,1.46-.29,3.18,3.18,0,0,0,1.16-.83l.65.74a3.56,3.56,0,0,1-1.43,1,5.09,5.09,0,0,1-4.2-.2,4,4,0,0,1-1.59-1.55,4.42,4.42,0,0,1-.57-2.24,4.48,4.48,0,0,1,.55-2.24,3.9,3.9,0,0,1,1.49-1.55,4.19,4.19,0,0,1,2.14-.55,4.12,4.12,0,0,1,2.13.55,4,4,0,0,1,1.48,1.54,4.67,4.67,0,0,1,.53,2.25Zm-6.2-2.91a3,3,0,0,0-1,2.05h6.06a3.14,3.14,0,0,0-1-2.05,2.92,2.92,0,0,0-2.09-.79A2.88,2.88,0,0,0,106.61,29.33Z"/><path class="cls-1" d="M116.45,35.69a4.1,4.1,0,0,1-1.57-1.55,4.58,4.58,0,0,1-.56-2.25,4.49,4.49,0,0,1,.56-2.24,4,4,0,0,1,1.57-1.55,4.6,4.6,0,0,1,2.27-.55,4.32,4.32,0,0,1,2,.43,3.36,3.36,0,0,1,1.38,1.26l-.87.58a2.64,2.64,0,0,0-1.07-.95,3.17,3.17,0,0,0-1.41-.31,3.33,3.33,0,0,0-1.67.41,3,3,0,0,0-1.15,1.18,3.55,3.55,0,0,0-.41,1.74,3.5,3.5,0,0,0,.41,1.74,2.88,2.88,0,0,0,1.15,1.17,3.34,3.34,0,0,0,1.67.42,3.17,3.17,0,0,0,1.41-.31A2.62,2.62,0,0,0,121.2,34l.87.58a3.32,3.32,0,0,1-1.39,1.26,4.34,4.34,0,0,1-2,.43A4.6,4.6,0,0,1,116.45,35.69Z"/><path class="cls-1" d="M128.92,35.64a2.22,2.22,0,0,1-.8.45,3.37,3.37,0,0,1-1,.15,2.51,2.51,0,0,1-1.85-.65,2.44,2.44,0,0,1-.65-1.83V28.59h-1.53v-1h1.53V25.75h1.15v1.86h2.6v1h-2.6v5.1a1.62,1.62,0,0,0,.38,1.16,1.44,1.44,0,0,0,1.1.4,2.26,2.26,0,0,0,.69-.11,1.94,1.94,0,0,0,.58-.33Z"/><path class="cls-1" d="M132,35.68a3.94,3.94,0,0,1-1.56-1.55,4.69,4.69,0,0,1,0-4.48A3.88,3.88,0,0,1,132,28.1a4.78,4.78,0,0,1,4.45,0A4,4,0,0,1,138,29.65a4.76,4.76,0,0,1,0,4.48,4,4,0,0,1-1.55,1.55,4.7,4.7,0,0,1-4.45,0Zm3.85-.88A2.83,2.83,0,0,0,137,33.63a3.9,3.9,0,0,0,0-3.48A2.86,2.86,0,0,0,135.83,29a3.45,3.45,0,0,0-3.26,0,3,3,0,0,0-1.14,1.18,3.9,3.9,0,0,0,0,3.48,3,3,0,0,0,1.14,1.17,3.37,3.37,0,0,0,3.26,0Z"/><path class="cls-1" d="M143.21,28a4.15,4.15,0,0,1,2-.44v1.12l-.28,0a2.73,2.73,0,0,0-2.11.83,3.32,3.32,0,0,0-.76,2.33v4.35h-1.16V27.61H142v1.68A2.73,2.73,0,0,1,143.21,28Z"/><path class="cls-1" d="M152.82,28.39a3.19,3.19,0,0,1,.89,2.47v5.3h-1.1V34.83a2.65,2.65,0,0,1-1.15,1,4,4,0,0,1-1.79.37,3.56,3.56,0,0,1-2.28-.68,2.22,2.22,0,0,1-.84-1.8,2.19,2.19,0,0,1,.79-1.76,3.86,3.86,0,0,1,2.51-.67h2.71v-.52a2.21,2.21,0,0,0-.62-1.68,2.56,2.56,0,0,0-1.8-.57,4.82,4.82,0,0,0-1.56.26,3.91,3.91,0,0,0-1.28.74l-.52-.86a4.51,4.51,0,0,1,1.56-.85,6,6,0,0,1,1.91-.3A3.62,3.62,0,0,1,152.82,28.39Zm-1.3,6.49a2.59,2.59,0,0,0,1-1.29V32.2h-2.68c-1.46,0-2.19.51-2.19,1.52a1.42,1.42,0,0,0,.56,1.18,2.58,2.58,0,0,0,1.6.43A3,3,0,0,0,151.52,34.88Z"/></svg>