<svg id="Capa_1" data-name="Capa 1" xmlns="http://www.w3.org/2000/svg" viewBox="0 0 199.39 41.39"><defs><style>.cls-1{fill:#fff;}</style></defs><path class="cls-1" d="M18,7.49c0,1.91,0,3.82,0,5.73a8.27,8.27,0,0,0,.05,1c.05.41.2.48.58.31.55-.25,1.09-.52,1.65-.74a7.35,7.35,0,0,1,7.55,1,8.59,8.59,0,0,1,3.27,5.33A11.44,11.44,0,0,1,30,27.68a19.75,19.75,0,0,1-3.71,5.08c-1.32,1.36-2.69,2.66-4.05,4C21.08,37.84,19.94,39,18.76,40a10.59,10.59,0,0,1-1.67,1.12A2,2,0,0,1,15,41.06a12.41,12.41,0,0,1-2.62-2L9.05,35.84c-1-.94-2-1.87-3-2.83A20.33,20.33,0,0,1,2,27.52,11.29,11.29,0,0,1,1,20,8.51,8.51,0,0,1,4.08,15a7.26,7.26,0,0,1,6.43-1.53,15.08,15.08,0,0,1,4.31,1.84.92.92,0,0,1,.47.8c0,.59,0,1.18,0,1.77,0,.84,0,1.69,0,2.53a4.6,4.6,0,0,0,1.86,3.4,6,6,0,0,0,5.73,1,6.09,6.09,0,0,0,2-1c.13-.09.36-.19.23-.38s-.28,0-.42.07a7.29,7.29,0,0,1-5.24.61,5,5,0,0,1-3.34-2.88,4.59,4.59,0,0,1-.25-1.84c0-1.94,0-3.89,0-5.83,0-1.07,0-2.14,0-3.2,0,0,0-.09,0-.13s-.12-.38-.24-.43a.59.59,0,0,0-.47.15c-.41.34-.77.72-1.18,1a5.46,5.46,0,0,1-3.28,1.2c-.88,0-1.76,0-2.64.1a8.62,8.62,0,0,0-3.47.89A8,8,0,0,0,1.75,16c-.2.3-.38.62-.59.92a.61.61,0,0,1-.69.32A.64.64,0,0,1,0,16.58,9.13,9.13,0,0,1,3.51,8.51,7.94,7.94,0,0,1,7.06,7c1-.21,2-.39,3-.57A7.43,7.43,0,0,0,14.5,3.74a10.94,10.94,0,0,0,1.79-3,1.62,1.62,0,0,1,.54-.65.65.65,0,0,1,1,.31,2.69,2.69,0,0,1,.16.89c0,2.06,0,4.11,0,6.17Z"/><path class="cls-1" d="M114.69,28c-3.13,0-6.26,0-9.39,0-1,0-1.22.32-1,1.29,1.61,7.61,10.08,10.66,16.51,5.92.44-.32.85-.68,1.28-1a2,2,0,0,1,2.83.13,1.86,1.86,0,0,1-.26,2.72,14,14,0,0,1-8,4.06,14.43,14.43,0,0,1-12.29-3.42,13.77,13.77,0,0,1-4.5-8.5c-.73-5,.21-9.68,3.76-13.49a12.83,12.83,0,0,1,12.82-3.91c5,1.1,8.07,4.41,9.49,9.23a20.43,20.43,0,0,1,.65,4.62c.09,1.72-.6,2.33-2.37,2.35-3.17,0-6.33,0-9.49,0Zm-1.6-3.34h7.85c1.27,0,1.35,0,1-1.29a17.65,17.65,0,0,0-1.29-3.79,8.24,8.24,0,0,0-11-3.53c-3.05,1.54-4.61,4.17-5.33,7.41-.22,1,0,1.23,1,1.21C107.86,24.59,110.48,24.62,113.09,24.62Z"/><path class="cls-1" d="M78.6,28c-3.09,0-6.19,0-9.28,0-1.25,0-1.27.06-1,1.32,1.62,8,10.56,10.62,17,5.47.28-.23.54-.48.84-.7a2,2,0,0,1,2.66.19,1.83,1.83,0,0,1-.12,2.64,14.95,14.95,0,0,1-22.23-1.22c-4.7-6.25-4.07-17.53,4-22.41C77,9.3,86.68,11.31,89.67,20.32a24.59,24.59,0,0,1,.92,4.91c.21,1.88-.59,2.7-2.5,2.72C84.93,28,81.76,28,78.6,28ZM77,24.6h0c2.69,0,5.38,0,8.07,0,.82,0,1.19-.22,1-1.06a25.07,25.07,0,0,0-.92-3.13,8.33,8.33,0,0,0-11-4.67c-3.51,1.46-5.16,4.4-5.92,8-.17.84.33.89,1,.89Z"/><path class="cls-1" d="M157.45,11.41a14.65,14.65,0,0,1,15,14.75,14.88,14.88,0,0,1-14.6,15.1c-8.63.08-15.2-6.25-15.24-14.68A14.66,14.66,0,0,1,157.45,11.41Zm10.39,14.73a11.08,11.08,0,0,0-1.47-5.5,10.24,10.24,0,0,0-13.83-4.09c-4.91,2.66-7,9.51-4.37,14.63,2.11,4.18,6.2,6.59,10.3,6.06C164.11,36.51,167.84,32.19,167.84,26.14Z"/><path class="cls-1" d="M178.75,15.94a35.53,35.53,0,0,1,4.77-3.49,11.43,11.43,0,0,1,13,2.15,10.74,10.74,0,0,1,2.81,7.59c.07,5.42,0,10.84,0,16.25a2.21,2.21,0,1,1-4.41.06c0-4.62,0-9.24,0-13.85a15.07,15.07,0,0,0-.67-4.6c-1.27-3.7-4.47-4.8-7.48-4.62a8.16,8.16,0,0,0-8,8.54c0,4.72,0,9.45,0,14.17a3.77,3.77,0,0,1-.55,1.93,2,2,0,0,1-2.36.65,1.94,1.94,0,0,1-1.47-1.83c0-.8,0-1.6,0-2.4q0-11.07,0-22.14c0-1.78.81-2.66,2.34-2.58a2,2,0,0,1,2,1.9A21.66,21.66,0,0,1,178.75,15.94Z"/><path class="cls-1" d="M129.9,25.37c0-2.8,0-5.6,0-8.4,0-.8-.23-1.14-1-1.06a6.64,6.64,0,0,1-1.41,0A2.07,2.07,0,0,1,125.71,14,2,2,0,0,1,127.46,12a3.12,3.12,0,0,1,.44,0c2-.09,2-.09,2-2.14,0-1.42,0-2.83,0-4.25A2.23,2.23,0,0,1,132,3.14a2.16,2.16,0,0,1,2.31,2.23c.09,1.85.08,3.7,0,5.56,0,.8.26,1.08,1.07,1.06,2,0,4,0,6,0a2,2,0,0,1,2.12,1.39,1.93,1.93,0,0,1-1.92,2.51q-3.06.07-6.11,0c-.83,0-1.15.23-1.14,1.12,0,5.19,0,10.39,0,15.59,0,3.23,2,4.61,5.28,4.41.57,0,1.14-.23,1.71-.31a1.85,1.85,0,0,1,1,3.52,10.27,10.27,0,0,1-9.26-.36c-2.46-1.4-3.16-3.89-3.22-6.54s0-5.31,0-8Z"/><path class="cls-1" d="M55.41,25c0,2.51,0,5,0,7.53,0,3.38,2.13,4.68,5.2,4.5.61,0,1.21-.23,1.82-.32a1.71,1.71,0,0,1,2,1.18,1.76,1.76,0,0,1-.8,2.26c-5.12,3.24-12.29-.22-12.53-6.2C50.86,28.68,51,23.4,51,18.13c0-.4,0-.8,0-1.2,0-.73-.23-1.09-1-1a6.65,6.65,0,0,1-1.41,0A2,2,0,0,1,48.49,12a6.43,6.43,0,0,1,.76,0C51,12,51,12,51,10.17c0-1.6,0-3.2,0-4.8a2.09,2.09,0,0,1,2.16-2.23,2.22,2.22,0,0,1,2.23,2.23c.06,1.85.06,3.71,0,5.56,0,.81.26,1.09,1.07,1.07,1.93,0,3.86,0,5.78,0,1.5,0,2.39.75,2.39,1.93s-.87,2-2.34,2c-1.93,0-3.86.05-5.79,0-.87,0-1.12.29-1.11,1.14C55.44,19.69,55.41,22.35,55.41,25Z"/><path class="cls-1" d="M97.18,20.41V38.29c0,1.64-.71,2.52-2,2.54a2.2,2.2,0,0,1-2.36-2.5q0-17.94,0-35.87A2.23,2.23,0,0,1,95,0a2.17,2.17,0,0,1,2.18,2.43C97.19,8.42,97.18,14.42,97.18,20.41Z"/><path class="cls-1" d="M157.84,8.08c-1.48,0-1.94-.64-1.34-1.62a64.24,64.24,0,0,1,3.81-5.7c.89-1.17,3.73-.75,4.39.58a1.34,1.34,0,0,1-.16,1.26c-1.71,1.72-3.47,3.4-5.29,5A3.23,3.23,0,0,1,157.84,8.08Z"/></svg>